<ttFont>
    <TTGlyph name="A" xMin="-33" yMin="-6" xMax="646" yMax="658">
      <contour>
        <pt x="593" y="153" on="1"/>
        <pt x="598" y="118" on="0"/>
        <pt x="620" y="89" on="0"/>
        <pt x="640" y="86" on="1"/>
        <pt x="646" y="76" on="1"/>
        <pt x="628" y="-3" on="1"/>
        <pt x="604" y="-3" on="0"/>
        <pt x="579" y="-2" on="1"/>
        <pt x="558" y="-2" on="0"/>
        <pt x="510" y="-1" on="0"/>
        <pt x="490" y="-1" on="1"/>
        <pt x="455" y="-1" on="0"/>
        <pt x="387" y="-3" on="0"/>
        <pt x="361" y="-4" on="1"/>
        <pt x="330" y="-5" on="0"/>
        <pt x="302" y="-6" on="1"/>
        <pt x="295" y="3" on="1"/>
        <pt x="311" y="87" on="1"/>
        <pt x="353" y="91" on="0"/>
        <pt x="377" y="104" on="0"/>
        <pt x="377" y="121" on="1"/>
        <pt x="377" y="178" on="1"/>
        <pt x="358" y="178" on="0"/>
        <pt x="343" y="179" on="1"/>
        <pt x="330" y="179" on="0"/>
        <pt x="307" y="180" on="0"/>
        <pt x="304" y="180" on="1"/>
        <pt x="297" y="180" on="0"/>
        <pt x="272" y="178" on="0"/>
        <pt x="259" y="177" on="1"/>
        <pt x="244" y="176" on="0"/>
        <pt x="227" y="175" on="1"/>
        <pt x="214" y="131" on="1"/>
        <pt x="208" y="111" on="0"/>
        <pt x="208" y="104" on="1"/>
        <pt x="208" y="89" on="0"/>
        <pt x="231" y="89" on="1"/>
        <pt x="258" y="89" on="1"/>
        <pt x="265" y="79" on="1"/>
        <pt x="247" y="-4" on="1"/>
        <pt x="220" y="-4" on="0"/>
        <pt x="194" y="-3" on="1"/>
        <pt x="171" y="-2" on="0"/>
        <pt x="119" y="-1" on="0"/>
        <pt x="97" y="-1" on="1"/>
        <pt x="74" y="-1" on="0"/>
        <pt x="28" y="-2" on="0"/>
        <pt x="9" y="-2" on="1"/>
        <pt x="-33" y="-2" on="1"/>
        <pt x="-16" y="85" on="1"/>
        <pt x="20" y="94" on="0"/>
        <pt x="39" y="140" on="1"/>
        <pt x="250" y="642" on="1"/>
        <pt x="517" y="658" on="1"/>
        <pt x="531" y="646" on="1"/>
        <pt x="545" y="537" on="0"/>
        <pt x="557" y="440" on="1"/>
        <pt x="562" y="399" on="0"/>
        <pt x="573" y="314" on="0"/>
        <pt x="582" y="237" on="0"/>
        <pt x="590" y="173" on="0"/>
      </contour>
      <contour>
        <pt x="274" y="301" on="1"/>
        <pt x="322" y="301" on="1"/>
        <pt x="333" y="301" on="0"/>
        <pt x="355" y="302" on="0"/>
        <pt x="371" y="303" on="1"/>
        <pt x="361" y="478" on="1"/>
        <pt x="339" y="478" on="1"/>
      </contour>
    </TTGlyph>
    <TTGlyph name="AE" xMin="-24" yMin="-7" xMax="894" yMax="659">
      <contour>
        <pt x="312" y="87" on="1"/>
        <pt x="352" y="91" on="0"/>
        <pt x="380" y="108" on="0"/>
        <pt x="382" y="130" on="1"/>
        <pt x="383" y="138" on="0"/>
        <pt x="385" y="151" on="0"/>
        <pt x="385" y="162" on="1"/>
        <pt x="388" y="219" on="1"/>
        <pt x="315" y="206" on="1"/>
        <pt x="238" y="183" on="1"/>
        <pt x="219" y="130" on="1"/>
        <pt x="215" y="119" on="0"/>
        <pt x="210" y="106" on="0"/>
        <pt x="210" y="101" on="1"/>
        <pt x="210" y="91" on="0"/>
        <pt x="231" y="89" on="0"/>
        <pt x="262" y="89" on="1"/>
        <pt x="265" y="79" on="1"/>
        <pt x="248" y="-4" on="1"/>
        <pt x="247" y="-4" on="0"/>
        <pt x="199" y="-3" on="0"/>
        <pt x="136" y="-2" on="0"/>
        <pt x="71" y="-1" on="0"/>
        <pt x="54" y="-1" on="1"/>
        <pt x="38" y="-1" on="0"/>
        <pt x="10" y="-2" on="0"/>
        <pt x="-1" y="-2" on="1"/>
        <pt x="-24" y="-2" on="1"/>
        <pt x="-16" y="85" on="1"/>
        <pt x="22" y="94" on="0"/>
        <pt x="46" y="140" on="1"/>
        <pt x="247" y="531" on="1"/>
        <pt x="246" y="547" on="0"/>
        <pt x="236" y="559" on="0"/>
        <pt x="225" y="559" on="1"/>
        <pt x="220" y="559" on="0"/>
        <pt x="212" y="558" on="0"/>
        <pt x="208" y="558" on="1"/>
        <pt x="204" y="557" on="0"/>
        <pt x="200" y="557" on="1"/>
        <pt x="189" y="571" on="1"/>
        <pt x="208" y="650" on="1"/>
        <pt x="255" y="649" on="0"/>
        <pt x="310" y="648" on="1"/>
        <pt x="357" y="647" on="0"/>
        <pt x="475" y="647" on="0"/>
        <pt x="538" y="647" on="1"/>
        <pt x="592" y="647" on="0"/>
        <pt x="701" y="650" on="0"/>
        <pt x="794" y="653" on="0"/>
        <pt x="863" y="657" on="0"/>
        <pt x="877" y="659" on="1"/>
        <pt x="888" y="643" on="1"/>
        <pt x="880" y="612" on="0"/>
        <pt x="871" y="579" on="1"/>
        <pt x="863" y="550" on="0"/>
        <pt x="847" y="479" on="0"/>
        <pt x="841" y="444" on="1"/>
        <pt x="702" y="435" on="1"/>
        <pt x="703" y="444" on="0"/>
        <pt x="705" y="453" on="1"/>
        <pt x="707" y="461" on="0"/>
        <pt x="709" y="477" on="0"/>
        <pt x="709" y="484" on="1"/>
        <pt x="709" y="510" on="0"/>
        <pt x="673" y="527" on="0"/>
        <pt x="623" y="527" on="1"/>
        <pt x="589" y="527" on="0"/>
        <pt x="589" y="503" on="1"/>
        <pt x="595" y="372" on="1"/>
        <pt x="665" y="385" on="1"/>
        <pt x="766" y="411" on="1"/>
        <pt x="781" y="394" on="1"/>
        <pt x="756" y="278" on="1"/>
        <pt x="660" y="266" on="1"/>
        <pt x="598" y="254" on="1"/>
        <pt x="599" y="181" on="1"/>
        <pt x="600" y="114" on="0"/>
        <pt x="643" y="114" on="1"/>
        <pt x="670" y="114" on="0"/>
        <pt x="704" y="122" on="0"/>
        <pt x="728" y="145" on="0"/>
        <pt x="745" y="187" on="0"/>
        <pt x="754" y="221" on="1"/>
        <pt x="883" y="230" on="1"/>
        <pt x="894" y="215" on="1"/>
        <pt x="885" y="186" on="0"/>
        <pt x="876" y="153" on="1"/>
        <pt x="868" y="124" on="0"/>
        <pt x="849" y="50" on="0"/>
        <pt x="841" y="9" on="1"/>
        <pt x="824" y="-7" on="1"/>
        <pt x="776" y="-6" on="0"/>
        <pt x="720" y="-4" on="1"/>
        <pt x="672" y="-2" on="0"/>
        <pt x="543" y="0" on="0"/>
        <pt x="470" y="0" on="1"/>
        <pt x="438" y="-1" on="0"/>
        <pt x="379" y="-2" on="0"/>
        <pt x="355" y="-3" on="1"/>
        <pt x="327" y="-4" on="0"/>
        <pt x="302" y="-6" on="1"/>
        <pt x="296" y="3" on="1"/>
      </contour>
      <contour>
        <pt x="344" y="328" on="1"/>
        <pt x="393" y="337" on="1"/>
        <pt x="397" y="478" on="1"/>
        <pt x="375" y="478" on="1"/>
        <pt x="304" y="324" on="1"/>
      </contour>
    </TTGlyph>
    <TTGlyph name="AEacute" xMin="-24" yMin="-7" xMax="894" yMax="935">
      <component glyphName="AE" x="0" y="0" flags="0x204"/>
      <component glyphName="acute" x="333" y="175" flags="0x4"/>
    </TTGlyph>
    <TTGlyph name="Aacute" xMin="-33" yMin="-6" xMax="646" yMax="875">
      <component glyphName="A" x="0" y="0" flags="0x204"/>
      <component glyphName="acute.cap" x="211" y="0" flags="0x4"/>
    </TTGlyph>
    <TTGlyph name="Abreve" xMin="-33" yMin="-6" xMax="646" yMax="900">
      <component glyphName="A" x="0" y="0" flags="0x204"/>
      <component glyphName="breve.cap" x="142" y="40" flags="0x4"/>
    </TTGlyph>
    <TTGlyph name="Acircumflex" xMin="-33" yMin="-6" xMax="646" yMax="910">
      <component glyphName="A" x="0" y="0" flags="0x204"/>
      <component glyphName="circumflex.cap" x="144" y="0" flags="0x4"/>
    </TTGlyph>
    <TTGlyph name="Adieresis" xMin="-33" yMin="-6" xMax="646" yMax="862">
      <component glyphName="A" x="0" y="0" flags="0x204"/>
      <component glyphName="dieresis.cap" x="143" y="10" flags="0x4"/>
    </TTGlyph>
    <TTGlyph name="Agrave" xMin="-33" yMin="-6" xMax="646" yMax="875">
      <component glyphName="A" x="0" y="0" flags="0x204"/>
      <component glyphName="grave.cap" x="245" y="0" flags="0x4"/>
    </TTGlyph>
    <TTGlyph name="Amacron" xMin="-33" yMin="-6" xMax="646" yMax="823">
      <component glyphName="A" x="0" y="0" flags="0x204"/>
      <component glyphName="macron.cap" x="142" y="0" flags="0x4"/>
    </TTGlyph>
    <TTGlyph name="Aogonek" xMin="-33" yMin="-242" xMax="646" yMax="658">
      <contour>
        <pt x="631" y="-170" on="1"/>
        <pt x="612" y="-185" on="0"/>
        <pt x="594" y="-199" on="1"/>
        <pt x="577" y="-211" on="0"/>
        <pt x="539" y="-235" on="0"/>
        <pt x="521" y="-242" on="1"/>
        <pt x="464" y="-242" on="0"/>
        <pt x="403" y="-199" on="0"/>
        <pt x="403" y="-162" on="1"/>
        <pt x="403" y="-146" on="0"/>
        <pt x="411" y="-114" on="0"/>
        <pt x="434" y="-77" on="0"/>
        <pt x="474" y="-31" on="0"/>
        <pt x="506" y="-1" on="1"/>
        <pt x="490" y="-1" on="1"/>
        <pt x="455" y="-1" on="0"/>
        <pt x="387" y="-3" on="0"/>
        <pt x="361" y="-4" on="1"/>
        <pt x="330" y="-5" on="0"/>
        <pt x="302" y="-6" on="1"/>
        <pt x="295" y="3" on="1"/>
        <pt x="311" y="87" on="1"/>
        <pt x="353" y="91" on="0"/>
        <pt x="377" y="104" on="0"/>
        <pt x="377" y="121" on="1"/>
        <pt x="377" y="178" on="1"/>
        <pt x="358" y="178" on="0"/>
        <pt x="343" y="179" on="1"/>
        <pt x="330" y="179" on="0"/>
        <pt x="307" y="180" on="0"/>
        <pt x="304" y="180" on="1"/>
        <pt x="297" y="180" on="0"/>
        <pt x="272" y="178" on="0"/>
        <pt x="259" y="177" on="1"/>
        <pt x="244" y="176" on="0"/>
        <pt x="227" y="175" on="1"/>
        <pt x="214" y="131" on="1"/>
        <pt x="208" y="111" on="0"/>
        <pt x="208" y="104" on="1"/>
        <pt x="208" y="89" on="0"/>
        <pt x="231" y="89" on="1"/>
        <pt x="258" y="89" on="1"/>
        <pt x="265" y="79" on="1"/>
        <pt x="247" y="-4" on="1"/>
        <pt x="220" y="-4" on="0"/>
        <pt x="194" y="-3" on="1"/>
        <pt x="171" y="-2" on="0"/>
        <pt x="119" y="-1" on="0"/>
        <pt x="97" y="-1" on="1"/>
        <pt x="74" y="-1" on="0"/>
        <pt x="28" y="-2" on="0"/>
        <pt x="9" y="-2" on="1"/>
        <pt x="-33" y="-2" on="1"/>
        <pt x="-16" y="85" on="1"/>
        <pt x="20" y="94" on="0"/>
        <pt x="39" y="140" on="1"/>
        <pt x="250" y="642" on="1"/>
        <pt x="517" y="658" on="1"/>
        <pt x="531" y="646" on="1"/>
        <pt x="545" y="537" on="0"/>
        <pt x="557" y="440" on="1"/>
        <pt x="562" y="399" on="0"/>
        <pt x="573" y="314" on="0"/>
        <pt x="582" y="237" on="0"/>
        <pt x="590" y="173" on="0"/>
        <pt x="593" y="153" on="1"/>
        <pt x="598" y="118" on="0"/>
        <pt x="620" y="89" on="0"/>
        <pt x="640" y="86" on="1"/>
        <pt x="646" y="76" on="1"/>
        <pt x="628" y="-3" on="1"/>
        <pt x="614" y="-3" on="1"/>
        <pt x="608" y="-3" on="0"/>
        <pt x="592" y="-2" on="0"/>
        <pt x="583" y="-2" on="1"/>
        <pt x="560" y="-29" on="0"/>
        <pt x="532" y="-67" on="0"/>
        <pt x="516" y="-93" on="0"/>
        <pt x="511" y="-112" on="0"/>
        <pt x="511" y="-121" on="1"/>
        <pt x="511" y="-136" on="0"/>
        <pt x="529" y="-155" on="0"/>
        <pt x="544" y="-155" on="1"/>
        <pt x="555" y="-155" on="0"/>
        <pt x="577" y="-148" on="0"/>
        <pt x="587" y="-143" on="1"/>
        <pt x="598" y="-138" on="0"/>
        <pt x="610" y="-130" on="1"/>
      </contour>
      <contour>
        <pt x="274" y="301" on="1"/>
        <pt x="322" y="301" on="1"/>
        <pt x="333" y="301" on="0"/>
        <pt x="355" y="302" on="0"/>
        <pt x="371" y="303" on="1"/>
        <pt x="361" y="478" on="1"/>
        <pt x="339" y="478" on="1"/>
      </contour>
    </TTGlyph>
    <TTGlyph name="Aring" xMin="-33" yMin="-6" xMax="646" yMax="892">
      <component glyphName="A" x="0" y="0" flags="0x204"/>
      <component glyphName="ring.cap" x="143" y="0" flags="0x4"/>
    </TTGlyph>
    <TTGlyph name="Aringacute" xMin="-33" yMin="-6" xMax="646" yMax="1016">
      <contour>
        <pt x="593" y="153" on="1"/>
        <pt x="598" y="118" on="0"/>
        <pt x="620" y="89" on="0"/>
        <pt x="640" y="86" on="1"/>
        <pt x="646" y="76" on="1"/>
        <pt x="628" y="-3" on="1"/>
        <pt x="604" y="-3" on="0"/>
        <pt x="579" y="-2" on="1"/>
        <pt x="558" y="-2" on="0"/>
        <pt x="510" y="-1" on="0"/>
        <pt x="490" y="-1" on="1"/>
        <pt x="455" y="-1" on="0"/>
        <pt x="387" y="-3" on="0"/>
        <pt x="361" y="-4" on="1"/>
        <pt x="330" y="-5" on="0"/>
        <pt x="302" y="-6" on="1"/>
        <pt x="295" y="3" on="1"/>
        <pt x="311" y="87" on="1"/>
        <pt x="353" y="91" on="0"/>
        <pt x="377" y="104" on="0"/>
        <pt x="377" y="121" on="1"/>
        <pt x="377" y="178" on="1"/>
        <pt x="358" y="178" on="0"/>
        <pt x="343" y="179" on="1"/>
        <pt x="330" y="179" on="0"/>
        <pt x="307" y="180" on="0"/>
        <pt x="304" y="180" on="1"/>
        <pt x="297" y="180" on="0"/>
        <pt x="272" y="178" on="0"/>
        <pt x="259" y="177" on="1"/>
        <pt x="244" y="176" on="0"/>
        <pt x="227" y="175" on="1"/>
        <pt x="214" y="131" on="1"/>
        <pt x="208" y="111" on="0"/>
        <pt x="208" y="104" on="1"/>
        <pt x="208" y="89" on="0"/>
        <pt x="231" y="89" on="1"/>
        <pt x="258" y="89" on="1"/>
        <pt x="265" y="79" on="1"/>
        <pt x="247" y="-4" on="1"/>
        <pt x="220" y="-4" on="0"/>
        <pt x="194" y="-3" on="1"/>
        <pt x="171" y="-2" on="0"/>
        <pt x="119" y="-1" on="0"/>
        <pt x="97" y="-1" on="1"/>
        <pt x="74" y="-1" on="0"/>
        <pt x="28" y="-2" on="0"/>
        <pt x="9" y="-2" on="1"/>
        <pt x="-33" y="-2" on="1"/>
        <pt x="-16" y="85" on="1"/>
        <pt x="20" y="94" on="0"/>
        <pt x="39" y="140" on="1"/>
        <pt x="250" y="642" on="1"/>
        <pt x="517" y="658" on="1"/>
        <pt x="531" y="646" on="1"/>
        <pt x="545" y="537" on="0"/>
        <pt x="557" y="440" on="1"/>
        <pt x="562" y="399" on="0"/>
        <pt x="573" y="314" on="0"/>
        <pt x="582" y="237" on="0"/>
        <pt x="590" y="173" on="0"/>
      </contour>
      <contour>
        <pt x="274" y="301" on="1"/>
        <pt x="322" y="301" on="1"/>
        <pt x="333" y="301" on="0"/>
        <pt x="355" y="302" on="0"/>
        <pt x="371" y="303" on="1"/>
        <pt x="361" y="478" on="1"/>
        <pt x="339" y="478" on="1"/>
      </contour>
      <contour>
        <pt x="397" y="723" on="1"/>
        <pt x="406" y="723" on="0"/>
        <pt x="431" y="736" on="0"/>
        <pt x="431" y="757" on="1"/>
        <pt x="431" y="784" on="0"/>
        <pt x="401" y="784" on="1"/>
        <pt x="384" y="784" on="0"/>
        <pt x="367" y="765" on="0"/>
        <pt x="367" y="751" on="1"/>
        <pt x="367" y="734" on="0"/>
        <pt x="387" y="723" on="0"/>
      </contour>
      <contour>
        <pt x="383" y="660" on="1"/>
        <pt x="344" y="660" on="0"/>
        <pt x="304" y="704" on="0"/>
        <pt x="304" y="740" on="1"/>
        <pt x="304" y="786" on="0"/>
        <pt x="365" y="849" on="0"/>
        <pt x="414" y="849" on="1"/>
        <pt x="458" y="849" on="0"/>
        <pt x="494" y="802" on="0"/>
        <pt x="494" y="772" on="1"/>
        <pt x="494" y="751" on="0"/>
        <pt x="479" y="711" on="0"/>
        <pt x="450" y="679" on="0"/>
        <pt x="409" y="660" on="0"/>
      </contour>
      <contour>
        <pt x="544" y="900" on="1"/>
        <pt x="509" y="894" on="0"/>
        <pt x="471" y="886" on="1"/>
        <pt x="439" y="879" on="0"/>
        <pt x="357" y="862" on="0"/>
        <pt x="315" y="851" on="1"/>
        <pt x="298" y="863" on="1"/>
        <pt x="279" y="926" on="1"/>
        <pt x="321" y="942" on="0"/>
        <pt x="401" y="974" on="0"/>
        <pt x="433" y="987" on="1"/>
        <pt x="470" y="1002" on="0"/>
        <pt x="503" y="1016" on="1"/>
        <pt x="518" y="1012" on="1"/>
        <pt x="550" y="915" on="1"/>
      </contour>
    </TTGlyph>
    <TTGlyph name="Atilde" xMin="-33" yMin="-6" xMax="646" yMax="888">
      <component glyphName="A" x="0" y="0" flags="0x204"/>
      <component glyphName="tilde.cap" x="142" y="0" flags="0x4"/>
    </TTGlyph>
    <TTGlyph name="B" xMin="-20" yMin="-11" xMax="639" yMax="654">
      <contour>
        <pt x="160" y="0" on="1"/>
        <pt x="137" y="0" on="0"/>
        <pt x="75" y="-2" on="0"/>
        <pt x="47" y="-4" on="1"/>
        <pt x="14" y="-6" on="0"/>
        <pt x="-20" y="-7" on="1"/>
        <pt x="0" y="83" on="1"/>
        <pt x="38" y="90" on="0"/>
        <pt x="69" y="120" on="0"/>
        <pt x="74" y="156" on="1"/>
        <pt x="119" y="513" on="1"/>
        <pt x="124" y="559" on="0"/>
        <pt x="99" y="559" on="1"/>
        <pt x="94" y="559" on="0"/>
        <pt x="82" y="558" on="0"/>
        <pt x="77" y="558" on="1"/>
        <pt x="71" y="557" on="0"/>
        <pt x="65" y="557" on="1"/>
        <pt x="55" y="569" on="1"/>
        <pt x="76" y="649" on="1"/>
        <pt x="115" y="648" on="0"/>
        <pt x="148" y="648" on="1"/>
        <pt x="177" y="647" on="0"/>
        <pt x="231" y="647" on="0"/>
        <pt x="243" y="647" on="1"/>
        <pt x="255" y="647" on="0"/>
        <pt x="314" y="648" on="0"/>
        <pt x="345" y="650" on="1"/>
        <pt x="381" y="652" on="0"/>
        <pt x="424" y="654" on="1"/>
        <pt x="527" y="654" on="0"/>
        <pt x="639" y="581" on="0"/>
        <pt x="639" y="515" on="1"/>
        <pt x="639" y="464" on="0"/>
        <pt x="585" y="382" on="0"/>
        <pt x="525" y="343" on="1"/>
        <pt x="629" y="299" on="0"/>
        <pt x="629" y="210" on="1"/>
        <pt x="629" y="100" on="0"/>
        <pt x="474" y="-11" on="0"/>
        <pt x="320" y="-11" on="1"/>
        <pt x="311" y="-10" on="0"/>
        <pt x="268" y="-6" on="0"/>
        <pt x="218" y="-2" on="0"/>
        <pt x="171" y="0" on="0"/>
      </contour>
      <contour>
        <pt x="286" y="260" on="1"/>
        <pt x="269" y="160" on="1"/>
        <pt x="265" y="136" on="0"/>
        <pt x="295" y="114" on="0"/>
        <pt x="332" y="114" on="1"/>
        <pt x="370" y="114" on="0"/>
        <pt x="411" y="156" on="0"/>
        <pt x="411" y="195" on="1"/>
        <pt x="411" y="242" on="0"/>
        <pt x="361" y="260" on="1"/>
      </contour>
      <contour>
        <pt x="304" y="389" on="1"/>
        <pt x="319" y="386" on="0"/>
        <pt x="333" y="383" on="1"/>
        <pt x="345" y="381" on="0"/>
        <pt x="370" y="378" on="0"/>
        <pt x="378" y="378" on="1"/>
        <pt x="391" y="388" on="0"/>
        <pt x="402" y="401" on="1"/>
        <pt x="411" y="412" on="0"/>
        <pt x="427" y="447" on="0"/>
        <pt x="427" y="470" on="1"/>
        <pt x="427" y="528" on="0"/>
        <pt x="345" y="528" on="1"/>
        <pt x="335" y="528" on="0"/>
        <pt x="328" y="522" on="0"/>
        <pt x="326" y="514" on="1"/>
        <pt x="322" y="497" on="0"/>
        <pt x="314" y="455" on="0"/>
        <pt x="311" y="435" on="1"/>
        <pt x="307" y="412" on="0"/>
      </contour>
    </TTGlyph>
    <TTGlyph name="C" xMin="18" yMin="-11" xMax="614" yMax="659">
      <contour>
        <pt x="279" y="-11" on="1"/>
        <pt x="153" y="-11" on="0"/>
        <pt x="18" y="128" on="0"/>
        <pt x="18" y="259" on="1"/>
        <pt x="18" y="456" on="0"/>
        <pt x="205" y="659" on="0"/>
        <pt x="386" y="659" on="1"/>
        <pt x="417" y="659" on="0"/>
        <pt x="494" y="651" on="0"/>
        <pt x="528" y="646" on="1"/>
        <pt x="568" y="640" on="0"/>
        <pt x="608" y="633" on="1"/>
        <pt x="614" y="613" on="1"/>
        <pt x="605" y="585" on="0"/>
        <pt x="595" y="552" on="1"/>
        <pt x="587" y="523" on="0"/>
        <pt x="568" y="445" on="0"/>
        <pt x="560" y="399" on="1"/>
        <pt x="404" y="390" on="1"/>
        <pt x="406" y="406" on="0"/>
        <pt x="409" y="421" on="1"/>
        <pt x="411" y="433" on="0"/>
        <pt x="415" y="458" on="0"/>
        <pt x="415" y="465" on="1"/>
        <pt x="415" y="492" on="0"/>
        <pt x="381" y="521" on="0"/>
        <pt x="349" y="521" on="1"/>
        <pt x="322" y="521" on="0"/>
        <pt x="283" y="493" on="0"/>
        <pt x="259" y="432" on="0"/>
        <pt x="248" y="336" on="0"/>
        <pt x="248" y="268" on="1"/>
        <pt x="248" y="193" on="0"/>
        <pt x="279" y="130" on="0"/>
        <pt x="316" y="130" on="1"/>
        <pt x="334" y="130" on="0"/>
        <pt x="360" y="140" on="0"/>
        <pt x="380" y="167" on="0"/>
        <pt x="395" y="211" on="0"/>
        <pt x="402" y="246" on="1"/>
        <pt x="557" y="256" on="1"/>
        <pt x="550" y="221" on="0"/>
        <pt x="543" y="185" on="1"/>
        <pt x="537" y="154" on="0"/>
        <pt x="524" y="79" on="0"/>
        <pt x="520" y="43" on="1"/>
        <pt x="505" y="27" on="1"/>
        <pt x="475" y="16" on="0"/>
        <pt x="439" y="8" on="1"/>
        <pt x="408" y="0" on="0"/>
        <pt x="327" y="-11" on="0"/>
      </contour>
    </TTGlyph>
    <TTGlyph name="Cacute" xMin="18" yMin="-11" xMax="614" yMax="875">
      <component glyphName="C" x="0" y="0" flags="0x204"/>
      <component glyphName="acute.cap" x="175" y="0" flags="0x4"/>
    </TTGlyph>
    <TTGlyph name="Ccaron" xMin="18" yMin="-11" xMax="614" yMax="895">
      <component glyphName="C" x="0" y="0" flags="0x204"/>
      <component glyphName="caron.cap" x="126" y="0" flags="0x4"/>
    </TTGlyph>
    <TTGlyph name="Ccedilla" xMin="18" yMin="-243" xMax="614" yMax="659">
      <contour>
        <pt x="244" y="-9" on="1"/>
        <pt x="135" y="0" on="0"/>
        <pt x="18" y="138" on="0"/>
        <pt x="18" y="259" on="1"/>
        <pt x="18" y="456" on="0"/>
        <pt x="205" y="659" on="0"/>
        <pt x="386" y="659" on="1"/>
        <pt x="417" y="659" on="0"/>
        <pt x="494" y="651" on="0"/>
        <pt x="528" y="646" on="1"/>
        <pt x="568" y="640" on="0"/>
        <pt x="608" y="633" on="1"/>
        <pt x="614" y="613" on="1"/>
        <pt x="605" y="585" on="0"/>
        <pt x="595" y="552" on="1"/>
        <pt x="587" y="523" on="0"/>
        <pt x="568" y="445" on="0"/>
        <pt x="560" y="399" on="1"/>
        <pt x="404" y="390" on="1"/>
        <pt x="406" y="406" on="0"/>
        <pt x="409" y="421" on="1"/>
        <pt x="411" y="433" on="0"/>
        <pt x="415" y="458" on="0"/>
        <pt x="415" y="465" on="1"/>
        <pt x="415" y="492" on="0"/>
        <pt x="381" y="521" on="0"/>
        <pt x="349" y="521" on="1"/>
        <pt x="322" y="521" on="0"/>
        <pt x="283" y="493" on="0"/>
        <pt x="259" y="432" on="0"/>
        <pt x="248" y="336" on="0"/>
        <pt x="248" y="268" on="1"/>
        <pt x="248" y="193" on="0"/>
        <pt x="279" y="130" on="0"/>
        <pt x="316" y="130" on="1"/>
        <pt x="334" y="130" on="0"/>
        <pt x="360" y="140" on="0"/>
        <pt x="380" y="167" on="0"/>
        <pt x="395" y="211" on="0"/>
        <pt x="402" y="246" on="1"/>
        <pt x="557" y="256" on="1"/>
        <pt x="550" y="221" on="0"/>
        <pt x="543" y="185" on="1"/>
        <pt x="537" y="154" on="0"/>
        <pt x="524" y="79" on="0"/>
        <pt x="520" y="43" on="1"/>
        <pt x="505" y="27" on="1"/>
        <pt x="479" y="18" on="0"/>
        <pt x="448" y="10" on="1"/>
        <pt x="422" y="3" on="0"/>
        <pt x="350" y="-8" on="0"/>
        <pt x="308" y="-10" on="1"/>
        <pt x="300" y="-37" on="1"/>
        <pt x="314" y="-44" on="0"/>
        <pt x="347" y="-65" on="0"/>
        <pt x="376" y="-92" on="0"/>
        <pt x="396" y="-122" on="0"/>
        <pt x="396" y="-138" on="1"/>
        <pt x="396" y="-159" on="0"/>
        <pt x="370" y="-198" on="0"/>
        <pt x="327" y="-226" on="0"/>
        <pt x="268" y="-243" on="0"/>
        <pt x="235" y="-243" on="1"/>
        <pt x="221" y="-243" on="0"/>
        <pt x="192" y="-236" on="0"/>
        <pt x="168" y="-223" on="0"/>
        <pt x="153" y="-204" on="0"/>
        <pt x="153" y="-192" on="1"/>
        <pt x="153" y="-186" on="0"/>
        <pt x="165" y="-167" on="0"/>
        <pt x="184" y="-146" on="0"/>
        <pt x="205" y="-126" on="0"/>
        <pt x="214" y="-118" on="1"/>
        <pt x="222" y="-118" on="1"/>
        <pt x="220" y="-146" on="0"/>
        <pt x="242" y="-174" on="0"/>
        <pt x="262" y="-174" on="1"/>
        <pt x="293" y="-174" on="0"/>
        <pt x="293" y="-150" on="1"/>
        <pt x="293" y="-143" on="0"/>
        <pt x="279" y="-126" on="0"/>
        <pt x="256" y="-110" on="0"/>
        <pt x="229" y="-94" on="0"/>
        <pt x="216" y="-87" on="1"/>
      </contour>
    </TTGlyph>
    <TTGlyph name="Ccircumflex" xMin="18" yMin="-11" xMax="614" yMax="934">
      <component glyphName="C" x="0" y="0" flags="0x204"/>
      <component glyphName="circumflex" x="142" y="174" flags="0x4"/>
    </TTGlyph>
    <TTGlyph name="Cdotaccent" xMin="18" yMin="-11" xMax="614" yMax="882">
      <component glyphName="C" x="0" y="0" flags="0x204"/>
      <component glyphName="dotaccent.cap" x="139" y="0" flags="0x4"/>
    </TTGlyph>
    <TTGlyph name="D" xMin="-16" yMin="-12" xMax="665" yMax="653">
      <contour>
        <pt x="279" y="-12" on="1"/>
        <pt x="252" y="-9" on="0"/>
        <pt x="225" y="-6" on="1"/>
        <pt x="202" y="-4" on="0"/>
        <pt x="149" y="0" on="0"/>
        <pt x="126" y="0" on="1"/>
        <pt x="105" y="0" on="0"/>
        <pt x="56" y="-2" on="0"/>
        <pt x="34" y="-4" on="1"/>
        <pt x="8" y="-6" on="0"/>
        <pt x="-16" y="-8" on="1"/>
        <pt x="4" y="85" on="1"/>
        <pt x="22" y="88" on="0"/>
        <pt x="46" y="98" on="0"/>
        <pt x="62" y="117" on="0"/>
        <pt x="73" y="146" on="0"/>
        <pt x="76" y="168" on="1"/>
        <pt x="117" y="503" on="1"/>
        <pt x="121" y="535" on="0"/>
        <pt x="114" y="557" on="0"/>
        <pt x="100" y="557" on="1"/>
        <pt x="95" y="557" on="0"/>
        <pt x="84" y="556" on="0"/>
        <pt x="79" y="556" on="1"/>
        <pt x="74" y="555" on="0"/>
        <pt x="69" y="555" on="1"/>
        <pt x="61" y="569" on="1"/>
        <pt x="80" y="650" on="1"/>
        <pt x="111" y="649" on="0"/>
        <pt x="139" y="648" on="1"/>
        <pt x="163" y="647" on="0"/>
        <pt x="214" y="647" on="0"/>
        <pt x="229" y="647" on="1"/>
        <pt x="246" y="647" on="0"/>
        <pt x="297" y="648" on="0"/>
        <pt x="322" y="650" on="1"/>
        <pt x="351" y="651" on="0"/>
        <pt x="382" y="653" on="1"/>
        <pt x="519" y="653" on="0"/>
        <pt x="665" y="527" on="0"/>
        <pt x="665" y="402" on="1"/>
        <pt x="665" y="309" on="0"/>
        <pt x="610" y="156" on="0"/>
        <pt x="508" y="47" on="0"/>
        <pt x="366" y="-12" on="0"/>
      </contour>
      <contour>
        <pt x="343" y="526" on="1"/>
        <pt x="332" y="526" on="0"/>
        <pt x="323" y="515" on="0"/>
        <pt x="320" y="499" on="1"/>
        <pt x="318" y="491" on="0"/>
        <pt x="309" y="433" on="0"/>
        <pt x="297" y="356" on="0"/>
        <pt x="284" y="270" on="0"/>
        <pt x="274" y="197" on="0"/>
        <pt x="267" y="147" on="0"/>
        <pt x="267" y="145" on="1"/>
        <pt x="267" y="127" on="0"/>
        <pt x="279" y="113" on="0"/>
        <pt x="293" y="113" on="1"/>
        <pt x="363" y="113" on="0"/>
        <pt x="435" y="257" on="0"/>
        <pt x="435" y="398" on="1"/>
        <pt x="435" y="469" on="0"/>
        <pt x="394" y="526" on="0"/>
      </contour>
    </TTGlyph>
    <TTGlyph name="Dcaron" xMin="-16" yMin="-12" xMax="665" yMax="895">
      <component glyphName="D" x="0" y="0" flags="0x204"/>
      <component glyphName="caron.cap" x="128" y="0" flags="0x4"/>
    </TTGlyph>
    <TTGlyph name="Dcroat" xMin="4" yMin="-12" xMax="685" yMax="653">
      <contour>
        <pt x="299" y="-12" on="1"/>
        <pt x="272" y="-9" on="0"/>
        <pt x="245" y="-6" on="1"/>
        <pt x="222" y="-4" on="0"/>
        <pt x="169" y="0" on="0"/>
        <pt x="146" y="0" on="1"/>
        <pt x="125" y="0" on="0"/>
        <pt x="76" y="-2" on="0"/>
        <pt x="54" y="-4" on="1"/>
        <pt x="28" y="-6" on="0"/>
        <pt x="4" y="-8" on="1"/>
        <pt x="24" y="85" on="1"/>
        <pt x="42" y="88" on="0"/>
        <pt x="66" y="98" on="0"/>
        <pt x="82" y="117" on="0"/>
        <pt x="93" y="146" on="0"/>
        <pt x="96" y="168" on="1"/>
        <pt x="108" y="266" on="1"/>
        <pt x="20" y="266" on="1"/>
        <pt x="11" y="274" on="1"/>
        <pt x="35" y="363" on="1"/>
        <pt x="120" y="363" on="1"/>
        <pt x="137" y="503" on="1"/>
        <pt x="141" y="535" on="0"/>
        <pt x="134" y="557" on="0"/>
        <pt x="120" y="557" on="1"/>
        <pt x="115" y="557" on="0"/>
        <pt x="104" y="556" on="0"/>
        <pt x="99" y="556" on="1"/>
        <pt x="94" y="555" on="0"/>
        <pt x="89" y="555" on="1"/>
        <pt x="81" y="569" on="1"/>
        <pt x="100" y="650" on="1"/>
        <pt x="131" y="649" on="0"/>
        <pt x="159" y="648" on="1"/>
        <pt x="183" y="647" on="0"/>
        <pt x="234" y="647" on="0"/>
        <pt x="249" y="647" on="1"/>
        <pt x="266" y="647" on="0"/>
        <pt x="317" y="648" on="0"/>
        <pt x="342" y="650" on="1"/>
        <pt x="371" y="651" on="0"/>
        <pt x="402" y="653" on="1"/>
        <pt x="539" y="653" on="0"/>
        <pt x="685" y="527" on="0"/>
        <pt x="685" y="402" on="1"/>
        <pt x="685" y="309" on="0"/>
        <pt x="630" y="156" on="0"/>
        <pt x="528" y="47" on="0"/>
        <pt x="386" y="-12" on="0"/>
      </contour>
      <contour>
        <pt x="363" y="526" on="1"/>
        <pt x="352" y="526" on="0"/>
        <pt x="343" y="515" on="0"/>
        <pt x="340" y="499" on="1"/>
        <pt x="338" y="488" on="0"/>
        <pt x="326" y="412" on="0"/>
        <pt x="318" y="364" on="1"/>
        <pt x="388" y="367" on="1"/>
        <pt x="395" y="357" on="1"/>
        <pt x="377" y="267" on="1"/>
        <pt x="304" y="267" on="1"/>
        <pt x="296" y="218" on="0"/>
        <pt x="287" y="148" on="0"/>
        <pt x="287" y="145" on="1"/>
        <pt x="287" y="127" on="0"/>
        <pt x="299" y="113" on="0"/>
        <pt x="313" y="113" on="1"/>
        <pt x="383" y="113" on="0"/>
        <pt x="455" y="257" on="0"/>
        <pt x="455" y="398" on="1"/>
        <pt x="455" y="469" on="0"/>
        <pt x="414" y="526" on="0"/>
      </contour>
    </TTGlyph>
    <TTGlyph name="Delta" xMin="-16" yMin="0" xMax="623" yMax="659">
      <contour>
        <pt x="-16" y="13" on="1"/>
        <pt x="250" y="642" on="1"/>
        <pt x="519" y="659" on="1"/>
        <pt x="529" y="659" on="1"/>
        <pt x="542" y="554" on="0"/>
        <pt x="557" y="443" on="1"/>
        <pt x="563" y="396" on="0"/>
        <pt x="578" y="289" on="0"/>
        <pt x="595" y="176" on="0"/>
        <pt x="613" y="62" on="0"/>
        <pt x="623" y="7" on="1"/>
        <pt x="613" y="0" on="1"/>
        <pt x="-5" y="0" on="1"/>
      </contour>
      <contour>
        <pt x="341" y="497" on="1"/>
        <pt x="215" y="136" on="1"/>
        <pt x="381" y="136" on="1"/>
        <pt x="365" y="497" on="1"/>
      </contour>
    </TTGlyph>
    <TTGlyph name="E" xMin="-20" yMin="-10" xMax="623" yMax="659">
      <contour>
        <pt x="269" y="151" on="1"/>
        <pt x="269" y="128" on="0"/>
        <pt x="286" y="115" on="0"/>
        <pt x="309" y="115" on="1"/>
        <pt x="339" y="115" on="0"/>
        <pt x="378" y="123" on="0"/>
        <pt x="405" y="146" on="0"/>
        <pt x="422" y="187" on="0"/>
        <pt x="431" y="221" on="1"/>
        <pt x="560" y="230" on="1"/>
        <pt x="571" y="215" on="1"/>
        <pt x="562" y="186" on="0"/>
        <pt x="553" y="153" on="1"/>
        <pt x="545" y="124" on="0"/>
        <pt x="526" y="50" on="0"/>
        <pt x="518" y="9" on="1"/>
        <pt x="501" y="-7" on="1"/>
        <pt x="455" y="-6" on="0"/>
        <pt x="403" y="-4" on="1"/>
        <pt x="358" y="-2" on="0"/>
        <pt x="247" y="0" on="0"/>
        <pt x="190" y="0" on="1"/>
        <pt x="152" y="0" on="0"/>
        <pt x="77" y="-3" on="0"/>
        <pt x="47" y="-5" on="1"/>
        <pt x="12" y="-8" on="0"/>
        <pt x="-20" y="-10" on="1"/>
        <pt x="0" y="82" on="1"/>
        <pt x="37" y="88" on="0"/>
        <pt x="68" y="125" on="0"/>
        <pt x="73" y="170" on="1"/>
        <pt x="116" y="505" on="1"/>
        <pt x="120" y="537" on="0"/>
        <pt x="112" y="559" on="0"/>
        <pt x="96" y="559" on="1"/>
        <pt x="92" y="559" on="0"/>
        <pt x="84" y="558" on="0"/>
        <pt x="80" y="558" on="1"/>
        <pt x="76" y="557" on="0"/>
        <pt x="71" y="557" on="1"/>
        <pt x="61" y="571" on="1"/>
        <pt x="80" y="650" on="1"/>
        <pt x="121" y="649" on="0"/>
        <pt x="161" y="648" on="1"/>
        <pt x="196" y="647" on="0"/>
        <pt x="276" y="647" on="0"/>
        <pt x="310" y="647" on="1"/>
        <pt x="355" y="647" on="0"/>
        <pt x="445" y="649" on="0"/>
        <pt x="526" y="652" on="0"/>
        <pt x="591" y="656" on="0"/>
        <pt x="612" y="659" on="1"/>
        <pt x="623" y="643" on="1"/>
        <pt x="614" y="612" on="0"/>
        <pt x="605" y="579" on="1"/>
        <pt x="597" y="550" on="0"/>
        <pt x="582" y="479" on="0"/>
        <pt x="576" y="444" on="1"/>
        <pt x="436" y="435" on="1"/>
        <pt x="438" y="444" on="0"/>
        <pt x="440" y="453" on="1"/>
        <pt x="442" y="461" on="0"/>
        <pt x="444" y="477" on="0"/>
        <pt x="444" y="484" on="1"/>
        <pt x="444" y="510" on="0"/>
        <pt x="408" y="527" on="0"/>
        <pt x="358" y="527" on="1"/>
        <pt x="338" y="527" on="0"/>
        <pt x="326" y="517" on="0"/>
        <pt x="323" y="500" on="1"/>
        <pt x="303" y="387" on="1"/>
        <pt x="317" y="387" on="0"/>
        <pt x="362" y="386" on="0"/>
        <pt x="382" y="386" on="1"/>
        <pt x="393" y="386" on="0"/>
        <pt x="429" y="387" on="0"/>
        <pt x="446" y="389" on="1"/>
        <pt x="466" y="390" on="0"/>
        <pt x="489" y="392" on="1"/>
        <pt x="499" y="378" on="1"/>
        <pt x="471" y="263" on="1"/>
        <pt x="450" y="263" on="0"/>
        <pt x="430" y="264" on="1"/>
        <pt x="413" y="265" on="0"/>
        <pt x="373" y="266" on="0"/>
        <pt x="356" y="266" on="1"/>
        <pt x="335" y="266" on="0"/>
        <pt x="297" y="262" on="0"/>
        <pt x="283" y="260" on="1"/>
        <pt x="279" y="234" on="0"/>
        <pt x="269" y="168" on="0"/>
      </contour>
    </TTGlyph>
    <TTGlyph name="Eacute" xMin="-20" yMin="-10" xMax="623" yMax="875">
      <component glyphName="E" x="0" y="0" flags="0x204"/>
      <component glyphName="acute.cap" x="176" y="0" flags="0x4"/>
    </TTGlyph>
    <TTGlyph name="Ebreve" xMin="-20" yMin="-10" xMax="623" yMax="895">
      <component glyphName="E" x="0" y="0" flags="0x204"/>
      <component glyphName="breve" x="128" y="155" flags="0x4"/>
    </TTGlyph>
    <TTGlyph name="Ecaron" xMin="-20" yMin="-10" xMax="623" yMax="895">
      <component glyphName="E" x="0" y="0" flags="0x204"/>
      <component glyphName="caron.cap" x="127" y="0" flags="0x4"/>
    </TTGlyph>
    <TTGlyph name="Ecircumflex" xMin="-20" yMin="-10" xMax="623" yMax="910">
      <component glyphName="E" x="0" y="0" flags="0x204"/>
      <component glyphName="circumflex.cap" x="129" y="0" flags="0x4"/>
    </TTGlyph>
    <TTGlyph name="Edieresis" xMin="-20" yMin="-10" xMax="623" yMax="862">
      <component glyphName="E" x="0" y="0" flags="0x204"/>
      <component glyphName="dieresis.cap" x="128" y="10" flags="0x4"/>
    </TTGlyph>
    <TTGlyph name="Edotaccent" xMin="-20" yMin="-10" xMax="623" yMax="882">
      <component glyphName="E" x="0" y="0" flags="0x204"/>
      <component glyphName="dotaccent.cap" x="130" y="0" flags="0x4"/>
    </TTGlyph>
    <TTGlyph name="Egrave" xMin="-20" yMin="-10" xMax="623" yMax="875">
      <component glyphName="E" x="0" y="0" flags="0x204"/>
      <component glyphName="grave.cap" x="215" y="0" flags="0x4"/>
    </TTGlyph>
    <TTGlyph name="Emacron" xMin="-20" yMin="-10" xMax="623" yMax="823">
      <component glyphName="E" x="0" y="0" flags="0x204"/>
      <component glyphName="macron.cap" x="127" y="0" flags="0x4"/>
    </TTGlyph>
    <TTGlyph name="Eng" xMin="-8" yMin="-172" xMax="767" yMax="652">
      <contour>
        <pt x="215" y="647" on="1"/>
        <pt x="234" y="647" on="0"/>
        <pt x="276" y="648" on="0"/>
        <pt x="294" y="649" on="1"/>
        <pt x="315" y="650" on="0"/>
        <pt x="335" y="651" on="1"/>
        <pt x="361" y="588" on="0"/>
        <pt x="413" y="469" on="0"/>
        <pt x="435" y="422" on="1"/>
        <pt x="461" y="367" on="0"/>
        <pt x="485" y="318" on="1"/>
        <pt x="499" y="318" on="1"/>
        <pt x="520" y="520" on="1"/>
        <pt x="523" y="545" on="0"/>
        <pt x="511" y="563" on="0"/>
        <pt x="493" y="563" on="1"/>
        <pt x="491" y="563" on="0"/>
        <pt x="481" y="562" on="0"/>
        <pt x="476" y="562" on="1"/>
        <pt x="463" y="562" on="1"/>
        <pt x="460" y="572" on="1"/>
        <pt x="474" y="651" on="1"/>
        <pt x="511" y="650" on="0"/>
        <pt x="544" y="649" on="1"/>
        <pt x="572" y="648" on="0"/>
        <pt x="625" y="647" on="0"/>
        <pt x="636" y="647" on="1"/>
        <pt x="653" y="647" on="0"/>
        <pt x="698" y="648" on="0"/>
        <pt x="718" y="649" on="1"/>
        <pt x="742" y="650" on="0"/>
        <pt x="767" y="651" on="1"/>
        <pt x="752" y="564" on="1"/>
        <pt x="720" y="559" on="0"/>
        <pt x="692" y="532" on="0"/>
        <pt x="687" y="501" on="1"/>
        <pt x="626" y="85" on="1"/>
        <pt x="609" y="-17" on="0"/>
        <pt x="480" y="-139" on="0"/>
        <pt x="353" y="-172" on="1"/>
        <pt x="317" y="-123" on="1"/>
        <pt x="321" y="-108" on="1"/>
        <pt x="397" y="-69" on="0"/>
        <pt x="427" y="0" on="1"/>
        <pt x="395" y="71" on="0"/>
        <pt x="339" y="191" on="0"/>
        <pt x="318" y="236" on="1"/>
        <pt x="293" y="288" on="0"/>
        <pt x="272" y="331" on="1"/>
        <pt x="258" y="331" on="1"/>
        <pt x="236" y="133" on="1"/>
        <pt x="233" y="105" on="0"/>
        <pt x="247" y="83" on="0"/>
        <pt x="268" y="83" on="1"/>
        <pt x="272" y="83" on="0"/>
        <pt x="284" y="83" on="0"/>
        <pt x="289" y="84" on="1"/>
        <pt x="295" y="85" on="0"/>
        <pt x="302" y="86" on="1"/>
        <pt x="309" y="78" on="1"/>
        <pt x="289" y="-4" on="1"/>
        <pt x="261" y="-3" on="0"/>
        <pt x="230" y="-2" on="1"/>
        <pt x="204" y="-1" on="0"/>
        <pt x="140" y="0" on="0"/>
        <pt x="111" y="0" on="1"/>
        <pt x="97" y="0" on="0"/>
        <pt x="56" y="-2" on="0"/>
        <pt x="37" y="-4" on="1"/>
        <pt x="15" y="-6" on="0"/>
        <pt x="-8" y="-8" on="1"/>
        <pt x="13" y="78" on="1"/>
        <pt x="42" y="82" on="0"/>
        <pt x="71" y="112" on="0"/>
        <pt x="76" y="143" on="1"/>
        <pt x="131" y="499" on="1"/>
        <pt x="135" y="532" on="0"/>
        <pt x="110" y="556" on="0"/>
        <pt x="66" y="561" on="1"/>
        <pt x="56" y="575" on="1"/>
        <pt x="71" y="652" on="1"/>
        <pt x="97" y="650" on="0"/>
        <pt x="123" y="649" on="1"/>
        <pt x="145" y="648" on="0"/>
        <pt x="195" y="647" on="0"/>
      </contour>
    </TTGlyph>
    <TTGlyph name="Eogonek" xMin="-20" yMin="-242" xMax="623" yMax="659">
      <contour>
        <pt x="521" y="-170" on="1"/>
        <pt x="502" y="-185" on="0"/>
        <pt x="484" y="-199" on="1"/>
        <pt x="467" y="-211" on="0"/>
        <pt x="429" y="-235" on="0"/>
        <pt x="411" y="-242" on="1"/>
        <pt x="354" y="-242" on="0"/>
        <pt x="293" y="-199" on="0"/>
        <pt x="293" y="-162" on="1"/>
        <pt x="293" y="-146" on="0"/>
        <pt x="301" y="-115" on="0"/>
        <pt x="324" y="-78" on="0"/>
        <pt x="363" y="-33" on="0"/>
        <pt x="394" y="-3" on="1"/>
        <pt x="351" y="-1" on="0"/>
        <pt x="245" y="0" on="0"/>
        <pt x="190" y="0" on="1"/>
        <pt x="152" y="0" on="0"/>
        <pt x="77" y="-3" on="0"/>
        <pt x="47" y="-5" on="1"/>
        <pt x="12" y="-8" on="0"/>
        <pt x="-20" y="-10" on="1"/>
        <pt x="0" y="82" on="1"/>
        <pt x="37" y="88" on="0"/>
        <pt x="68" y="125" on="0"/>
        <pt x="73" y="170" on="1"/>
        <pt x="116" y="505" on="1"/>
        <pt x="120" y="537" on="0"/>
        <pt x="112" y="559" on="0"/>
        <pt x="96" y="559" on="1"/>
        <pt x="92" y="559" on="0"/>
        <pt x="84" y="558" on="0"/>
        <pt x="80" y="558" on="1"/>
        <pt x="76" y="557" on="0"/>
        <pt x="71" y="557" on="1"/>
        <pt x="61" y="571" on="1"/>
        <pt x="80" y="650" on="1"/>
        <pt x="121" y="649" on="0"/>
        <pt x="161" y="648" on="1"/>
        <pt x="196" y="647" on="0"/>
        <pt x="276" y="647" on="0"/>
        <pt x="310" y="647" on="1"/>
        <pt x="355" y="647" on="0"/>
        <pt x="445" y="649" on="0"/>
        <pt x="526" y="652" on="0"/>
        <pt x="591" y="656" on="0"/>
        <pt x="612" y="659" on="1"/>
        <pt x="623" y="643" on="1"/>
        <pt x="614" y="612" on="0"/>
        <pt x="605" y="579" on="1"/>
        <pt x="597" y="550" on="0"/>
        <pt x="582" y="479" on="0"/>
        <pt x="576" y="444" on="1"/>
        <pt x="436" y="435" on="1"/>
        <pt x="438" y="444" on="0"/>
        <pt x="440" y="453" on="1"/>
        <pt x="442" y="461" on="0"/>
        <pt x="444" y="477" on="0"/>
        <pt x="444" y="484" on="1"/>
        <pt x="444" y="510" on="0"/>
        <pt x="408" y="527" on="0"/>
        <pt x="358" y="527" on="1"/>
        <pt x="338" y="527" on="0"/>
        <pt x="326" y="517" on="0"/>
        <pt x="323" y="500" on="1"/>
        <pt x="303" y="387" on="1"/>
        <pt x="317" y="387" on="0"/>
        <pt x="362" y="386" on="0"/>
        <pt x="382" y="386" on="1"/>
        <pt x="393" y="386" on="0"/>
        <pt x="429" y="387" on="0"/>
        <pt x="446" y="389" on="1"/>
        <pt x="466" y="390" on="0"/>
        <pt x="489" y="392" on="1"/>
        <pt x="499" y="378" on="1"/>
        <pt x="471" y="263" on="1"/>
        <pt x="450" y="263" on="0"/>
        <pt x="430" y="264" on="1"/>
        <pt x="413" y="265" on="0"/>
        <pt x="373" y="266" on="0"/>
        <pt x="356" y="266" on="1"/>
        <pt x="335" y="266" on="0"/>
        <pt x="297" y="262" on="0"/>
        <pt x="283" y="260" on="1"/>
        <pt x="279" y="234" on="0"/>
        <pt x="269" y="168" on="0"/>
        <pt x="269" y="151" on="1"/>
        <pt x="269" y="128" on="0"/>
        <pt x="286" y="115" on="0"/>
        <pt x="309" y="115" on="1"/>
        <pt x="339" y="115" on="0"/>
        <pt x="378" y="123" on="0"/>
        <pt x="405" y="146" on="0"/>
        <pt x="422" y="187" on="0"/>
        <pt x="431" y="221" on="1"/>
        <pt x="560" y="230" on="1"/>
        <pt x="571" y="215" on="1"/>
        <pt x="562" y="186" on="0"/>
        <pt x="553" y="153" on="1"/>
        <pt x="545" y="124" on="0"/>
        <pt x="526" y="50" on="0"/>
        <pt x="518" y="9" on="1"/>
        <pt x="501" y="-7" on="1"/>
        <pt x="497" y="-6" on="0"/>
        <pt x="493" y="-6" on="1"/>
        <pt x="489" y="-6" on="0"/>
        <pt x="477" y="-6" on="0"/>
        <pt x="470" y="-5" on="1"/>
        <pt x="448" y="-32" on="0"/>
        <pt x="421" y="-68" on="0"/>
        <pt x="406" y="-93" on="0"/>
        <pt x="401" y="-112" on="0"/>
        <pt x="401" y="-121" on="1"/>
        <pt x="401" y="-136" on="0"/>
        <pt x="419" y="-155" on="0"/>
        <pt x="434" y="-155" on="1"/>
        <pt x="445" y="-155" on="0"/>
        <pt x="467" y="-148" on="0"/>
        <pt x="477" y="-143" on="1"/>
        <pt x="488" y="-138" on="0"/>
        <pt x="500" y="-130" on="1"/>
      </contour>
    </TTGlyph>
    <TTGlyph name="Eth" xMin="4" yMin="-12" xMax="685" yMax="653">
      <contour>
        <pt x="299" y="-12" on="1"/>
        <pt x="272" y="-9" on="0"/>
        <pt x="245" y="-6" on="1"/>
        <pt x="222" y="-4" on="0"/>
        <pt x="169" y="0" on="0"/>
        <pt x="146" y="0" on="1"/>
        <pt x="125" y="0" on="0"/>
        <pt x="76" y="-2" on="0"/>
        <pt x="54" y="-4" on="1"/>
        <pt x="28" y="-6" on="0"/>
        <pt x="4" y="-8" on="1"/>
        <pt x="24" y="85" on="1"/>
        <pt x="42" y="88" on="0"/>
        <pt x="66" y="98" on="0"/>
        <pt x="82" y="117" on="0"/>
        <pt x="93" y="146" on="0"/>
        <pt x="96" y="168" on="1"/>
        <pt x="108" y="266" on="1"/>
        <pt x="20" y="266" on="1"/>
        <pt x="11" y="274" on="1"/>
        <pt x="35" y="363" on="1"/>
        <pt x="120" y="363" on="1"/>
        <pt x="137" y="503" on="1"/>
        <pt x="141" y="535" on="0"/>
        <pt x="134" y="557" on="0"/>
        <pt x="120" y="557" on="1"/>
        <pt x="115" y="557" on="0"/>
        <pt x="104" y="556" on="0"/>
        <pt x="99" y="556" on="1"/>
        <pt x="94" y="555" on="0"/>
        <pt x="89" y="555" on="1"/>
        <pt x="81" y="569" on="1"/>
        <pt x="100" y="650" on="1"/>
        <pt x="131" y="649" on="0"/>
        <pt x="159" y="648" on="1"/>
        <pt x="183" y="647" on="0"/>
        <pt x="234" y="647" on="0"/>
        <pt x="249" y="647" on="1"/>
        <pt x="266" y="647" on="0"/>
        <pt x="317" y="648" on="0"/>
        <pt x="342" y="650" on="1"/>
        <pt x="371" y="651" on="0"/>
        <pt x="402" y="653" on="1"/>
        <pt x="539" y="653" on="0"/>
        <pt x="685" y="527" on="0"/>
        <pt x="685" y="402" on="1"/>
        <pt x="685" y="309" on="0"/>
        <pt x="630" y="156" on="0"/>
        <pt x="528" y="47" on="0"/>
        <pt x="386" y="-12" on="0"/>
      </contour>
      <contour>
        <pt x="363" y="526" on="1"/>
        <pt x="352" y="526" on="0"/>
        <pt x="343" y="515" on="0"/>
        <pt x="340" y="499" on="1"/>
        <pt x="338" y="488" on="0"/>
        <pt x="326" y="412" on="0"/>
        <pt x="318" y="364" on="1"/>
        <pt x="388" y="367" on="1"/>
        <pt x="395" y="357" on="1"/>
        <pt x="377" y="267" on="1"/>
        <pt x="304" y="267" on="1"/>
        <pt x="296" y="218" on="0"/>
        <pt x="287" y="148" on="0"/>
        <pt x="287" y="145" on="1"/>
        <pt x="287" y="127" on="0"/>
        <pt x="299" y="113" on="0"/>
        <pt x="313" y="113" on="1"/>
        <pt x="383" y="113" on="0"/>
        <pt x="455" y="257" on="0"/>
        <pt x="455" y="398" on="1"/>
        <pt x="455" y="469" on="0"/>
        <pt x="414" y="526" on="0"/>
      </contour>
    </TTGlyph>
    <TTGlyph name="Euro" xMin="-11" yMin="-8" xMax="553" yMax="513">
      <contour>
        <pt x="367" y="229" on="1"/>
        <pt x="353" y="161" on="1"/>
        <pt x="250" y="160" on="1"/>
        <pt x="255" y="127" on="0"/>
        <pt x="285" y="99" on="0"/>
        <pt x="311" y="99" on="1"/>
        <pt x="342" y="99" on="0"/>
        <pt x="375" y="136" on="0"/>
        <pt x="387" y="190" on="1"/>
        <pt x="509" y="198" on="1"/>
        <pt x="502" y="171" on="0"/>
        <pt x="497" y="143" on="1"/>
        <pt x="492" y="119" on="0"/>
        <pt x="482" y="61" on="0"/>
        <pt x="479" y="33" on="1"/>
        <pt x="467" y="21" on="1"/>
        <pt x="443" y="12" on="0"/>
        <pt x="414" y="6" on="1"/>
        <pt x="389" y="1" on="0"/>
        <pt x="321" y="-8" on="0"/>
        <pt x="283" y="-8" on="1"/>
        <pt x="190" y="-8" on="0"/>
        <pt x="80" y="78" on="0"/>
        <pt x="68" y="160" on="1"/>
        <pt x="-4" y="160" on="1"/>
        <pt x="-11" y="166" on="1"/>
        <pt x="6" y="233" on="1"/>
        <pt x="66" y="233" on="1"/>
        <pt x="66" y="253" on="0"/>
        <pt x="69" y="273" on="1"/>
        <pt x="10" y="273" on="1"/>
        <pt x="3" y="279" on="1"/>
        <pt x="20" y="346" on="1"/>
        <pt x="87" y="346" on="1"/>
        <pt x="118" y="428" on="0"/>
        <pt x="259" y="513" on="0"/>
        <pt x="367" y="513" on="1"/>
        <pt x="393" y="513" on="0"/>
        <pt x="455" y="506" on="0"/>
        <pt x="483" y="502" on="1"/>
        <pt x="516" y="498" on="0"/>
        <pt x="548" y="492" on="1"/>
        <pt x="553" y="476" on="1"/>
        <pt x="545" y="455" on="0"/>
        <pt x="538" y="429" on="1"/>
        <pt x="531" y="407" on="0"/>
        <pt x="517" y="347" on="0"/>
        <pt x="510" y="312" on="1"/>
        <pt x="388" y="305" on="1"/>
        <pt x="390" y="317" on="0"/>
        <pt x="392" y="328" on="1"/>
        <pt x="394" y="337" on="0"/>
        <pt x="396" y="357" on="0"/>
        <pt x="396" y="362" on="1"/>
        <pt x="396" y="407" on="0"/>
        <pt x="338" y="407" on="1"/>
        <pt x="281" y="407" on="0"/>
        <pt x="261" y="346" on="1"/>
        <pt x="374" y="350" on="1"/>
        <pt x="381" y="342" on="1"/>
        <pt x="366" y="274" on="1"/>
        <pt x="248" y="273" on="1"/>
        <pt x="247" y="264" on="0"/>
        <pt x="246" y="244" on="0"/>
        <pt x="246" y="233" on="1"/>
        <pt x="247" y="233" on="1"/>
        <pt x="360" y="237" on="1"/>
      </contour>
    </TTGlyph>
    <TTGlyph name="F" xMin="-20" yMin="-10" xMax="595" yMax="659">
      <contour>
        <pt x="272" y="175" on="1"/>
        <pt x="267" y="139" on="0"/>
        <pt x="280" y="115" on="0"/>
        <pt x="305" y="115" on="1"/>
        <pt x="316" y="115" on="0"/>
        <pt x="336" y="117" on="0"/>
        <pt x="344" y="119" on="1"/>
        <pt x="353" y="121" on="0"/>
        <pt x="361" y="123" on="1"/>
        <pt x="375" y="105" on="1"/>
        <pt x="349" y="-3" on="1"/>
        <pt x="317" y="-3" on="0"/>
        <pt x="287" y="-2" on="1"/>
        <pt x="261" y="-1" on="0"/>
        <pt x="208" y="0" on="0"/>
        <pt x="191" y="0" on="1"/>
        <pt x="152" y="0" on="0"/>
        <pt x="77" y="-3" on="0"/>
        <pt x="47" y="-5" on="1"/>
        <pt x="12" y="-8" on="0"/>
        <pt x="-20" y="-10" on="1"/>
        <pt x="0" y="82" on="1"/>
        <pt x="37" y="88" on="0"/>
        <pt x="67" y="125" on="0"/>
        <pt x="73" y="170" on="1"/>
        <pt x="116" y="505" on="1"/>
        <pt x="120" y="537" on="0"/>
        <pt x="112" y="559" on="0"/>
        <pt x="96" y="559" on="1"/>
        <pt x="92" y="559" on="0"/>
        <pt x="84" y="558" on="0"/>
        <pt x="80" y="558" on="1"/>
        <pt x="76" y="557" on="0"/>
        <pt x="71" y="557" on="1"/>
        <pt x="61" y="571" on="1"/>
        <pt x="80" y="650" on="1"/>
        <pt x="121" y="649" on="0"/>
        <pt x="161" y="648" on="1"/>
        <pt x="196" y="647" on="0"/>
        <pt x="276" y="647" on="0"/>
        <pt x="310" y="647" on="1"/>
        <pt x="351" y="647" on="0"/>
        <pt x="433" y="649" on="0"/>
        <pt x="506" y="652" on="0"/>
        <pt x="565" y="656" on="0"/>
        <pt x="584" y="659" on="1"/>
        <pt x="595" y="643" on="1"/>
        <pt x="587" y="611" on="0"/>
        <pt x="580" y="578" on="1"/>
        <pt x="574" y="549" on="0"/>
        <pt x="559" y="479" on="0"/>
        <pt x="554" y="444" on="1"/>
        <pt x="414" y="436" on="1"/>
        <pt x="415" y="445" on="0"/>
        <pt x="417" y="454" on="1"/>
        <pt x="419" y="462" on="0"/>
        <pt x="421" y="477" on="0"/>
        <pt x="421" y="484" on="1"/>
        <pt x="421" y="509" on="0"/>
        <pt x="393" y="527" on="0"/>
        <pt x="358" y="527" on="1"/>
        <pt x="338" y="527" on="0"/>
        <pt x="326" y="517" on="0"/>
        <pt x="323" y="500" on="1"/>
        <pt x="300" y="370" on="1"/>
        <pt x="380" y="369" on="1"/>
        <pt x="391" y="369" on="0"/>
        <pt x="424" y="370" on="0"/>
        <pt x="441" y="372" on="1"/>
        <pt x="460" y="373" on="0"/>
        <pt x="482" y="375" on="1"/>
        <pt x="493" y="361" on="1"/>
        <pt x="465" y="246" on="1"/>
        <pt x="445" y="246" on="0"/>
        <pt x="426" y="247" on="1"/>
        <pt x="409" y="248" on="0"/>
        <pt x="370" y="249" on="0"/>
        <pt x="354" y="249" on="1"/>
        <pt x="333" y="249" on="0"/>
        <pt x="294" y="245" on="0"/>
        <pt x="281" y="243" on="1"/>
      </contour>
    </TTGlyph>
    <TTGlyph name="G" xMin="18" yMin="-11" xMax="614" yMax="659">
      <contour>
        <pt x="279" y="-11" on="1"/>
        <pt x="153" y="-11" on="0"/>
        <pt x="18" y="128" on="0"/>
        <pt x="18" y="259" on="1"/>
        <pt x="18" y="456" on="0"/>
        <pt x="205" y="659" on="0"/>
        <pt x="386" y="659" on="1"/>
        <pt x="417" y="659" on="0"/>
        <pt x="494" y="651" on="0"/>
        <pt x="528" y="646" on="1"/>
        <pt x="568" y="640" on="0"/>
        <pt x="608" y="633" on="1"/>
        <pt x="614" y="613" on="1"/>
        <pt x="605" y="590" on="0"/>
        <pt x="595" y="559" on="1"/>
        <pt x="587" y="533" on="0"/>
        <pt x="568" y="459" on="0"/>
        <pt x="560" y="413" on="1"/>
        <pt x="404" y="404" on="1"/>
        <pt x="406" y="417" on="0"/>
        <pt x="409" y="429" on="1"/>
        <pt x="411" y="440" on="0"/>
        <pt x="415" y="461" on="0"/>
        <pt x="415" y="468" on="1"/>
        <pt x="415" y="495" on="0"/>
        <pt x="381" y="521" on="0"/>
        <pt x="349" y="521" on="1"/>
        <pt x="322" y="521" on="0"/>
        <pt x="283" y="493" on="0"/>
        <pt x="259" y="432" on="0"/>
        <pt x="248" y="336" on="0"/>
        <pt x="248" y="268" on="1"/>
        <pt x="248" y="193" on="0"/>
        <pt x="279" y="130" on="0"/>
        <pt x="316" y="130" on="1"/>
        <pt x="328" y="130" on="0"/>
        <pt x="348" y="134" on="0"/>
        <pt x="356" y="136" on="1"/>
        <pt x="365" y="139" on="0"/>
        <pt x="371" y="142" on="1"/>
        <pt x="378" y="205" on="1"/>
        <pt x="381" y="229" on="0"/>
        <pt x="371" y="246" on="0"/>
        <pt x="354" y="246" on="1"/>
        <pt x="348" y="246" on="0"/>
        <pt x="337" y="245" on="0"/>
        <pt x="332" y="245" on="1"/>
        <pt x="323" y="245" on="1"/>
        <pt x="316" y="259" on="1"/>
        <pt x="339" y="354" on="1"/>
        <pt x="489" y="354" on="1"/>
        <pt x="504" y="354" on="0"/>
        <pt x="541" y="355" on="0"/>
        <pt x="574" y="356" on="0"/>
        <pt x="597" y="358" on="0"/>
        <pt x="597" y="359" on="1"/>
        <pt x="600" y="301" on="1"/>
        <pt x="578" y="287" on="0"/>
        <pt x="557" y="253" on="0"/>
        <pt x="552" y="226" on="1"/>
        <pt x="549" y="208" on="0"/>
        <pt x="542" y="162" on="0"/>
        <pt x="536" y="118" on="0"/>
        <pt x="532" y="83" on="0"/>
        <pt x="532" y="76" on="1"/>
        <pt x="532" y="49" on="1"/>
        <pt x="532" y="43" on="0"/>
        <pt x="533" y="38" on="1"/>
        <pt x="519" y="22" on="1"/>
        <pt x="494" y="12" on="0"/>
        <pt x="459" y="5" on="1"/>
        <pt x="429" y="-1" on="0"/>
        <pt x="339" y="-11" on="0"/>
      </contour>
    </TTGlyph>
    <TTGlyph name="Gbreve" xMin="18" yMin="-11" xMax="614" yMax="900">
      <component glyphName="G" x="0" y="0" flags="0x204"/>
      <component glyphName="breve.cap" x="130" y="40" flags="0x4"/>
    </TTGlyph>
    <TTGlyph name="Gcircumflex" xMin="18" yMin="-11" xMax="614" yMax="934">
      <component glyphName="G" x="0" y="0" flags="0x204"/>
      <component glyphName="circumflex" x="149" y="174" flags="0x4"/>
    </TTGlyph>
    <TTGlyph name="Gcommaaccent" xMin="18" yMin="-345" xMax="614" yMax="659">
      <component glyphName="G" x="0" y="0" flags="0x204"/>
      <component glyphName="commaaccent" x="137" y="0" flags="0x4"/>
    </TTGlyph>
    <TTGlyph name="Gdotaccent" xMin="18" yMin="-11" xMax="614" yMax="882">
      <component glyphName="G" x="0" y="0" flags="0x204"/>
      <component glyphName="dotaccent.cap" x="146" y="0" flags="0x4"/>
    </TTGlyph>
    <TTGlyph name="H" xMin="-17" yMin="-5" xMax="762" yMax="652">
      <contour>
        <pt x="680" y="510" on="1"/>
        <pt x="676" y="490" on="0"/>
        <pt x="665" y="423" on="0"/>
        <pt x="653" y="346" on="0"/>
        <pt x="640" y="264" on="0"/>
        <pt x="631" y="194" on="0"/>
        <pt x="625" y="142" on="0"/>
        <pt x="625" y="133" on="1"/>
        <pt x="625" y="109" on="0"/>
        <pt x="639" y="89" on="0"/>
        <pt x="656" y="89" on="1"/>
        <pt x="661" y="89" on="0"/>
        <pt x="671" y="89" on="0"/>
        <pt x="675" y="90" on="1"/>
        <pt x="679" y="91" on="0"/>
        <pt x="683" y="92" on="1"/>
        <pt x="690" y="81" on="1"/>
        <pt x="671" y="-2" on="1"/>
        <pt x="654" y="-1" on="0"/>
        <pt x="635" y="-1" on="1"/>
        <pt x="618" y="-1" on="0"/>
        <pt x="576" y="-1" on="0"/>
        <pt x="552" y="0" on="1"/>
        <pt x="503" y="0" on="1"/>
        <pt x="486" y="0" on="0"/>
        <pt x="430" y="-1" on="0"/>
        <pt x="404" y="-1" on="1"/>
        <pt x="339" y="-1" on="1"/>
        <pt x="357" y="86" on="1"/>
        <pt x="392" y="87" on="0"/>
        <pt x="425" y="121" on="0"/>
        <pt x="430" y="162" on="1"/>
        <pt x="443" y="264" on="1"/>
        <pt x="425" y="264" on="1"/>
        <pt x="417" y="264" on="0"/>
        <pt x="399" y="265" on="0"/>
        <pt x="390" y="265" on="1"/>
        <pt x="382" y="265" on="0"/>
        <pt x="346" y="262" on="0"/>
        <pt x="328" y="260" on="1"/>
        <pt x="306" y="258" on="0"/>
        <pt x="282" y="256" on="1"/>
        <pt x="270" y="156" on="1"/>
        <pt x="267" y="133" on="0"/>
        <pt x="267" y="119" on="1"/>
        <pt x="267" y="100" on="0"/>
        <pt x="278" y="87" on="0"/>
        <pt x="292" y="87" on="1"/>
        <pt x="308" y="87" on="0"/>
        <pt x="312" y="88" on="1"/>
        <pt x="316" y="89" on="0"/>
        <pt x="318" y="90" on="1"/>
        <pt x="325" y="80" on="1"/>
        <pt x="306" y="-4" on="1"/>
        <pt x="271" y="-3" on="0"/>
        <pt x="240" y="-2" on="1"/>
        <pt x="214" y="-1" on="0"/>
        <pt x="160" y="0" on="0"/>
        <pt x="145" y="0" on="1"/>
        <pt x="122" y="0" on="0"/>
        <pt x="66" y="-2" on="0"/>
        <pt x="41" y="-3" on="1"/>
        <pt x="12" y="-4" on="0"/>
        <pt x="-17" y="-5" on="1"/>
        <pt x="1" y="80" on="1"/>
        <pt x="20" y="84" on="0"/>
        <pt x="46" y="95" on="0"/>
        <pt x="62" y="113" on="0"/>
        <pt x="70" y="141" on="0"/>
        <pt x="73" y="162" on="1"/>
        <pt x="116" y="508" on="1"/>
        <pt x="120" y="539" on="0"/>
        <pt x="108" y="559" on="0"/>
        <pt x="88" y="559" on="1"/>
        <pt x="84" y="559" on="0"/>
        <pt x="76" y="558" on="0"/>
        <pt x="72" y="558" on="1"/>
        <pt x="63" y="558" on="1"/>
        <pt x="56" y="572" on="1"/>
        <pt x="73" y="647" on="1"/>
        <pt x="199" y="647" on="1"/>
        <pt x="221" y="647" on="0"/>
        <pt x="288" y="648" on="0"/>
        <pt x="320" y="649" on="1"/>
        <pt x="357" y="650" on="0"/>
        <pt x="397" y="652" on="1"/>
        <pt x="379" y="562" on="1"/>
        <pt x="364" y="559" on="0"/>
        <pt x="344" y="552" on="0"/>
        <pt x="331" y="541" on="0"/>
        <pt x="324" y="523" on="0"/>
        <pt x="322" y="510" on="1"/>
        <pt x="302" y="389" on="1"/>
        <pt x="379" y="386" on="1"/>
        <pt x="412" y="386" on="0"/>
        <pt x="445" y="387" on="0"/>
        <pt x="458" y="389" on="1"/>
        <pt x="473" y="508" on="1"/>
        <pt x="477" y="538" on="0"/>
        <pt x="465" y="559" on="0"/>
        <pt x="445" y="559" on="1"/>
        <pt x="440" y="559" on="0"/>
        <pt x="432" y="558" on="0"/>
        <pt x="428" y="558" on="1"/>
        <pt x="419" y="558" on="1"/>
        <pt x="412" y="572" on="1"/>
        <pt x="429" y="647" on="1"/>
        <pt x="615" y="647" on="1"/>
        <pt x="635" y="647" on="0"/>
        <pt x="686" y="649" on="0"/>
        <pt x="709" y="650" on="1"/>
        <pt x="735" y="651" on="0"/>
        <pt x="762" y="652" on="1"/>
        <pt x="745" y="564" on="1"/>
        <pt x="727" y="561" on="0"/>
        <pt x="704" y="554" on="0"/>
        <pt x="690" y="542" on="0"/>
        <pt x="683" y="524" on="0"/>
      </contour>
    </TTGlyph>
    <TTGlyph name="Hbar" xMin="-17" yMin="-5" xMax="768" yMax="652">
      <contour>
        <pt x="680" y="510" on="1"/>
        <pt x="680" y="509" on="0"/>
        <pt x="679" y="507" on="0"/>
        <pt x="679" y="506" on="1"/>
        <pt x="696" y="506" on="0"/>
        <pt x="722" y="507" on="0"/>
        <pt x="732" y="507" on="1"/>
        <pt x="743" y="507" on="0"/>
        <pt x="753" y="508" on="1"/>
        <pt x="768" y="493" on="1"/>
        <pt x="763" y="438" on="1"/>
        <pt x="667" y="437" on="1"/>
        <pt x="660" y="396" on="0"/>
        <pt x="645" y="299" on="0"/>
        <pt x="633" y="211" on="0"/>
        <pt x="625" y="144" on="0"/>
        <pt x="625" y="133" on="1"/>
        <pt x="625" y="109" on="0"/>
        <pt x="639" y="89" on="0"/>
        <pt x="656" y="89" on="1"/>
        <pt x="661" y="89" on="0"/>
        <pt x="671" y="89" on="0"/>
        <pt x="675" y="90" on="1"/>
        <pt x="679" y="91" on="0"/>
        <pt x="683" y="92" on="1"/>
        <pt x="690" y="81" on="1"/>
        <pt x="671" y="-2" on="1"/>
        <pt x="654" y="-1" on="0"/>
        <pt x="635" y="-1" on="1"/>
        <pt x="618" y="-1" on="0"/>
        <pt x="576" y="-1" on="0"/>
        <pt x="552" y="0" on="1"/>
        <pt x="503" y="0" on="1"/>
        <pt x="486" y="0" on="0"/>
        <pt x="430" y="-1" on="0"/>
        <pt x="404" y="-1" on="1"/>
        <pt x="339" y="-1" on="1"/>
        <pt x="357" y="86" on="1"/>
        <pt x="392" y="87" on="0"/>
        <pt x="425" y="121" on="0"/>
        <pt x="430" y="162" on="1"/>
        <pt x="443" y="264" on="1"/>
        <pt x="425" y="264" on="1"/>
        <pt x="417" y="264" on="0"/>
        <pt x="399" y="265" on="0"/>
        <pt x="390" y="265" on="1"/>
        <pt x="382" y="265" on="0"/>
        <pt x="346" y="262" on="0"/>
        <pt x="328" y="260" on="1"/>
        <pt x="306" y="258" on="0"/>
        <pt x="282" y="256" on="1"/>
        <pt x="270" y="156" on="1"/>
        <pt x="267" y="133" on="0"/>
        <pt x="267" y="119" on="1"/>
        <pt x="267" y="100" on="0"/>
        <pt x="278" y="87" on="0"/>
        <pt x="292" y="87" on="1"/>
        <pt x="308" y="87" on="0"/>
        <pt x="312" y="88" on="1"/>
        <pt x="316" y="89" on="0"/>
        <pt x="318" y="90" on="1"/>
        <pt x="325" y="80" on="1"/>
        <pt x="306" y="-4" on="1"/>
        <pt x="271" y="-3" on="0"/>
        <pt x="240" y="-2" on="1"/>
        <pt x="214" y="-1" on="0"/>
        <pt x="160" y="0" on="0"/>
        <pt x="145" y="0" on="1"/>
        <pt x="122" y="0" on="0"/>
        <pt x="66" y="-2" on="0"/>
        <pt x="41" y="-3" on="1"/>
        <pt x="12" y="-4" on="0"/>
        <pt x="-17" y="-5" on="1"/>
        <pt x="1" y="80" on="1"/>
        <pt x="20" y="84" on="0"/>
        <pt x="46" y="95" on="0"/>
        <pt x="62" y="113" on="0"/>
        <pt x="70" y="141" on="0"/>
        <pt x="73" y="162" on="1"/>
        <pt x="107" y="436" on="1"/>
        <pt x="26" y="436" on="1"/>
        <pt x="15" y="446" on="1"/>
        <pt x="23" y="504" on="1"/>
        <pt x="35" y="503" on="0"/>
        <pt x="49" y="503" on="1"/>
        <pt x="115" y="503" on="1"/>
        <pt x="116" y="508" on="1"/>
        <pt x="120" y="539" on="0"/>
        <pt x="108" y="559" on="0"/>
        <pt x="88" y="559" on="1"/>
        <pt x="84" y="559" on="0"/>
        <pt x="76" y="558" on="0"/>
        <pt x="72" y="558" on="1"/>
        <pt x="63" y="558" on="1"/>
        <pt x="56" y="572" on="1"/>
        <pt x="73" y="647" on="1"/>
        <pt x="199" y="647" on="1"/>
        <pt x="221" y="647" on="0"/>
        <pt x="288" y="648" on="0"/>
        <pt x="320" y="649" on="1"/>
        <pt x="357" y="650" on="0"/>
        <pt x="397" y="652" on="1"/>
        <pt x="379" y="562" on="1"/>
        <pt x="364" y="559" on="0"/>
        <pt x="344" y="552" on="0"/>
        <pt x="331" y="541" on="0"/>
        <pt x="324" y="523" on="0"/>
        <pt x="322" y="510" on="1"/>
        <pt x="321" y="503" on="1"/>
        <pt x="422" y="503" on="1"/>
        <pt x="472" y="503" on="1"/>
        <pt x="473" y="508" on="1"/>
        <pt x="477" y="538" on="0"/>
        <pt x="465" y="559" on="0"/>
        <pt x="445" y="559" on="1"/>
        <pt x="440" y="559" on="0"/>
        <pt x="432" y="558" on="0"/>
        <pt x="428" y="558" on="1"/>
        <pt x="419" y="558" on="1"/>
        <pt x="412" y="572" on="1"/>
        <pt x="429" y="647" on="1"/>
        <pt x="615" y="647" on="1"/>
        <pt x="635" y="647" on="0"/>
        <pt x="686" y="649" on="0"/>
        <pt x="709" y="650" on="1"/>
        <pt x="735" y="651" on="0"/>
        <pt x="762" y="652" on="1"/>
        <pt x="745" y="564" on="1"/>
        <pt x="727" y="561" on="0"/>
        <pt x="704" y="554" on="0"/>
        <pt x="690" y="542" on="0"/>
        <pt x="683" y="524" on="0"/>
      </contour>
      <contour>
        <pt x="310" y="437" on="1"/>
        <pt x="302" y="389" on="1"/>
        <pt x="379" y="386" on="1"/>
        <pt x="412" y="386" on="0"/>
        <pt x="445" y="387" on="0"/>
        <pt x="458" y="389" on="1"/>
        <pt x="464" y="437" on="1"/>
        <pt x="396" y="437" on="1"/>
      </contour>
    </TTGlyph>
    <TTGlyph name="Hcircumflex" xMin="-17" yMin="-5" xMax="762" yMax="960">
      <component glyphName="H" x="0" y="0" flags="0x204"/>
      <component glyphName="circumflex" x="185" y="200" flags="0x4"/>
    </TTGlyph>
    <TTGlyph name="I" xMin="-17" yMin="-5" xMax="402" yMax="652">
      <contour>
        <pt x="323" y="510" on="1"/>
        <pt x="319" y="486" on="0"/>
        <pt x="307" y="417" on="0"/>
        <pt x="295" y="338" on="0"/>
        <pt x="283" y="256" on="0"/>
        <pt x="273" y="186" on="0"/>
        <pt x="267" y="135" on="0"/>
        <pt x="267" y="125" on="1"/>
        <pt x="267" y="102" on="0"/>
        <pt x="278" y="87" on="0"/>
        <pt x="292" y="87" on="1"/>
        <pt x="300" y="87" on="0"/>
        <pt x="311" y="87" on="0"/>
        <pt x="315" y="88" on="1"/>
        <pt x="319" y="89" on="0"/>
        <pt x="323" y="90" on="1"/>
        <pt x="329" y="80" on="1"/>
        <pt x="310" y="-4" on="1"/>
        <pt x="276" y="-3" on="0"/>
        <pt x="244" y="-2" on="1"/>
        <pt x="217" y="-1" on="0"/>
        <pt x="162" y="0" on="0"/>
        <pt x="147" y="0" on="1"/>
        <pt x="124" y="0" on="0"/>
        <pt x="67" y="-2" on="0"/>
        <pt x="42" y="-3" on="1"/>
        <pt x="13" y="-4" on="0"/>
        <pt x="-17" y="-5" on="1"/>
        <pt x="1" y="80" on="1"/>
        <pt x="21" y="84" on="0"/>
        <pt x="47" y="96" on="0"/>
        <pt x="63" y="114" on="0"/>
        <pt x="71" y="141" on="0"/>
        <pt x="73" y="162" on="1"/>
        <pt x="116" y="508" on="1"/>
        <pt x="120" y="539" on="0"/>
        <pt x="108" y="559" on="0"/>
        <pt x="88" y="559" on="1"/>
        <pt x="84" y="559" on="0"/>
        <pt x="76" y="558" on="0"/>
        <pt x="72" y="558" on="1"/>
        <pt x="64" y="558" on="1"/>
        <pt x="56" y="572" on="1"/>
        <pt x="73" y="647" on="1"/>
        <pt x="232" y="647" on="1"/>
        <pt x="247" y="647" on="0"/>
        <pt x="304" y="648" on="0"/>
        <pt x="332" y="649" on="1"/>
        <pt x="365" y="650" on="0"/>
        <pt x="402" y="652" on="1"/>
        <pt x="384" y="562" on="1"/>
        <pt x="367" y="559" on="0"/>
        <pt x="346" y="553" on="0"/>
        <pt x="333" y="542" on="0"/>
        <pt x="326" y="524" on="0"/>
      </contour>
    </TTGlyph>
    <TTGlyph name="IJ" xMin="-17" yMin="-164" xMax="746" yMax="655">
      <component glyphName="I" x="0" y="0" flags="0x4"/>
      <component glyphName="J" x="359" y="0" flags="0x4"/>
    </TTGlyph>
    <TTGlyph name="Iacute" xMin="-17" yMin="-5" xMax="402" yMax="875">
      <component glyphName="I" x="0" y="0" flags="0x204"/>
      <component glyphName="acute.cap" x="57" y="0" flags="0x4"/>
    </TTGlyph>
    <TTGlyph name="Ibreve" xMin="-17" yMin="-5" xMax="431" yMax="900">
      <component glyphName="I" x="0" y="0" flags="0x204"/>
      <component glyphName="breve.cap" x="-8" y="40" flags="0x4"/>
    </TTGlyph>
    <TTGlyph name="Icircumflex" xMin="-17" yMin="-5" xMax="434" yMax="910">
      <component glyphName="I" x="0" y="0" flags="0x204"/>
      <component glyphName="circumflex.cap" x="-9" y="0" flags="0x4"/>
    </TTGlyph>
    <TTGlyph name="Idieresis" xMin="-17" yMin="-5" xMax="424" yMax="862">
      <component glyphName="I" x="0" y="0" flags="0x204"/>
      <component glyphName="dieresis.cap" x="-10" y="10" flags="0x4"/>
    </TTGlyph>
    <TTGlyph name="Idotaccent" xMin="-17" yMin="-5" xMax="402" yMax="882">
      <component glyphName="I" x="0" y="0" flags="0x204"/>
      <component glyphName="dotaccent.cap" x="-8" y="0" flags="0x4"/>
    </TTGlyph>
    <TTGlyph name="Igrave" xMin="-17" yMin="-5" xMax="402" yMax="875">
      <component glyphName="I" x="0" y="0" flags="0x204"/>
      <component glyphName="grave.cap" x="83" y="0" flags="0x4"/>
    </TTGlyph>
    <TTGlyph name="Imacron" xMin="-17" yMin="-5" xMax="407" yMax="823">
      <component glyphName="I" x="0" y="0" flags="0x204"/>
      <component glyphName="macron.cap" x="-11" y="0" flags="0x4"/>
    </TTGlyph>
    <TTGlyph name="Iogonek" xMin="-17" yMin="-242" xMax="402" yMax="652">
      <contour>
        <pt x="312" y="-170" on="1"/>
        <pt x="293" y="-185" on="0"/>
        <pt x="275" y="-199" on="1"/>
        <pt x="258" y="-211" on="0"/>
        <pt x="220" y="-235" on="0"/>
        <pt x="202" y="-242" on="1"/>
        <pt x="145" y="-242" on="0"/>
        <pt x="84" y="-199" on="0"/>
        <pt x="84" y="-162" on="1"/>
        <pt x="84" y="-146" on="0"/>
        <pt x="92" y="-114" on="0"/>
        <pt x="115" y="-77" on="0"/>
        <pt x="156" y="-31" on="0"/>
        <pt x="188" y="0" on="1"/>
        <pt x="147" y="0" on="1"/>
        <pt x="124" y="0" on="0"/>
        <pt x="67" y="-2" on="0"/>
        <pt x="42" y="-3" on="1"/>
        <pt x="13" y="-4" on="0"/>
        <pt x="-17" y="-5" on="1"/>
        <pt x="1" y="80" on="1"/>
        <pt x="21" y="84" on="0"/>
        <pt x="47" y="96" on="0"/>
        <pt x="63" y="114" on="0"/>
        <pt x="71" y="141" on="0"/>
        <pt x="73" y="162" on="1"/>
        <pt x="116" y="508" on="1"/>
        <pt x="120" y="539" on="0"/>
        <pt x="108" y="559" on="0"/>
        <pt x="88" y="559" on="1"/>
        <pt x="84" y="559" on="0"/>
        <pt x="76" y="558" on="0"/>
        <pt x="72" y="558" on="1"/>
        <pt x="64" y="558" on="1"/>
        <pt x="56" y="572" on="1"/>
        <pt x="73" y="647" on="1"/>
        <pt x="232" y="647" on="1"/>
        <pt x="247" y="647" on="0"/>
        <pt x="304" y="648" on="0"/>
        <pt x="332" y="649" on="1"/>
        <pt x="365" y="650" on="0"/>
        <pt x="402" y="652" on="1"/>
        <pt x="384" y="562" on="1"/>
        <pt x="367" y="559" on="0"/>
        <pt x="346" y="553" on="0"/>
        <pt x="333" y="542" on="0"/>
        <pt x="326" y="524" on="0"/>
        <pt x="323" y="510" on="1"/>
        <pt x="319" y="486" on="0"/>
        <pt x="307" y="417" on="0"/>
        <pt x="295" y="338" on="0"/>
        <pt x="283" y="256" on="0"/>
        <pt x="273" y="186" on="0"/>
        <pt x="267" y="135" on="0"/>
        <pt x="267" y="125" on="1"/>
        <pt x="267" y="102" on="0"/>
        <pt x="278" y="87" on="0"/>
        <pt x="292" y="87" on="1"/>
        <pt x="300" y="87" on="0"/>
        <pt x="311" y="87" on="0"/>
        <pt x="315" y="88" on="1"/>
        <pt x="319" y="89" on="0"/>
        <pt x="323" y="90" on="1"/>
        <pt x="329" y="80" on="1"/>
        <pt x="310" y="-4" on="1"/>
        <pt x="303" y="-3" on="0"/>
        <pt x="296" y="-3" on="1"/>
        <pt x="289" y="-3" on="0"/>
        <pt x="273" y="-3" on="0"/>
        <pt x="264" y="-2" on="1"/>
        <pt x="241" y="-29" on="0"/>
        <pt x="213" y="-67" on="0"/>
        <pt x="197" y="-93" on="0"/>
        <pt x="192" y="-112" on="0"/>
        <pt x="192" y="-121" on="1"/>
        <pt x="192" y="-136" on="0"/>
        <pt x="210" y="-155" on="0"/>
        <pt x="225" y="-155" on="1"/>
        <pt x="236" y="-155" on="0"/>
        <pt x="258" y="-148" on="0"/>
        <pt x="268" y="-143" on="1"/>
        <pt x="279" y="-138" on="0"/>
        <pt x="291" y="-130" on="1"/>
      </contour>
    </TTGlyph>
    <TTGlyph name="Itilde" xMin="-17" yMin="-5" xMax="448" yMax="913">
      <component glyphName="I" x="0" y="0" flags="0x204"/>
      <component glyphName="tilde" x="7" y="175" flags="0x4"/>
    </TTGlyph>
    <TTGlyph name="J" xMin="-70" yMin="-164" xMax="387" yMax="655">
      <contour>
        <pt x="108" y="508" on="1"/>
        <pt x="112" y="539" on="0"/>
        <pt x="103" y="559" on="0"/>
        <pt x="84" y="559" on="1"/>
        <pt x="78" y="559" on="0"/>
        <pt x="66" y="558" on="0"/>
        <pt x="61" y="558" on="1"/>
        <pt x="55" y="557" on="0"/>
        <pt x="49" y="557" on="1"/>
        <pt x="42" y="571" on="1"/>
        <pt x="59" y="647" on="1"/>
        <pt x="198" y="648" on="1"/>
        <pt x="234" y="648" on="0"/>
        <pt x="303" y="650" on="0"/>
        <pt x="329" y="652" on="1"/>
        <pt x="360" y="654" on="0"/>
        <pt x="387" y="655" on="1"/>
        <pt x="367" y="562" on="1"/>
        <pt x="353" y="559" on="0"/>
        <pt x="335" y="552" on="0"/>
        <pt x="325" y="541" on="0"/>
        <pt x="319" y="524" on="0"/>
        <pt x="316" y="510" on="1"/>
        <pt x="309" y="475" on="0"/>
        <pt x="292" y="373" on="0"/>
        <pt x="275" y="256" on="0"/>
        <pt x="258" y="136" on="0"/>
        <pt x="252" y="85" on="1"/>
        <pt x="245" y="37" on="0"/>
        <pt x="205" y="-40" on="0"/>
        <pt x="135" y="-102" on="0"/>
        <pt x="33" y="-148" on="0"/>
        <pt x="-35" y="-164" on="1"/>
        <pt x="-70" y="-116" on="1"/>
        <pt x="-66" y="-101" on="1"/>
        <pt x="-33" y="-78" on="0"/>
        <pt x="10" y="-36" on="0"/>
        <pt x="38" y="16" on="0"/>
        <pt x="55" y="83" on="0"/>
        <pt x="62" y="132" on="1"/>
      </contour>
    </TTGlyph>
    <TTGlyph name="Jcircumflex" xMin="-70" yMin="-164" xMax="419" yMax="934">
      <component glyphName="J" x="0" y="0" flags="0x204"/>
      <component glyphName="circumflex" x="5" y="174" flags="0x4"/>
    </TTGlyph>
    <TTGlyph name="K" xMin="-17" yMin="-16" xMax="723" yMax="652">
      <contour>
        <pt x="116" y="508" on="1"/>
        <pt x="120" y="539" on="0"/>
        <pt x="108" y="559" on="0"/>
        <pt x="88" y="559" on="1"/>
        <pt x="84" y="559" on="0"/>
        <pt x="76" y="558" on="0"/>
        <pt x="72" y="558" on="1"/>
        <pt x="63" y="558" on="1"/>
        <pt x="56" y="572" on="1"/>
        <pt x="74" y="648" on="1"/>
        <pt x="114" y="647" on="0"/>
        <pt x="147" y="647" on="1"/>
        <pt x="232" y="647" on="1"/>
        <pt x="247" y="647" on="0"/>
        <pt x="304" y="648" on="0"/>
        <pt x="333" y="649" on="1"/>
        <pt x="366" y="650" on="0"/>
        <pt x="403" y="652" on="1"/>
        <pt x="385" y="562" on="1"/>
        <pt x="347" y="552" on="0"/>
        <pt x="322" y="531" on="0"/>
        <pt x="320" y="506" on="1"/>
        <pt x="270" y="156" on="1"/>
        <pt x="265" y="115" on="0"/>
        <pt x="273" y="87" on="0"/>
        <pt x="292" y="87" on="1"/>
        <pt x="300" y="87" on="0"/>
        <pt x="311" y="87" on="0"/>
        <pt x="315" y="88" on="1"/>
        <pt x="319" y="89" on="0"/>
        <pt x="323" y="90" on="1"/>
        <pt x="330" y="80" on="1"/>
        <pt x="311" y="-4" on="1"/>
        <pt x="276" y="-3" on="0"/>
        <pt x="244" y="-2" on="1"/>
        <pt x="217" y="-1" on="0"/>
        <pt x="162" y="0" on="0"/>
        <pt x="147" y="0" on="1"/>
        <pt x="124" y="0" on="0"/>
        <pt x="67" y="-2" on="0"/>
        <pt x="42" y="-3" on="1"/>
        <pt x="13" y="-4" on="0"/>
        <pt x="-17" y="-5" on="1"/>
        <pt x="1" y="80" on="1"/>
        <pt x="20" y="84" on="0"/>
        <pt x="46" y="95" on="0"/>
        <pt x="62" y="113" on="0"/>
        <pt x="71" y="141" on="0"/>
        <pt x="73" y="162" on="1"/>
      </contour>
      <contour>
        <pt x="307" y="347" on="1"/>
        <pt x="420" y="472" on="1"/>
        <pt x="435" y="488" on="0"/>
        <pt x="454" y="521" on="0"/>
        <pt x="454" y="532" on="1"/>
        <pt x="454" y="545" on="0"/>
        <pt x="439" y="556" on="0"/>
        <pt x="419" y="558" on="1"/>
        <pt x="414" y="568" on="1"/>
        <pt x="433" y="650" on="1"/>
        <pt x="460" y="649" on="0"/>
        <pt x="486" y="648" on="1"/>
        <pt x="508" y="647" on="0"/>
        <pt x="556" y="647" on="0"/>
        <pt x="573" y="647" on="1"/>
        <pt x="586" y="647" on="0"/>
        <pt x="635" y="648" on="0"/>
        <pt x="658" y="649" on="1"/>
        <pt x="685" y="650" on="0"/>
        <pt x="716" y="652" on="1"/>
        <pt x="723" y="637" on="1"/>
        <pt x="705" y="562" on="1"/>
        <pt x="683" y="550" on="0"/>
        <pt x="646" y="524" on="0"/>
        <pt x="612" y="494" on="0"/>
        <pt x="579" y="457" on="0"/>
        <pt x="561" y="435" on="1"/>
        <pt x="501" y="356" on="1"/>
        <pt x="566" y="174" on="1"/>
        <pt x="582" y="129" on="0"/>
        <pt x="619" y="89" on="0"/>
        <pt x="648" y="84" on="1"/>
        <pt x="657" y="69" on="1"/>
        <pt x="637" y="-5" on="1"/>
        <pt x="600" y="-8" on="0"/>
        <pt x="569" y="-11" on="1"/>
        <pt x="543" y="-13" on="0"/>
        <pt x="492" y="-16" on="0"/>
        <pt x="483" y="-16" on="1"/>
        <pt x="445" y="-16" on="0"/>
        <pt x="403" y="19" on="0"/>
        <pt x="387" y="65" on="1"/>
        <pt x="298" y="317" on="1"/>
      </contour>
    </TTGlyph>
    <TTGlyph name="Kcommaaccent" xMin="-17" yMin="-345" xMax="723" yMax="652">
      <component glyphName="K" x="0" y="0" flags="0x204"/>
      <component glyphName="commaaccent" x="175" y="0" flags="0x4"/>
    </TTGlyph>
    <TTGlyph name="L" xMin="-20" yMin="-10" xMax="548" yMax="652">
      <contour>
        <pt x="189" y="0" on="1"/>
        <pt x="151" y="0" on="0"/>
        <pt x="77" y="-3" on="0"/>
        <pt x="47" y="-5" on="1"/>
        <pt x="12" y="-8" on="0"/>
        <pt x="-20" y="-10" on="1"/>
        <pt x="0" y="82" on="1"/>
        <pt x="37" y="88" on="0"/>
        <pt x="68" y="125" on="0"/>
        <pt x="73" y="170" on="1"/>
        <pt x="115" y="508" on="1"/>
        <pt x="119" y="539" on="0"/>
        <pt x="107" y="559" on="0"/>
        <pt x="87" y="559" on="1"/>
        <pt x="83" y="559" on="0"/>
        <pt x="75" y="558" on="0"/>
        <pt x="71" y="558" on="1"/>
        <pt x="62" y="558" on="1"/>
        <pt x="55" y="572" on="1"/>
        <pt x="72" y="647" on="1"/>
        <pt x="231" y="647" on="1"/>
        <pt x="248" y="647" on="0"/>
        <pt x="317" y="648" on="0"/>
        <pt x="352" y="649" on="1"/>
        <pt x="392" y="650" on="0"/>
        <pt x="437" y="652" on="1"/>
        <pt x="414" y="554" on="1"/>
        <pt x="363" y="549" on="0"/>
        <pt x="325" y="528" on="0"/>
        <pt x="321" y="502" on="1"/>
        <pt x="317" y="480" on="0"/>
        <pt x="306" y="415" on="0"/>
        <pt x="295" y="343" on="0"/>
        <pt x="283" y="269" on="0"/>
        <pt x="274" y="205" on="0"/>
        <pt x="269" y="157" on="0"/>
        <pt x="269" y="147" on="1"/>
        <pt x="269" y="115" on="0"/>
        <pt x="298" y="115" on="1"/>
        <pt x="323" y="115" on="0"/>
        <pt x="357" y="128" on="0"/>
        <pt x="381" y="164" on="0"/>
        <pt x="399" y="228" on="0"/>
        <pt x="408" y="278" on="1"/>
        <pt x="538" y="291" on="1"/>
        <pt x="548" y="276" on="1"/>
        <pt x="540" y="238" on="0"/>
        <pt x="530" y="195" on="1"/>
        <pt x="522" y="158" on="0"/>
        <pt x="502" y="61" on="0"/>
        <pt x="492" y="9" on="1"/>
        <pt x="475" y="-7" on="1"/>
        <pt x="433" y="-6" on="0"/>
        <pt x="385" y="-4" on="1"/>
        <pt x="344" y="-2" on="0"/>
        <pt x="243" y="0" on="0"/>
      </contour>
    </TTGlyph>
    <TTGlyph name="Lacute" xMin="-20" yMin="-10" xMax="548" yMax="875">
      <component glyphName="L" x="0" y="0" flags="0x204"/>
      <component glyphName="acute.cap" x="61" y="0" flags="0x4"/>
    </TTGlyph>
    <TTGlyph name="Lcaron" xMin="-20" yMin="-10" xMax="612" yMax="652">
      <contour>
        <pt x="189" y="0" on="1"/>
        <pt x="151" y="0" on="0"/>
        <pt x="77" y="-3" on="0"/>
        <pt x="47" y="-5" on="1"/>
        <pt x="12" y="-8" on="0"/>
        <pt x="-20" y="-10" on="1"/>
        <pt x="0" y="82" on="1"/>
        <pt x="37" y="88" on="0"/>
        <pt x="68" y="125" on="0"/>
        <pt x="73" y="170" on="1"/>
        <pt x="115" y="508" on="1"/>
        <pt x="119" y="539" on="0"/>
        <pt x="107" y="559" on="0"/>
        <pt x="87" y="559" on="1"/>
        <pt x="83" y="559" on="0"/>
        <pt x="75" y="558" on="0"/>
        <pt x="71" y="558" on="1"/>
        <pt x="62" y="558" on="1"/>
        <pt x="55" y="572" on="1"/>
        <pt x="72" y="647" on="1"/>
        <pt x="231" y="647" on="1"/>
        <pt x="248" y="647" on="0"/>
        <pt x="317" y="648" on="0"/>
        <pt x="352" y="649" on="1"/>
        <pt x="392" y="650" on="0"/>
        <pt x="437" y="652" on="1"/>
        <pt x="414" y="554" on="1"/>
        <pt x="363" y="549" on="0"/>
        <pt x="325" y="528" on="0"/>
        <pt x="321" y="502" on="1"/>
        <pt x="317" y="480" on="0"/>
        <pt x="306" y="415" on="0"/>
        <pt x="295" y="343" on="0"/>
        <pt x="283" y="269" on="0"/>
        <pt x="274" y="205" on="0"/>
        <pt x="269" y="157" on="0"/>
        <pt x="269" y="147" on="1"/>
        <pt x="269" y="115" on="0"/>
        <pt x="298" y="115" on="1"/>
        <pt x="323" y="115" on="0"/>
        <pt x="357" y="128" on="0"/>
        <pt x="381" y="164" on="0"/>
        <pt x="399" y="228" on="0"/>
        <pt x="408" y="278" on="1"/>
        <pt x="538" y="291" on="1"/>
        <pt x="548" y="276" on="1"/>
        <pt x="540" y="238" on="0"/>
        <pt x="530" y="195" on="1"/>
        <pt x="522" y="158" on="0"/>
        <pt x="502" y="61" on="0"/>
        <pt x="492" y="9" on="1"/>
        <pt x="475" y="-7" on="1"/>
        <pt x="433" y="-6" on="0"/>
        <pt x="385" y="-4" on="1"/>
        <pt x="344" y="-2" on="0"/>
        <pt x="243" y="0" on="0"/>
      </contour>
      <contour>
        <pt x="612" y="635" on="1"/>
        <pt x="607" y="602" on="0"/>
        <pt x="601" y="566" on="1"/>
        <pt x="596" y="535" on="0"/>
        <pt x="580" y="456" on="0"/>
        <pt x="570" y="414" on="1"/>
        <pt x="497" y="389" on="1"/>
        <pt x="478" y="395" on="1"/>
        <pt x="479" y="440" on="0"/>
        <pt x="476" y="525" on="0"/>
        <pt x="474" y="559" on="1"/>
        <pt x="471" y="598" on="0"/>
        <pt x="469" y="633" on="1"/>
        <pt x="603" y="647" on="1"/>
      </contour>
    </TTGlyph>
    <TTGlyph name="Lcommaaccent" xMin="-20" yMin="-345" xMax="548" yMax="652">
      <component glyphName="L" x="0" y="0" flags="0x204"/>
      <component glyphName="commaaccent" x="90" y="0" flags="0x4"/>
    </TTGlyph>
    <TTGlyph name="Ldot" xMin="-20" yMin="-10" xMax="611" yMax="652">
      <component glyphName="L" x="0" y="0" flags="0x4"/>
      <component glyphName="periodcentered" x="396" y="224" flags="0x4"/>
    </TTGlyph>
    <TTGlyph name="Lslash" xMin="-20" yMin="-10" xMax="548" yMax="652">
      <contour>
        <pt x="189" y="0" on="1"/>
        <pt x="151" y="0" on="0"/>
        <pt x="77" y="-3" on="0"/>
        <pt x="47" y="-5" on="1"/>
        <pt x="12" y="-8" on="0"/>
        <pt x="-20" y="-10" on="1"/>
        <pt x="0" y="82" on="1"/>
        <pt x="37" y="88" on="0"/>
        <pt x="68" y="125" on="0"/>
        <pt x="73" y="170" on="1"/>
        <pt x="80" y="228" on="1"/>
        <pt x="44" y="210" on="1"/>
        <pt x="34" y="212" on="1"/>
        <pt x="3" y="306" on="1"/>
        <pt x="95" y="352" on="1"/>
        <pt x="115" y="508" on="1"/>
        <pt x="119" y="539" on="0"/>
        <pt x="107" y="559" on="0"/>
        <pt x="87" y="559" on="1"/>
        <pt x="83" y="559" on="0"/>
        <pt x="75" y="558" on="0"/>
        <pt x="71" y="558" on="1"/>
        <pt x="62" y="558" on="1"/>
        <pt x="55" y="572" on="1"/>
        <pt x="72" y="647" on="1"/>
        <pt x="231" y="647" on="1"/>
        <pt x="248" y="647" on="0"/>
        <pt x="317" y="648" on="0"/>
        <pt x="352" y="649" on="1"/>
        <pt x="392" y="650" on="0"/>
        <pt x="437" y="652" on="1"/>
        <pt x="414" y="554" on="1"/>
        <pt x="363" y="549" on="0"/>
        <pt x="325" y="528" on="0"/>
        <pt x="321" y="502" on="1"/>
        <pt x="310" y="437" on="1"/>
        <pt x="385" y="475" on="1"/>
        <pt x="394" y="471" on="1"/>
        <pt x="425" y="378" on="1"/>
        <pt x="289" y="310" on="1"/>
        <pt x="285" y="282" on="0"/>
        <pt x="278" y="230" on="0"/>
        <pt x="272" y="186" on="0"/>
        <pt x="269" y="154" on="0"/>
        <pt x="269" y="147" on="1"/>
        <pt x="269" y="115" on="0"/>
        <pt x="298" y="115" on="1"/>
        <pt x="323" y="115" on="0"/>
        <pt x="357" y="128" on="0"/>
        <pt x="381" y="164" on="0"/>
        <pt x="399" y="228" on="0"/>
        <pt x="408" y="278" on="1"/>
        <pt x="538" y="291" on="1"/>
        <pt x="548" y="276" on="1"/>
        <pt x="540" y="238" on="0"/>
        <pt x="530" y="195" on="1"/>
        <pt x="522" y="158" on="0"/>
        <pt x="502" y="61" on="0"/>
        <pt x="492" y="9" on="1"/>
        <pt x="475" y="-7" on="1"/>
        <pt x="433" y="-6" on="0"/>
        <pt x="385" y="-4" on="1"/>
        <pt x="344" y="-2" on="0"/>
        <pt x="243" y="0" on="0"/>
      </contour>
    </TTGlyph>
    <TTGlyph name="M" xMin="-25" yMin="-12" xMax="830" yMax="653">
      <contour>
        <pt x="293" y="-12" on="1"/>
        <pt x="282" y="67" on="0"/>
        <pt x="264" y="189" on="0"/>
        <pt x="251" y="280" on="0"/>
        <pt x="242" y="342" on="0"/>
        <pt x="239" y="363" on="1"/>
        <pt x="226" y="363" on="1"/>
        <pt x="216" y="297" on="0"/>
        <pt x="209" y="244" on="1"/>
        <pt x="206" y="221" on="0"/>
        <pt x="200" y="177" on="0"/>
        <pt x="196" y="141" on="0"/>
        <pt x="193" y="117" on="0"/>
        <pt x="193" y="115" on="1"/>
        <pt x="193" y="88" on="0"/>
        <pt x="221" y="88" on="1"/>
        <pt x="223" y="88" on="0"/>
        <pt x="232" y="88" on="0"/>
        <pt x="236" y="89" on="1"/>
        <pt x="240" y="89" on="0"/>
        <pt x="246" y="90" on="1"/>
        <pt x="254" y="82" on="1"/>
        <pt x="231" y="-4" on="1"/>
        <pt x="200" y="-3" on="0"/>
        <pt x="173" y="-2" on="1"/>
        <pt x="150" y="-1" on="0"/>
        <pt x="103" y="0" on="0"/>
        <pt x="91" y="0" on="1"/>
        <pt x="76" y="0" on="0"/>
        <pt x="36" y="-2" on="0"/>
        <pt x="0" y="-5" on="0"/>
        <pt x="-25" y="-8" on="0"/>
        <pt x="-25" y="-8" on="1"/>
        <pt x="-6" y="82" on="1"/>
        <pt x="21" y="85" on="0"/>
        <pt x="49" y="115" on="0"/>
        <pt x="57" y="148" on="1"/>
        <pt x="59" y="156" on="0"/>
        <pt x="72" y="215" on="0"/>
        <pt x="89" y="295" on="0"/>
        <pt x="108" y="386" on="0"/>
        <pt x="124" y="465" on="0"/>
        <pt x="134" y="522" on="0"/>
        <pt x="134" y="529" on="1"/>
        <pt x="134" y="535" on="0"/>
        <pt x="131" y="545" on="0"/>
        <pt x="120" y="551" on="0"/>
        <pt x="98" y="556" on="0"/>
        <pt x="79" y="558" on="1"/>
        <pt x="72" y="566" on="1"/>
        <pt x="92" y="652" on="1"/>
        <pt x="122" y="650" on="0"/>
        <pt x="149" y="649" on="1"/>
        <pt x="172" y="648" on="0"/>
        <pt x="220" y="647" on="0"/>
        <pt x="236" y="647" on="1"/>
        <pt x="256" y="647" on="0"/>
        <pt x="310" y="648" on="0"/>
        <pt x="334" y="649" on="1"/>
        <pt x="362" y="650" on="0"/>
        <pt x="390" y="651" on="1"/>
        <pt x="392" y="594" on="0"/>
        <pt x="402" y="482" on="0"/>
        <pt x="407" y="436" on="1"/>
        <pt x="412" y="382" on="0"/>
        <pt x="418" y="333" on="1"/>
        <pt x="431" y="333" on="1"/>
        <pt x="451" y="383" on="0"/>
        <pt x="471" y="436" on="1"/>
        <pt x="488" y="481" on="0"/>
        <pt x="528" y="592" on="0"/>
        <pt x="547" y="647" on="1"/>
        <pt x="595" y="647" on="0"/>
        <pt x="685" y="645" on="0"/>
        <pt x="732" y="648" on="1"/>
        <pt x="750" y="649" on="0"/>
        <pt x="782" y="650" on="0"/>
        <pt x="795" y="651" on="1"/>
        <pt x="810" y="652" on="0"/>
        <pt x="823" y="653" on="1"/>
        <pt x="830" y="649" on="1"/>
        <pt x="811" y="561" on="1"/>
        <pt x="791" y="560" on="0"/>
        <pt x="766" y="555" on="0"/>
        <pt x="751" y="544" on="0"/>
        <pt x="744" y="525" on="0"/>
        <pt x="742" y="510" on="1"/>
        <pt x="739" y="487" on="0"/>
        <pt x="734" y="403" on="0"/>
        <pt x="730" y="307" on="0"/>
        <pt x="726" y="211" on="0"/>
        <pt x="725" y="176" on="1"/>
        <pt x="723" y="127" on="0"/>
        <pt x="737" y="89" on="0"/>
        <pt x="759" y="89" on="1"/>
        <pt x="764" y="89" on="0"/>
        <pt x="775" y="89" on="0"/>
        <pt x="779" y="90" on="1"/>
        <pt x="783" y="90" on="0"/>
        <pt x="788" y="91" on="1"/>
        <pt x="794" y="83" on="1"/>
        <pt x="775" y="-3" on="1"/>
        <pt x="757" y="-3" on="0"/>
        <pt x="739" y="-2" on="1"/>
        <pt x="723" y="-1" on="0"/>
        <pt x="685" y="-1" on="0"/>
        <pt x="668" y="0" on="1"/>
        <pt x="663" y="0" on="0"/>
        <pt x="633" y="-1" on="0"/>
        <pt x="593" y="-2" on="0"/>
        <pt x="548" y="-3" on="0"/>
        <pt x="508" y="-5" on="0"/>
        <pt x="479" y="-7" on="0"/>
        <pt x="476" y="-8" on="1"/>
        <pt x="499" y="83" on="1"/>
        <pt x="526" y="86" on="0"/>
        <pt x="551" y="108" on="0"/>
        <pt x="554" y="132" on="1"/>
        <pt x="555" y="140" on="0"/>
        <pt x="558" y="169" on="0"/>
        <pt x="562" y="205" on="0"/>
        <pt x="567" y="244" on="0"/>
        <pt x="569" y="264" on="1"/>
        <pt x="574" y="310" on="0"/>
        <pt x="580" y="363" on="1"/>
        <pt x="567" y="363" on="1"/>
        <pt x="566" y="360" on="0"/>
        <pt x="541" y="301" on="0"/>
        <pt x="501" y="202" on="0"/>
        <pt x="449" y="72" on="0"/>
        <pt x="421" y="-2" on="1"/>
      </contour>
    </TTGlyph>
    <TTGlyph name="N" xMin="-12" yMin="-12" xMax="770" yMax="652">
      <contour>
        <pt x="496" y="333" on="1"/>
        <pt x="514" y="516" on="1"/>
        <pt x="516" y="542" on="0"/>
        <pt x="505" y="559" on="0"/>
        <pt x="488" y="559" on="1"/>
        <pt x="458" y="559" on="1"/>
        <pt x="454" y="570" on="1"/>
        <pt x="469" y="651" on="1"/>
        <pt x="500" y="650" on="0"/>
        <pt x="530" y="649" on="1"/>
        <pt x="556" y="648" on="0"/>
        <pt x="612" y="647" on="0"/>
        <pt x="633" y="647" on="1"/>
        <pt x="654" y="647" on="0"/>
        <pt x="702" y="648" on="0"/>
        <pt x="743" y="649" on="0"/>
        <pt x="770" y="650" on="0"/>
        <pt x="770" y="650" on="1"/>
        <pt x="754" y="560" on="1"/>
        <pt x="722" y="555" on="0"/>
        <pt x="696" y="528" on="0"/>
        <pt x="691" y="497" on="1"/>
        <pt x="617" y="0" on="1"/>
        <pt x="425" y="-12" on="1"/>
        <pt x="394" y="58" on="0"/>
        <pt x="340" y="176" on="0"/>
        <pt x="320" y="221" on="1"/>
        <pt x="296" y="272" on="0"/>
        <pt x="275" y="315" on="1"/>
        <pt x="260" y="315" on="1"/>
        <pt x="242" y="137" on="1"/>
        <pt x="239" y="108" on="0"/>
        <pt x="252" y="86" on="0"/>
        <pt x="274" y="86" on="1"/>
        <pt x="278" y="86" on="0"/>
        <pt x="289" y="87" on="0"/>
        <pt x="294" y="88" on="1"/>
        <pt x="300" y="89" on="0"/>
        <pt x="306" y="90" on="1"/>
        <pt x="314" y="81" on="1"/>
        <pt x="293" y="-4" on="1"/>
        <pt x="262" y="-3" on="0"/>
        <pt x="233" y="-2" on="1"/>
        <pt x="208" y="-1" on="0"/>
        <pt x="157" y="0" on="0"/>
        <pt x="142" y="0" on="1"/>
        <pt x="116" y="0" on="0"/>
        <pt x="62" y="-2" on="0"/>
        <pt x="39" y="-4" on="1"/>
        <pt x="13" y="-6" on="0"/>
        <pt x="-12" y="-8" on="1"/>
        <pt x="9" y="82" on="1"/>
        <pt x="38" y="86" on="0"/>
        <pt x="67" y="115" on="0"/>
        <pt x="72" y="145" on="1"/>
        <pt x="126" y="494" on="1"/>
        <pt x="128" y="511" on="0"/>
        <pt x="126" y="533" on="0"/>
        <pt x="112" y="547" on="0"/>
        <pt x="84" y="554" on="0"/>
        <pt x="62" y="557" on="1"/>
        <pt x="52" y="571" on="1"/>
        <pt x="67" y="652" on="1"/>
        <pt x="89" y="650" on="0"/>
        <pt x="113" y="649" on="1"/>
        <pt x="133" y="648" on="0"/>
        <pt x="185" y="647" on="0"/>
        <pt x="213" y="647" on="1"/>
        <pt x="233" y="647" on="0"/>
        <pt x="278" y="648" on="0"/>
        <pt x="297" y="649" on="1"/>
        <pt x="319" y="650" on="0"/>
        <pt x="341" y="651" on="1"/>
        <pt x="365" y="590" on="0"/>
        <pt x="415" y="476" on="0"/>
        <pt x="435" y="431" on="1"/>
        <pt x="459" y="379" on="0"/>
        <pt x="481" y="333" on="1"/>
      </contour>
    </TTGlyph>
    <TTGlyph name="Nacute" xMin="-12" yMin="-12" xMax="770" yMax="875">
      <component glyphName="N" x="0" y="0" flags="0x204"/>
      <component glyphName="acute.cap" x="214" y="0" flags="0x4"/>
    </TTGlyph>
    <TTGlyph name="Ncaron" xMin="-12" yMin="-12" xMax="770" yMax="895">
      <component glyphName="N" x="0" y="0" flags="0x204"/>
      <component glyphName="caron.cap" x="175" y="0" flags="0x4"/>
    </TTGlyph>
    <TTGlyph name="Ncommaaccent" xMin="-12" yMin="-345" xMax="770" yMax="652">
      <component glyphName="N" x="0" y="0" flags="0x204"/>
      <component glyphName="commaaccent" x="186" y="0" flags="0x4"/>
    </TTGlyph>
    <TTGlyph name="Ntilde" xMin="-12" yMin="-12" xMax="770" yMax="888">
      <component glyphName="N" x="0" y="0" flags="0x204"/>
      <component glyphName="tilde.cap" x="175" y="0" flags="0x4"/>
    </TTGlyph>
    <TTGlyph name="O" xMin="18" yMin="-12" xMax="638" yMax="659">
      <contour>
        <pt x="310" y="114" on="1"/>
        <pt x="336" y="114" on="0"/>
        <pt x="373" y="146" on="0"/>
        <pt x="396" y="216" on="0"/>
        <pt x="407" y="325" on="0"/>
        <pt x="407" y="402" on="1"/>
        <pt x="407" y="464" on="0"/>
        <pt x="375" y="522" on="0"/>
        <pt x="342" y="522" on="1"/>
        <pt x="292" y="522" on="0"/>
        <pt x="247" y="387" on="0"/>
        <pt x="247" y="234" on="1"/>
        <pt x="247" y="172" on="0"/>
        <pt x="278" y="114" on="0"/>
      </contour>
      <contour>
        <pt x="283" y="-12" on="1"/>
        <pt x="158" y="-12" on="0"/>
        <pt x="18" y="125" on="0"/>
        <pt x="18" y="256" on="1"/>
        <pt x="18" y="449" on="0"/>
        <pt x="198" y="659" on="0"/>
        <pt x="372" y="659" on="1"/>
        <pt x="500" y="659" on="0"/>
        <pt x="638" y="529" on="0"/>
        <pt x="638" y="398" on="1"/>
        <pt x="638" y="302" on="0"/>
        <pt x="591" y="149" on="0"/>
        <pt x="501" y="44" on="0"/>
        <pt x="369" y="-12" on="0"/>
      </contour>
    </TTGlyph>
    <TTGlyph name="OE" xMin="18" yMin="-10" xMax="922" yMax="659">
      <contour>
        <pt x="571" y="175" on="1"/>
        <pt x="566" y="136" on="0"/>
        <pt x="580" y="115" on="0"/>
        <pt x="609" y="115" on="1"/>
        <pt x="639" y="115" on="0"/>
        <pt x="678" y="123" on="0"/>
        <pt x="704" y="146" on="0"/>
        <pt x="722" y="187" on="0"/>
        <pt x="730" y="221" on="1"/>
        <pt x="860" y="230" on="1"/>
        <pt x="870" y="215" on="1"/>
        <pt x="862" y="186" on="0"/>
        <pt x="853" y="153" on="1"/>
        <pt x="845" y="124" on="0"/>
        <pt x="826" y="50" on="0"/>
        <pt x="818" y="9" on="1"/>
        <pt x="801" y="-7" on="1"/>
        <pt x="753" y="-5" on="0"/>
        <pt x="701" y="-2" on="1"/>
        <pt x="656" y="0" on="0"/>
        <pt x="544" y="3" on="0"/>
        <pt x="487" y="3" on="1"/>
        <pt x="433" y="3" on="0"/>
        <pt x="328" y="-10" on="0"/>
        <pt x="289" y="-10" on="1"/>
        <pt x="161" y="-10" on="0"/>
        <pt x="18" y="128" on="0"/>
        <pt x="18" y="259" on="1"/>
        <pt x="18" y="449" on="0"/>
        <pt x="191" y="650" on="0"/>
        <pt x="366" y="650" on="1"/>
        <pt x="414" y="650" on="0"/>
        <pt x="531" y="638" on="0"/>
        <pt x="598" y="638" on="1"/>
        <pt x="630" y="638" on="0"/>
        <pt x="710" y="641" on="0"/>
        <pt x="794" y="647" on="0"/>
        <pt x="876" y="654" on="0"/>
        <pt x="911" y="659" on="1"/>
        <pt x="922" y="643" on="1"/>
        <pt x="913" y="612" on="0"/>
        <pt x="905" y="579" on="1"/>
        <pt x="897" y="550" on="0"/>
        <pt x="882" y="479" on="0"/>
        <pt x="876" y="444" on="1"/>
        <pt x="736" y="435" on="1"/>
        <pt x="738" y="444" on="0"/>
        <pt x="740" y="453" on="1"/>
        <pt x="742" y="461" on="0"/>
        <pt x="744" y="477" on="0"/>
        <pt x="744" y="484" on="1"/>
        <pt x="744" y="510" on="0"/>
        <pt x="709" y="527" on="0"/>
        <pt x="657" y="527" on="1"/>
        <pt x="637" y="527" on="0"/>
        <pt x="625" y="517" on="0"/>
        <pt x="623" y="500" on="1"/>
        <pt x="603" y="387" on="1"/>
        <pt x="681" y="386" on="1"/>
        <pt x="692" y="386" on="0"/>
        <pt x="728" y="387" on="0"/>
        <pt x="745" y="389" on="1"/>
        <pt x="765" y="390" on="0"/>
        <pt x="788" y="392" on="1"/>
        <pt x="799" y="378" on="1"/>
        <pt x="771" y="263" on="1"/>
        <pt x="750" y="263" on="0"/>
        <pt x="730" y="264" on="1"/>
        <pt x="713" y="265" on="0"/>
        <pt x="673" y="266" on="0"/>
        <pt x="656" y="266" on="1"/>
        <pt x="583" y="260" on="1"/>
      </contour>
      <contour>
        <pt x="309" y="108" on="1"/>
        <pt x="371" y="108" on="0"/>
        <pt x="381" y="196" on="1"/>
        <pt x="412" y="439" on="1"/>
        <pt x="423" y="528" on="0"/>
        <pt x="344" y="528" on="1"/>
        <pt x="295" y="528" on="0"/>
        <pt x="245" y="381" on="0"/>
        <pt x="245" y="235" on="1"/>
        <pt x="245" y="166" on="0"/>
        <pt x="274" y="108" on="0"/>
      </contour>
    </TTGlyph>
    <TTGlyph name="Oacute" xMin="18" yMin="-12" xMax="638" yMax="875">
      <component glyphName="O" x="0" y="0" flags="0x204"/>
      <component glyphName="acute.cap" x="188" y="0" flags="0x4"/>
    </TTGlyph>
    <TTGlyph name="Obreve" xMin="18" yMin="-12" xMax="638" yMax="895">
      <component glyphName="O" x="0" y="0" flags="0x204"/>
      <component glyphName="breve" x="126" y="155" flags="0x4"/>
    </TTGlyph>
    <TTGlyph name="Ocircumflex" xMin="18" yMin="-12" xMax="638" yMax="910">
      <component glyphName="O" x="0" y="0" flags="0x204"/>
      <component glyphName="circumflex.cap" x="127" y="0" flags="0x4"/>
    </TTGlyph>
    <TTGlyph name="Odieresis" xMin="18" yMin="-12" xMax="638" yMax="862">
      <component glyphName="O" x="0" y="0" flags="0x204"/>
      <component glyphName="dieresis.cap" x="126" y="10" flags="0x4"/>
    </TTGlyph>
    <TTGlyph name="Ograve" xMin="18" yMin="-12" xMax="638" yMax="875">
      <component glyphName="O" x="0" y="0" flags="0x204"/>
      <component glyphName="grave.cap" x="229" y="0" flags="0x4"/>
    </TTGlyph>
    <TTGlyph name="Ohungarumlaut" xMin="18" yMin="-12" xMax="638" yMax="880">
      <component glyphName="O" x="0" y="0" flags="0x204"/>
      <component glyphName="hungarumlaut.cap" x="174" y="0" flags="0x4"/>
    </TTGlyph>
    <TTGlyph name="Omacron" xMin="18" yMin="-12" xMax="638" yMax="823">
      <component glyphName="O" x="0" y="0" flags="0x204"/>
      <component glyphName="macron.cap" x="125" y="0" flags="0x4"/>
    </TTGlyph>
    <TTGlyph name="Omega" xMin="-22" yMin="-7" xMax="839" yMax="659">
      <contour>
        <pt x="785" y="-3" on="1"/>
        <pt x="503" y="3" on="1"/>
        <pt x="430" y="-7" on="1"/>
        <pt x="413" y="74" on="1"/>
        <pt x="462" y="123" on="0"/>
        <pt x="516" y="283" on="0"/>
        <pt x="516" y="380" on="1"/>
        <pt x="516" y="456" on="0"/>
        <pt x="485" y="522" on="0"/>
        <pt x="450" y="522" on="1"/>
        <pt x="399" y="522" on="0"/>
        <pt x="354" y="391" on="0"/>
        <pt x="354" y="243" on="1"/>
        <pt x="354" y="186" on="0"/>
        <pt x="373" y="100" on="0"/>
        <pt x="392" y="74" on="1"/>
        <pt x="356" y="-7" on="1"/>
        <pt x="286" y="3" on="1"/>
        <pt x="-4" y="-3" on="1"/>
        <pt x="-22" y="19" on="1"/>
        <pt x="-17" y="54" on="0"/>
        <pt x="-9" y="133" on="0"/>
        <pt x="-5" y="167" on="1"/>
        <pt x="-1" y="207" on="0"/>
        <pt x="4" y="246" on="1"/>
        <pt x="111" y="255" on="1"/>
        <pt x="106" y="183" on="0"/>
        <pt x="132" y="117" on="0"/>
        <pt x="167" y="112" on="1"/>
        <pt x="216" y="103" on="1"/>
        <pt x="133" y="195" on="0"/>
        <pt x="133" y="327" on="1"/>
        <pt x="133" y="399" on="0"/>
        <pt x="184" y="521" on="0"/>
        <pt x="275" y="610" on="0"/>
        <pt x="400" y="659" on="0"/>
        <pt x="475" y="659" on="1"/>
        <pt x="537" y="659" on="0"/>
        <pt x="638" y="626" on="0"/>
        <pt x="710" y="565" on="0"/>
        <pt x="749" y="479" on="0"/>
        <pt x="749" y="426" on="1"/>
        <pt x="749" y="332" on="0"/>
        <pt x="670" y="174" on="0"/>
        <pt x="587" y="102" on="1"/>
        <pt x="642" y="112" on="1"/>
        <pt x="675" y="117" on="0"/>
        <pt x="717" y="178" on="0"/>
        <pt x="732" y="246" on="1"/>
        <pt x="839" y="255" on="1"/>
        <pt x="833" y="212" on="0"/>
        <pt x="828" y="171" on="1"/>
        <pt x="823" y="135" on="0"/>
        <pt x="813" y="54" on="0"/>
        <pt x="808" y="19" on="1"/>
      </contour>
    </TTGlyph>
    <TTGlyph name="Oslash" xMin="9" yMin="-117" xMax="642" yMax="752">
      <contour>
        <pt x="85" y="60" on="1"/>
        <pt x="53" y="94" on="0"/>
        <pt x="18" y="192" on="0"/>
        <pt x="18" y="256" on="1"/>
        <pt x="18" y="449" on="0"/>
        <pt x="198" y="659" on="0"/>
        <pt x="372" y="659" on="1"/>
        <pt x="427" y="659" on="0"/>
        <pt x="474" y="645" on="1"/>
        <pt x="543" y="752" on="1"/>
        <pt x="640" y="698" on="1"/>
        <pt x="642" y="685" on="1"/>
        <pt x="576" y="585" on="1"/>
        <pt x="638" y="517" on="0"/>
        <pt x="638" y="398" on="1"/>
        <pt x="638" y="302" on="0"/>
        <pt x="591" y="149" on="0"/>
        <pt x="501" y="44" on="0"/>
        <pt x="369" y="-12" on="0"/>
        <pt x="283" y="-12" on="1"/>
        <pt x="230" y="-12" on="0"/>
        <pt x="187" y="0" on="1"/>
        <pt x="108" y="-117" on="1"/>
        <pt x="13" y="-62" on="1"/>
        <pt x="9" y="-52" on="1"/>
      </contour>
      <contour>
        <pt x="310" y="114" on="1"/>
        <pt x="336" y="114" on="0"/>
        <pt x="373" y="146" on="0"/>
        <pt x="396" y="216" on="0"/>
        <pt x="407" y="325" on="0"/>
        <pt x="407" y="402" on="1"/>
        <pt x="407" y="464" on="0"/>
        <pt x="375" y="522" on="0"/>
        <pt x="342" y="522" on="1"/>
        <pt x="292" y="522" on="0"/>
        <pt x="247" y="387" on="0"/>
        <pt x="247" y="234" on="1"/>
        <pt x="247" y="172" on="0"/>
        <pt x="278" y="114" on="0"/>
      </contour>
    </TTGlyph>
    <TTGlyph name="Oslashacute" xMin="9" yMin="-117" xMax="642" yMax="885">
      <component glyphName="Oslash" x="0" y="0" flags="0x204"/>
      <component glyphName="acute.cap" x="163" y="10" flags="0x4"/>
    </TTGlyph>
    <TTGlyph name="Otilde" xMin="18" yMin="-12" xMax="638" yMax="888">
      <component glyphName="O" x="0" y="0" flags="0x204"/>
      <component glyphName="tilde.cap" x="125" y="0" flags="0x4"/>
    </TTGlyph>
    <TTGlyph name="P" xMin="-19" yMin="-9" xMax="635" yMax="653">
      <contour>
        <pt x="74" y="647" on="1"/>
        <pt x="214" y="647" on="1"/>
        <pt x="231" y="647" on="0"/>
        <pt x="287" y="648" on="0"/>
        <pt x="315" y="650" on="1"/>
        <pt x="348" y="651" on="0"/>
        <pt x="383" y="653" on="1"/>
        <pt x="460" y="653" on="0"/>
        <pt x="558" y="618" on="0"/>
        <pt x="614" y="564" on="0"/>
        <pt x="635" y="501" on="0"/>
        <pt x="635" y="473" on="1"/>
        <pt x="635" y="419" on="0"/>
        <pt x="588" y="323" on="0"/>
        <pt x="512" y="251" on="0"/>
        <pt x="412" y="208" on="0"/>
        <pt x="360" y="208" on="1"/>
        <pt x="277" y="208" on="1"/>
        <pt x="271" y="160" on="1"/>
        <pt x="266" y="119" on="0"/>
        <pt x="281" y="88" on="0"/>
        <pt x="311" y="88" on="1"/>
        <pt x="316" y="88" on="0"/>
        <pt x="326" y="88" on="0"/>
        <pt x="331" y="89" on="1"/>
        <pt x="336" y="89" on="0"/>
        <pt x="342" y="90" on="1"/>
        <pt x="346" y="82" on="1"/>
        <pt x="326" y="-4" on="1"/>
        <pt x="292" y="-3" on="0"/>
        <pt x="261" y="-2" on="1"/>
        <pt x="235" y="-1" on="0"/>
        <pt x="180" y="0" on="0"/>
        <pt x="164" y="0" on="1"/>
        <pt x="147" y="0" on="0"/>
        <pt x="86" y="-3" on="0"/>
        <pt x="56" y="-5" on="1"/>
        <pt x="21" y="-7" on="0"/>
        <pt x="-19" y="-9" on="1"/>
        <pt x="1" y="83" on="1"/>
        <pt x="37" y="89" on="0"/>
        <pt x="69" y="126" on="0"/>
        <pt x="74" y="168" on="1"/>
        <pt x="116" y="505" on="1"/>
        <pt x="120" y="536" on="0"/>
        <pt x="112" y="559" on="0"/>
        <pt x="98" y="559" on="1"/>
        <pt x="92" y="559" on="0"/>
        <pt x="80" y="558" on="0"/>
        <pt x="75" y="558" on="1"/>
        <pt x="69" y="557" on="0"/>
        <pt x="63" y="557" on="1"/>
        <pt x="55" y="569" on="1"/>
      </contour>
      <contour>
        <pt x="357" y="321" on="1"/>
        <pt x="395" y="335" on="0"/>
        <pt x="427" y="404" on="0"/>
        <pt x="427" y="452" on="1"/>
        <pt x="427" y="492" on="0"/>
        <pt x="386" y="528" on="0"/>
        <pt x="341" y="528" on="1"/>
        <pt x="331" y="528" on="0"/>
        <pt x="325" y="520" on="0"/>
        <pt x="323" y="506" on="1"/>
        <pt x="316" y="468" on="0"/>
        <pt x="301" y="379" on="0"/>
        <pt x="294" y="331" on="1"/>
      </contour>
    </TTGlyph>
    <TTGlyph name="Q" xMin="18" yMin="-242" xMax="759" yMax="659">
      <contour>
        <pt x="273" y="-12" on="1"/>
        <pt x="153" y="-9" on="0"/>
        <pt x="18" y="127" on="0"/>
        <pt x="18" y="256" on="1"/>
        <pt x="18" y="449" on="0"/>
        <pt x="198" y="659" on="0"/>
        <pt x="372" y="659" on="1"/>
        <pt x="500" y="659" on="0"/>
        <pt x="638" y="529" on="0"/>
        <pt x="638" y="398" on="1"/>
        <pt x="638" y="258" on="0"/>
        <pt x="542" y="66" on="0"/>
        <pt x="448" y="21" on="1"/>
        <pt x="448" y="18" on="1"/>
        <pt x="493" y="-24" on="0"/>
        <pt x="602" y="-72" on="0"/>
        <pt x="650" y="-72" on="1"/>
        <pt x="683" y="-72" on="0"/>
        <pt x="711" y="-67" on="1"/>
        <pt x="726" y="-65" on="0"/>
        <pt x="740" y="-62" on="1"/>
        <pt x="750" y="-73" on="1"/>
        <pt x="759" y="-141" on="1"/>
        <pt x="716" y="-170" on="0"/>
        <pt x="679" y="-192" on="1"/>
        <pt x="647" y="-211" on="0"/>
        <pt x="586" y="-242" on="0"/>
        <pt x="572" y="-242" on="1"/>
        <pt x="542" y="-242" on="0"/>
        <pt x="490" y="-225" on="0"/>
        <pt x="426" y="-175" on="0"/>
        <pt x="338" y="-85" on="0"/>
      </contour>
      <contour>
        <pt x="310" y="114" on="1"/>
        <pt x="336" y="114" on="0"/>
        <pt x="373" y="146" on="0"/>
        <pt x="396" y="216" on="0"/>
        <pt x="407" y="325" on="0"/>
        <pt x="407" y="402" on="1"/>
        <pt x="407" y="464" on="0"/>
        <pt x="375" y="522" on="0"/>
        <pt x="342" y="522" on="1"/>
        <pt x="292" y="522" on="0"/>
        <pt x="247" y="387" on="0"/>
        <pt x="247" y="234" on="1"/>
        <pt x="247" y="172" on="0"/>
        <pt x="278" y="114" on="0"/>
      </contour>
    </TTGlyph>
    <TTGlyph name="R" xMin="-19" yMin="-16" xMax="648" yMax="653">
      <contour>
        <pt x="279" y="228" on="1"/>
        <pt x="271" y="160" on="1"/>
        <pt x="268" y="137" on="0"/>
        <pt x="269" y="109" on="0"/>
        <pt x="281" y="94" on="0"/>
        <pt x="308" y="89" on="0"/>
        <pt x="331" y="88" on="1"/>
        <pt x="335" y="80" on="1"/>
        <pt x="315" y="-4" on="1"/>
        <pt x="280" y="-3" on="0"/>
        <pt x="249" y="-2" on="1"/>
        <pt x="223" y="-1" on="0"/>
        <pt x="168" y="0" on="0"/>
        <pt x="153" y="0" on="1"/>
        <pt x="125" y="0" on="0"/>
        <pt x="66" y="-3" on="0"/>
        <pt x="40" y="-5" on="1"/>
        <pt x="10" y="-7" on="0"/>
        <pt x="-19" y="-9" on="1"/>
        <pt x="1" y="83" on="1"/>
        <pt x="37" y="89" on="0"/>
        <pt x="69" y="125" on="0"/>
        <pt x="74" y="168" on="1"/>
        <pt x="117" y="515" on="1"/>
        <pt x="120" y="540" on="0"/>
        <pt x="112" y="559" on="0"/>
        <pt x="98" y="559" on="1"/>
        <pt x="92" y="559" on="0"/>
        <pt x="80" y="558" on="0"/>
        <pt x="75" y="558" on="1"/>
        <pt x="69" y="557" on="0"/>
        <pt x="63" y="557" on="1"/>
        <pt x="55" y="569" on="1"/>
        <pt x="75" y="648" on="1"/>
        <pt x="103" y="647" on="0"/>
        <pt x="129" y="647" on="1"/>
        <pt x="214" y="647" on="1"/>
        <pt x="232" y="647" on="0"/>
        <pt x="290" y="648" on="0"/>
        <pt x="319" y="650" on="1"/>
        <pt x="352" y="651" on="0"/>
        <pt x="388" y="653" on="1"/>
        <pt x="514" y="653" on="0"/>
        <pt x="648" y="571" on="0"/>
        <pt x="648" y="489" on="1"/>
        <pt x="648" y="356" on="0"/>
        <pt x="508" y="276" on="1"/>
        <pt x="553" y="172" on="1"/>
        <pt x="572" y="129" on="0"/>
        <pt x="615" y="84" on="0"/>
        <pt x="635" y="84" on="1"/>
        <pt x="644" y="68" on="1"/>
        <pt x="626" y="-5" on="1"/>
        <pt x="471" y="-16" on="1"/>
        <pt x="429" y="-16" on="0"/>
        <pt x="384" y="25" on="0"/>
        <pt x="371" y="75" on="1"/>
        <pt x="332" y="228" on="1"/>
      </contour>
      <contour>
        <pt x="369" y="344" on="1"/>
        <pt x="439" y="371" on="0"/>
        <pt x="439" y="458" on="1"/>
        <pt x="439" y="528" on="0"/>
        <pt x="342" y="528" on="1"/>
        <pt x="331" y="528" on="0"/>
        <pt x="325" y="520" on="0"/>
        <pt x="323" y="506" on="1"/>
        <pt x="317" y="471" on="0"/>
        <pt x="308" y="425" on="0"/>
        <pt x="303" y="392" on="0"/>
        <pt x="299" y="367" on="0"/>
        <pt x="297" y="354" on="1"/>
      </contour>
    </TTGlyph>
    <TTGlyph name="Racute" xMin="-19" yMin="-16" xMax="648" yMax="875">
      <component glyphName="R" x="0" y="0" flags="0x204"/>
      <component glyphName="acute.cap" x="172" y="0" flags="0x4"/>
    </TTGlyph>
    <TTGlyph name="Rcaron" xMin="-19" yMin="-16" xMax="648" yMax="895">
      <component glyphName="R" x="0" y="0" flags="0x204"/>
      <component glyphName="caron.cap" x="133" y="0" flags="0x4"/>
    </TTGlyph>
    <TTGlyph name="Rcommaaccent" xMin="-19" yMin="-345" xMax="648" yMax="653">
      <component glyphName="R" x="0" y="0" flags="0x204"/>
      <component glyphName="commaaccent" x="151" y="0" flags="0x4"/>
    </TTGlyph>
    <TTGlyph name="S" xMin="-13" yMin="-12" xMax="563" yMax="659">
      <contour>
        <pt x="195" y="-12" on="1"/>
        <pt x="151" y="-12" on="0"/>
        <pt x="79" y="1" on="0"/>
        <pt x="53" y="9" on="1"/>
        <pt x="22" y="19" on="0"/>
        <pt x="-3" y="31" on="1"/>
        <pt x="-13" y="49" on="1"/>
        <pt x="-4" y="78" on="0"/>
        <pt x="4" y="107" on="1"/>
        <pt x="11" y="132" on="0"/>
        <pt x="24" y="189" on="0"/>
        <pt x="29" y="214" on="1"/>
        <pt x="156" y="223" on="1"/>
        <pt x="151" y="175" on="0"/>
        <pt x="186" y="121" on="0"/>
        <pt x="227" y="121" on="1"/>
        <pt x="256" y="121" on="0"/>
        <pt x="292" y="146" on="0"/>
        <pt x="292" y="166" on="1"/>
        <pt x="292" y="179" on="0"/>
        <pt x="276" y="200" on="0"/>
        <pt x="248" y="219" on="0"/>
        <pt x="211" y="237" on="0"/>
        <pt x="191" y="246" on="1"/>
        <pt x="164" y="259" on="0"/>
        <pt x="110" y="289" on="0"/>
        <pt x="67" y="331" on="0"/>
        <pt x="39" y="387" on="0"/>
        <pt x="39" y="425" on="1"/>
        <pt x="39" y="478" on="0"/>
        <pt x="85" y="564" on="0"/>
        <pt x="169" y="626" on="0"/>
        <pt x="287" y="659" on="0"/>
        <pt x="360" y="659" on="1"/>
        <pt x="400" y="659" on="0"/>
        <pt x="471" y="650" on="0"/>
        <pt x="497" y="645" on="1"/>
        <pt x="528" y="639" on="0"/>
        <pt x="553" y="631" on="1"/>
        <pt x="563" y="609" on="1"/>
        <pt x="554" y="584" on="0"/>
        <pt x="546" y="556" on="1"/>
        <pt x="538" y="532" on="0"/>
        <pt x="523" y="469" on="0"/>
        <pt x="516" y="435" on="1"/>
        <pt x="398" y="427" on="1"/>
        <pt x="387" y="435" on="1"/>
        <pt x="387" y="442" on="0"/>
        <pt x="388" y="447" on="1"/>
        <pt x="389" y="452" on="0"/>
        <pt x="390" y="461" on="0"/>
        <pt x="390" y="463" on="1"/>
        <pt x="390" y="492" on="0"/>
        <pt x="357" y="521" on="0"/>
        <pt x="328" y="521" on="1"/>
        <pt x="300" y="521" on="0"/>
        <pt x="265" y="493" on="0"/>
        <pt x="265" y="472" on="1"/>
        <pt x="265" y="451" on="0"/>
        <pt x="304" y="421" on="0"/>
        <pt x="333" y="407" on="1"/>
        <pt x="361" y="393" on="0"/>
        <pt x="426" y="363" on="0"/>
        <pt x="482" y="320" on="0"/>
        <pt x="519" y="260" on="0"/>
        <pt x="519" y="216" on="1"/>
        <pt x="519" y="163" on="0"/>
        <pt x="474" y="78" on="0"/>
        <pt x="390" y="19" on="0"/>
        <pt x="270" y="-12" on="0"/>
      </contour>
    </TTGlyph>
    <TTGlyph name="Sacute" xMin="-13" yMin="-12" xMax="563" yMax="875">
      <component glyphName="S" x="0" y="0" flags="0x204"/>
      <component glyphName="acute.cap" x="147" y="0" flags="0x4"/>
    </TTGlyph>
    <TTGlyph name="Scaron" xMin="-13" yMin="-12" xMax="563" yMax="895">
      <component glyphName="S" x="0" y="0" flags="0x204"/>
      <component glyphName="caron.cap" x="98" y="0" flags="0x4"/>
    </TTGlyph>
    <TTGlyph name="Scedilla" xMin="-13" yMin="-243" xMax="563" yMax="659">
      <contour>
        <pt x="182" y="-12" on="1"/>
        <pt x="141" y="-11" on="0"/>
        <pt x="74" y="3" on="0"/>
        <pt x="49" y="11" on="1"/>
        <pt x="20" y="20" on="0"/>
        <pt x="-3" y="31" on="1"/>
        <pt x="-13" y="49" on="1"/>
        <pt x="-4" y="78" on="0"/>
        <pt x="4" y="107" on="1"/>
        <pt x="11" y="132" on="0"/>
        <pt x="24" y="189" on="0"/>
        <pt x="29" y="214" on="1"/>
        <pt x="156" y="223" on="1"/>
        <pt x="151" y="175" on="0"/>
        <pt x="186" y="121" on="0"/>
        <pt x="227" y="121" on="1"/>
        <pt x="256" y="121" on="0"/>
        <pt x="292" y="146" on="0"/>
        <pt x="292" y="166" on="1"/>
        <pt x="292" y="179" on="0"/>
        <pt x="276" y="200" on="0"/>
        <pt x="248" y="219" on="0"/>
        <pt x="211" y="237" on="0"/>
        <pt x="191" y="246" on="1"/>
        <pt x="164" y="259" on="0"/>
        <pt x="110" y="289" on="0"/>
        <pt x="67" y="331" on="0"/>
        <pt x="39" y="387" on="0"/>
        <pt x="39" y="425" on="1"/>
        <pt x="39" y="478" on="0"/>
        <pt x="85" y="564" on="0"/>
        <pt x="169" y="626" on="0"/>
        <pt x="287" y="659" on="0"/>
        <pt x="360" y="659" on="1"/>
        <pt x="400" y="659" on="0"/>
        <pt x="471" y="650" on="0"/>
        <pt x="497" y="645" on="1"/>
        <pt x="528" y="639" on="0"/>
        <pt x="553" y="631" on="1"/>
        <pt x="563" y="609" on="1"/>
        <pt x="554" y="584" on="0"/>
        <pt x="546" y="556" on="1"/>
        <pt x="538" y="532" on="0"/>
        <pt x="523" y="469" on="0"/>
        <pt x="516" y="435" on="1"/>
        <pt x="398" y="427" on="1"/>
        <pt x="387" y="435" on="1"/>
        <pt x="387" y="442" on="0"/>
        <pt x="388" y="447" on="1"/>
        <pt x="389" y="452" on="0"/>
        <pt x="390" y="461" on="0"/>
        <pt x="390" y="463" on="1"/>
        <pt x="390" y="492" on="0"/>
        <pt x="357" y="521" on="0"/>
        <pt x="328" y="521" on="1"/>
        <pt x="300" y="521" on="0"/>
        <pt x="265" y="493" on="0"/>
        <pt x="265" y="472" on="1"/>
        <pt x="265" y="451" on="0"/>
        <pt x="304" y="421" on="0"/>
        <pt x="333" y="407" on="1"/>
        <pt x="361" y="393" on="0"/>
        <pt x="426" y="363" on="0"/>
        <pt x="482" y="320" on="0"/>
        <pt x="519" y="260" on="0"/>
        <pt x="519" y="216" on="1"/>
        <pt x="519" y="119" on="0"/>
        <pt x="375" y="1" on="0"/>
        <pt x="247" y="-10" on="1"/>
        <pt x="239" y="-37" on="1"/>
        <pt x="253" y="-44" on="0"/>
        <pt x="286" y="-65" on="0"/>
        <pt x="315" y="-92" on="0"/>
        <pt x="335" y="-122" on="0"/>
        <pt x="335" y="-138" on="1"/>
        <pt x="335" y="-159" on="0"/>
        <pt x="309" y="-198" on="0"/>
        <pt x="266" y="-226" on="0"/>
        <pt x="207" y="-243" on="0"/>
        <pt x="174" y="-243" on="1"/>
        <pt x="160" y="-243" on="0"/>
        <pt x="131" y="-236" on="0"/>
        <pt x="107" y="-223" on="0"/>
        <pt x="92" y="-204" on="0"/>
        <pt x="92" y="-192" on="1"/>
        <pt x="92" y="-186" on="0"/>
        <pt x="104" y="-167" on="0"/>
        <pt x="123" y="-146" on="0"/>
        <pt x="144" y="-126" on="0"/>
        <pt x="153" y="-118" on="1"/>
        <pt x="161" y="-118" on="1"/>
        <pt x="159" y="-146" on="0"/>
        <pt x="181" y="-174" on="0"/>
        <pt x="201" y="-174" on="1"/>
        <pt x="232" y="-174" on="0"/>
        <pt x="232" y="-150" on="1"/>
        <pt x="232" y="-143" on="0"/>
        <pt x="218" y="-126" on="0"/>
        <pt x="195" y="-110" on="0"/>
        <pt x="168" y="-94" on="0"/>
        <pt x="155" y="-87" on="1"/>
      </contour>
    </TTGlyph>
    <TTGlyph name="Scircumflex" xMin="-13" yMin="-12" xMax="563" yMax="934">
      <component glyphName="S" x="0" y="0" flags="0x204"/>
      <component glyphName="circumflex" x="104" y="174" flags="0x4"/>
    </TTGlyph>
    <TTGlyph name="Scommaaccent" xMin="-13" yMin="-345" xMax="563" yMax="659">
      <component glyphName="S" x="0" y="0" flags="0x204"/>
      <component glyphName="commaaccent" x="66" y="0" flags="0x4"/>
    </TTGlyph>
    <TTGlyph name="T" xMin="17" yMin="-9" xMax="624" yMax="658">
      <contour>
        <pt x="225" y="526" on="1"/>
        <pt x="207" y="526" on="0"/>
        <pt x="183" y="515" on="0"/>
        <pt x="165" y="485" on="0"/>
        <pt x="151" y="432" on="0"/>
        <pt x="143" y="390" on="1"/>
        <pt x="17" y="382" on="1"/>
        <pt x="24" y="425" on="0"/>
        <pt x="31" y="470" on="1"/>
        <pt x="37" y="508" on="0"/>
        <pt x="51" y="601" on="0"/>
        <pt x="57" y="644" on="1"/>
        <pt x="72" y="658" on="1"/>
        <pt x="187" y="647" on="1"/>
        <pt x="492" y="647" on="1"/>
        <pt x="613" y="658" on="1"/>
        <pt x="624" y="644" on="1"/>
        <pt x="619" y="599" on="0"/>
        <pt x="609" y="510" on="0"/>
        <pt x="605" y="473" on="1"/>
        <pt x="601" y="430" on="0"/>
        <pt x="597" y="390" on="1"/>
        <pt x="472" y="382" on="1"/>
        <pt x="474" y="428" on="0"/>
        <pt x="475" y="485" on="0"/>
        <pt x="466" y="516" on="0"/>
        <pt x="446" y="526" on="0"/>
        <pt x="428" y="526" on="1"/>
        <pt x="424" y="501" on="0"/>
        <pt x="414" y="430" on="0"/>
        <pt x="402" y="350" on="0"/>
        <pt x="391" y="269" on="0"/>
        <pt x="382" y="200" on="0"/>
        <pt x="377" y="150" on="0"/>
        <pt x="377" y="141" on="1"/>
        <pt x="377" y="114" on="0"/>
        <pt x="397" y="91" on="0"/>
        <pt x="420" y="91" on="1"/>
        <pt x="429" y="91" on="0"/>
        <pt x="446" y="91" on="0"/>
        <pt x="454" y="92" on="1"/>
        <pt x="462" y="93" on="0"/>
        <pt x="470" y="94" on="1"/>
        <pt x="474" y="88" on="1"/>
        <pt x="454" y="-6" on="1"/>
        <pt x="413" y="-5" on="0"/>
        <pt x="375" y="-3" on="1"/>
        <pt x="343" y="-2" on="0"/>
        <pt x="276" y="0" on="0"/>
        <pt x="255" y="0" on="1"/>
        <pt x="231" y="0" on="0"/>
        <pt x="163" y="-3" on="0"/>
        <pt x="131" y="-5" on="1"/>
        <pt x="94" y="-7" on="0"/>
        <pt x="55" y="-9" on="1"/>
        <pt x="74" y="83" on="1"/>
        <pt x="104" y="86" on="0"/>
        <pt x="143" y="95" on="0"/>
        <pt x="166" y="114" on="0"/>
        <pt x="178" y="145" on="0"/>
        <pt x="181" y="168" on="1"/>
      </contour>
    </TTGlyph>
    <TTGlyph name="Tbar" xMin="17" yMin="-9" xMax="624" yMax="658">
      <contour>
        <pt x="190" y="241" on="1"/>
        <pt x="112" y="241" on="1"/>
        <pt x="101" y="251" on="1"/>
        <pt x="109" y="309" on="1"/>
        <pt x="198" y="308" on="1"/>
        <pt x="225" y="526" on="1"/>
        <pt x="207" y="526" on="0"/>
        <pt x="183" y="515" on="0"/>
        <pt x="165" y="485" on="0"/>
        <pt x="151" y="432" on="0"/>
        <pt x="143" y="390" on="1"/>
        <pt x="17" y="382" on="1"/>
        <pt x="24" y="425" on="0"/>
        <pt x="31" y="470" on="1"/>
        <pt x="37" y="508" on="0"/>
        <pt x="51" y="601" on="0"/>
        <pt x="57" y="644" on="1"/>
        <pt x="72" y="658" on="1"/>
        <pt x="187" y="647" on="1"/>
        <pt x="492" y="647" on="1"/>
        <pt x="613" y="658" on="1"/>
        <pt x="624" y="644" on="1"/>
        <pt x="619" y="599" on="0"/>
        <pt x="609" y="510" on="0"/>
        <pt x="605" y="473" on="1"/>
        <pt x="601" y="430" on="0"/>
        <pt x="597" y="390" on="1"/>
        <pt x="472" y="382" on="1"/>
        <pt x="474" y="428" on="0"/>
        <pt x="475" y="485" on="0"/>
        <pt x="466" y="516" on="0"/>
        <pt x="446" y="526" on="0"/>
        <pt x="428" y="526" on="1"/>
        <pt x="422" y="488" on="0"/>
        <pt x="404" y="370" on="0"/>
        <pt x="396" y="310" on="1"/>
        <pt x="469" y="312" on="1"/>
        <pt x="484" y="297" on="1"/>
        <pt x="479" y="242" on="1"/>
        <pt x="387" y="242" on="1"/>
        <pt x="382" y="204" on="0"/>
        <pt x="377" y="150" on="0"/>
        <pt x="377" y="141" on="1"/>
        <pt x="377" y="114" on="0"/>
        <pt x="397" y="91" on="0"/>
        <pt x="420" y="91" on="1"/>
        <pt x="429" y="91" on="0"/>
        <pt x="446" y="91" on="0"/>
        <pt x="454" y="92" on="1"/>
        <pt x="462" y="93" on="0"/>
        <pt x="470" y="94" on="1"/>
        <pt x="474" y="88" on="1"/>
        <pt x="454" y="-6" on="1"/>
        <pt x="413" y="-5" on="0"/>
        <pt x="375" y="-3" on="1"/>
        <pt x="343" y="-2" on="0"/>
        <pt x="276" y="0" on="0"/>
        <pt x="255" y="0" on="1"/>
        <pt x="231" y="0" on="0"/>
        <pt x="163" y="-3" on="0"/>
        <pt x="131" y="-5" on="1"/>
        <pt x="94" y="-7" on="0"/>
        <pt x="55" y="-9" on="1"/>
        <pt x="74" y="83" on="1"/>
        <pt x="104" y="86" on="0"/>
        <pt x="143" y="95" on="0"/>
        <pt x="166" y="114" on="0"/>
        <pt x="178" y="145" on="0"/>
        <pt x="181" y="168" on="1"/>
      </contour>
    </TTGlyph>
    <TTGlyph name="Tcaron" xMin="17" yMin="-9" xMax="624" yMax="895">
      <component glyphName="T" x="0" y="0" flags="0x204"/>
      <component glyphName="caron.cap" x="101" y="0" flags="0x4"/>
    </TTGlyph>
    <TTGlyph name="Tcedilla" xMin="17" yMin="-243" xMax="624" yMax="658">
      <contour>
        <pt x="225" y="0" on="1"/>
        <pt x="199" y="-1" on="0"/>
        <pt x="140" y="-3" on="0"/>
        <pt x="114" y="-5" on="1"/>
        <pt x="84" y="-7" on="0"/>
        <pt x="55" y="-9" on="1"/>
        <pt x="74" y="83" on="1"/>
        <pt x="104" y="86" on="0"/>
        <pt x="143" y="95" on="0"/>
        <pt x="166" y="114" on="0"/>
        <pt x="178" y="145" on="0"/>
        <pt x="181" y="168" on="1"/>
        <pt x="225" y="526" on="1"/>
        <pt x="207" y="526" on="0"/>
        <pt x="183" y="515" on="0"/>
        <pt x="165" y="485" on="0"/>
        <pt x="151" y="432" on="0"/>
        <pt x="143" y="390" on="1"/>
        <pt x="17" y="382" on="1"/>
        <pt x="24" y="425" on="0"/>
        <pt x="31" y="470" on="1"/>
        <pt x="37" y="508" on="0"/>
        <pt x="51" y="601" on="0"/>
        <pt x="57" y="644" on="1"/>
        <pt x="72" y="658" on="1"/>
        <pt x="187" y="647" on="1"/>
        <pt x="492" y="647" on="1"/>
        <pt x="613" y="658" on="1"/>
        <pt x="624" y="644" on="1"/>
        <pt x="619" y="599" on="0"/>
        <pt x="609" y="510" on="0"/>
        <pt x="605" y="473" on="1"/>
        <pt x="601" y="430" on="0"/>
        <pt x="597" y="390" on="1"/>
        <pt x="472" y="382" on="1"/>
        <pt x="474" y="428" on="0"/>
        <pt x="475" y="485" on="0"/>
        <pt x="466" y="516" on="0"/>
        <pt x="446" y="526" on="0"/>
        <pt x="428" y="526" on="1"/>
        <pt x="424" y="501" on="0"/>
        <pt x="414" y="430" on="0"/>
        <pt x="402" y="350" on="0"/>
        <pt x="391" y="269" on="0"/>
        <pt x="382" y="200" on="0"/>
        <pt x="377" y="150" on="0"/>
        <pt x="377" y="141" on="1"/>
        <pt x="377" y="114" on="0"/>
        <pt x="397" y="91" on="0"/>
        <pt x="420" y="91" on="1"/>
        <pt x="429" y="91" on="0"/>
        <pt x="446" y="91" on="0"/>
        <pt x="454" y="92" on="1"/>
        <pt x="462" y="93" on="0"/>
        <pt x="470" y="94" on="1"/>
        <pt x="474" y="88" on="1"/>
        <pt x="454" y="-6" on="1"/>
        <pt x="425" y="-5" on="0"/>
        <pt x="396" y="-4" on="1"/>
        <pt x="371" y="-3" on="0"/>
        <pt x="314" y="-1" on="0"/>
        <pt x="289" y="0" on="1"/>
        <pt x="278" y="-37" on="1"/>
        <pt x="292" y="-44" on="0"/>
        <pt x="325" y="-65" on="0"/>
        <pt x="354" y="-92" on="0"/>
        <pt x="374" y="-122" on="0"/>
        <pt x="374" y="-138" on="1"/>
        <pt x="374" y="-159" on="0"/>
        <pt x="348" y="-198" on="0"/>
        <pt x="305" y="-226" on="0"/>
        <pt x="246" y="-243" on="0"/>
        <pt x="213" y="-243" on="1"/>
        <pt x="199" y="-243" on="0"/>
        <pt x="170" y="-236" on="0"/>
        <pt x="146" y="-223" on="0"/>
        <pt x="131" y="-204" on="0"/>
        <pt x="131" y="-192" on="1"/>
        <pt x="131" y="-186" on="0"/>
        <pt x="143" y="-167" on="0"/>
        <pt x="162" y="-146" on="0"/>
        <pt x="183" y="-126" on="0"/>
        <pt x="192" y="-118" on="1"/>
        <pt x="200" y="-118" on="1"/>
        <pt x="198" y="-146" on="0"/>
        <pt x="220" y="-174" on="0"/>
        <pt x="240" y="-174" on="1"/>
        <pt x="271" y="-174" on="0"/>
        <pt x="271" y="-150" on="1"/>
        <pt x="271" y="-143" on="0"/>
        <pt x="257" y="-126" on="0"/>
        <pt x="234" y="-110" on="0"/>
        <pt x="207" y="-94" on="0"/>
        <pt x="194" y="-87" on="1"/>
      </contour>
    </TTGlyph>
    <TTGlyph name="Thorn" xMin="-17" yMin="-5" xMax="605" yMax="652">
      <contour>
        <pt x="324" y="522" on="1"/>
        <pt x="390" y="522" on="1"/>
        <pt x="500" y="522" on="0"/>
        <pt x="605" y="442" on="0"/>
        <pt x="605" y="360" on="1"/>
        <pt x="605" y="310" on="0"/>
        <pt x="565" y="228" on="0"/>
        <pt x="493" y="170" on="0"/>
        <pt x="395" y="139" on="0"/>
        <pt x="337" y="139" on="1"/>
        <pt x="268" y="139" on="1"/>
        <pt x="265" y="116" on="1"/>
        <pt x="263" y="98" on="0"/>
        <pt x="274" y="87" on="0"/>
        <pt x="292" y="87" on="1"/>
        <pt x="303" y="87" on="0"/>
        <pt x="318" y="87" on="0"/>
        <pt x="323" y="88" on="1"/>
        <pt x="329" y="89" on="0"/>
        <pt x="333" y="90" on="1"/>
        <pt x="340" y="80" on="1"/>
        <pt x="321" y="-4" on="1"/>
        <pt x="283" y="-3" on="0"/>
        <pt x="250" y="-2" on="1"/>
        <pt x="221" y="-1" on="0"/>
        <pt x="164" y="0" on="0"/>
        <pt x="147" y="0" on="1"/>
        <pt x="124" y="0" on="0"/>
        <pt x="67" y="-2" on="0"/>
        <pt x="42" y="-3" on="1"/>
        <pt x="13" y="-4" on="0"/>
        <pt x="-17" y="-5" on="1"/>
        <pt x="1" y="80" on="1"/>
        <pt x="20" y="84" on="0"/>
        <pt x="46" y="95" on="0"/>
        <pt x="62" y="113" on="0"/>
        <pt x="71" y="141" on="0"/>
        <pt x="73" y="162" on="1"/>
        <pt x="116" y="508" on="1"/>
        <pt x="120" y="539" on="0"/>
        <pt x="108" y="559" on="0"/>
        <pt x="88" y="559" on="1"/>
        <pt x="84" y="559" on="0"/>
        <pt x="76" y="558" on="0"/>
        <pt x="72" y="558" on="1"/>
        <pt x="64" y="558" on="1"/>
        <pt x="56" y="572" on="1"/>
        <pt x="73" y="647" on="1"/>
        <pt x="232" y="647" on="1"/>
        <pt x="247" y="647" on="0"/>
        <pt x="304" y="648" on="0"/>
        <pt x="332" y="649" on="1"/>
        <pt x="365" y="650" on="0"/>
        <pt x="402" y="652" on="1"/>
        <pt x="384" y="562" on="1"/>
        <pt x="366" y="558" on="0"/>
        <pt x="344" y="553" on="0"/>
        <pt x="332" y="545" on="0"/>
        <pt x="326" y="535" on="0"/>
        <pt x="325" y="527" on="1"/>
      </contour>
      <contour>
        <pt x="301" y="385" on="1"/>
        <pt x="300" y="375" on="0"/>
        <pt x="295" y="342" on="0"/>
        <pt x="290" y="305" on="0"/>
        <pt x="285" y="269" on="0"/>
        <pt x="284" y="256" on="1"/>
        <pt x="303" y="251" on="0"/>
        <pt x="335" y="246" on="0"/>
        <pt x="342" y="246" on="1"/>
        <pt x="371" y="254" on="0"/>
        <pt x="398" y="307" on="0"/>
        <pt x="398" y="344" on="1"/>
        <pt x="398" y="377" on="0"/>
        <pt x="361" y="407" on="0"/>
        <pt x="323" y="407" on="1"/>
        <pt x="304" y="407" on="0"/>
      </contour>
    </TTGlyph>
    <TTGlyph name="U" xMin="38" yMin="-12" xMax="659" yMax="651">
      <contour>
        <pt x="251" y="220" on="1"/>
        <pt x="250" y="213" on="0"/>
        <pt x="249" y="197" on="0"/>
        <pt x="249" y="192" on="1"/>
        <pt x="247" y="115" on="0"/>
        <pt x="308" y="115" on="1"/>
        <pt x="343" y="115" on="0"/>
        <pt x="377" y="155" on="0"/>
        <pt x="384" y="203" on="1"/>
        <pt x="385" y="215" on="0"/>
        <pt x="390" y="253" on="0"/>
        <pt x="396" y="299" on="0"/>
        <pt x="402" y="351" on="0"/>
        <pt x="405" y="377" on="1"/>
        <pt x="412" y="437" on="0"/>
        <pt x="420" y="505" on="1"/>
        <pt x="424" y="537" on="0"/>
        <pt x="416" y="559" on="0"/>
        <pt x="402" y="559" on="1"/>
        <pt x="398" y="559" on="0"/>
        <pt x="391" y="558" on="0"/>
        <pt x="388" y="558" on="1"/>
        <pt x="384" y="557" on="0"/>
        <pt x="381" y="557" on="1"/>
        <pt x="378" y="561" on="1"/>
        <pt x="400" y="650" on="1"/>
        <pt x="423" y="649" on="0"/>
        <pt x="445" y="648" on="1"/>
        <pt x="464" y="647" on="0"/>
        <pt x="502" y="647" on="0"/>
        <pt x="516" y="647" on="1"/>
        <pt x="539" y="647" on="0"/>
        <pt x="589" y="647" on="0"/>
        <pt x="610" y="648" on="1"/>
        <pt x="635" y="649" on="0"/>
        <pt x="659" y="650" on="1"/>
        <pt x="640" y="560" on="1"/>
        <pt x="624" y="555" on="0"/>
        <pt x="605" y="546" on="0"/>
        <pt x="595" y="537" on="0"/>
        <pt x="590" y="525" on="0"/>
        <pt x="589" y="516" on="1"/>
        <pt x="554" y="234" on="1"/>
        <pt x="537" y="109" on="0"/>
        <pt x="401" y="-12" on="0"/>
        <pt x="274" y="-12" on="1"/>
        <pt x="158" y="-12" on="0"/>
        <pt x="47" y="71" on="0"/>
        <pt x="47" y="159" on="1"/>
        <pt x="47" y="178" on="0"/>
        <pt x="50" y="199" on="1"/>
        <pt x="88" y="505" on="1"/>
        <pt x="92" y="539" on="0"/>
        <pt x="85" y="559" on="0"/>
        <pt x="68" y="559" on="1"/>
        <pt x="64" y="559" on="0"/>
        <pt x="55" y="558" on="0"/>
        <pt x="50" y="558" on="1"/>
        <pt x="45" y="557" on="0"/>
        <pt x="40" y="557" on="1"/>
        <pt x="38" y="561" on="1"/>
        <pt x="59" y="650" on="1"/>
        <pt x="87" y="649" on="0"/>
        <pt x="117" y="648" on="1"/>
        <pt x="143" y="647" on="0"/>
        <pt x="204" y="647" on="0"/>
        <pt x="233" y="647" on="1"/>
        <pt x="247" y="647" on="0"/>
        <pt x="292" y="648" on="0"/>
        <pt x="313" y="649" on="1"/>
        <pt x="338" y="650" on="0"/>
        <pt x="365" y="651" on="1"/>
        <pt x="344" y="558" on="1"/>
        <pt x="318" y="555" on="0"/>
        <pt x="295" y="533" on="0"/>
        <pt x="292" y="509" on="1"/>
      </contour>
    </TTGlyph>
    <TTGlyph name="Uacute" xMin="38" yMin="-12" xMax="659" yMax="875">
      <component glyphName="U" x="0" y="0" flags="0x204"/>
      <component glyphName="acute.cap" x="182" y="0" flags="0x4"/>
    </TTGlyph>
    <TTGlyph name="Ubreve" xMin="38" yMin="-12" xMax="659" yMax="905">
      <component glyphName="U" x="0" y="0" flags="0x204"/>
      <component glyphName="breve" x="134" y="165" flags="0x4"/>
    </TTGlyph>
    <TTGlyph name="Ucircumflex" xMin="38" yMin="-12" xMax="659" yMax="910">
      <component glyphName="U" x="0" y="0" flags="0x204"/>
      <component glyphName="circumflex.cap" x="135" y="0" flags="0x4"/>
    </TTGlyph>
    <TTGlyph name="Udieresis" xMin="38" yMin="-12" xMax="659" yMax="862">
      <component glyphName="U" x="0" y="0" flags="0x204"/>
      <component glyphName="dieresis.cap" x="134" y="10" flags="0x4"/>
    </TTGlyph>
    <TTGlyph name="Ugrave" xMin="38" yMin="-12" xMax="659" yMax="875">
      <component glyphName="U" x="0" y="0" flags="0x204"/>
      <component glyphName="grave.cap" x="221" y="0" flags="0x4"/>
    </TTGlyph>
    <TTGlyph name="Uhungarumlaut" xMin="38" yMin="-12" xMax="659" yMax="880">
      <component glyphName="U" x="0" y="0" flags="0x204"/>
      <component glyphName="hungarumlaut.cap" x="182" y="0" flags="0x4"/>
    </TTGlyph>
    <TTGlyph name="Umacron" xMin="38" yMin="-12" xMax="659" yMax="823">
      <component glyphName="U" x="0" y="0" flags="0x204"/>
      <component glyphName="macron.cap" x="133" y="0" flags="0x4"/>
    </TTGlyph>
    <TTGlyph name="Uogonek" xMin="38" yMin="-242" xMax="659" yMax="651">
      <contour>
        <pt x="482" y="-170" on="1"/>
        <pt x="463" y="-185" on="0"/>
        <pt x="445" y="-199" on="1"/>
        <pt x="428" y="-211" on="0"/>
        <pt x="390" y="-235" on="0"/>
        <pt x="372" y="-242" on="1"/>
        <pt x="316" y="-242" on="0"/>
        <pt x="254" y="-200" on="0"/>
        <pt x="254" y="-162" on="1"/>
        <pt x="254" y="-127" on="0"/>
        <pt x="293" y="-59" on="0"/>
        <pt x="344" y="-6" on="1"/>
        <pt x="312" y="-12" on="0"/>
        <pt x="274" y="-12" on="1"/>
        <pt x="158" y="-12" on="0"/>
        <pt x="47" y="71" on="0"/>
        <pt x="47" y="159" on="1"/>
        <pt x="47" y="178" on="0"/>
        <pt x="50" y="199" on="1"/>
        <pt x="88" y="505" on="1"/>
        <pt x="92" y="539" on="0"/>
        <pt x="85" y="559" on="0"/>
        <pt x="68" y="559" on="1"/>
        <pt x="64" y="559" on="0"/>
        <pt x="55" y="558" on="0"/>
        <pt x="50" y="558" on="1"/>
        <pt x="45" y="557" on="0"/>
        <pt x="40" y="557" on="1"/>
        <pt x="38" y="561" on="1"/>
        <pt x="59" y="650" on="1"/>
        <pt x="87" y="649" on="0"/>
        <pt x="117" y="648" on="1"/>
        <pt x="143" y="647" on="0"/>
        <pt x="204" y="647" on="0"/>
        <pt x="233" y="647" on="1"/>
        <pt x="247" y="647" on="0"/>
        <pt x="292" y="648" on="0"/>
        <pt x="313" y="649" on="1"/>
        <pt x="338" y="650" on="0"/>
        <pt x="365" y="651" on="1"/>
        <pt x="344" y="558" on="1"/>
        <pt x="318" y="555" on="0"/>
        <pt x="295" y="533" on="0"/>
        <pt x="292" y="509" on="1"/>
        <pt x="251" y="220" on="1"/>
        <pt x="250" y="212" on="0"/>
        <pt x="249" y="196" on="0"/>
        <pt x="249" y="192" on="1"/>
        <pt x="247" y="115" on="0"/>
        <pt x="308" y="115" on="1"/>
        <pt x="343" y="115" on="0"/>
        <pt x="377" y="155" on="0"/>
        <pt x="384" y="203" on="1"/>
        <pt x="385" y="215" on="0"/>
        <pt x="390" y="253" on="0"/>
        <pt x="396" y="299" on="0"/>
        <pt x="402" y="351" on="0"/>
        <pt x="405" y="377" on="1"/>
        <pt x="412" y="437" on="0"/>
        <pt x="420" y="505" on="1"/>
        <pt x="424" y="537" on="0"/>
        <pt x="416" y="559" on="0"/>
        <pt x="402" y="559" on="1"/>
        <pt x="398" y="559" on="0"/>
        <pt x="391" y="558" on="0"/>
        <pt x="388" y="558" on="1"/>
        <pt x="384" y="557" on="0"/>
        <pt x="381" y="557" on="1"/>
        <pt x="378" y="561" on="1"/>
        <pt x="400" y="650" on="1"/>
        <pt x="423" y="649" on="0"/>
        <pt x="445" y="648" on="1"/>
        <pt x="464" y="647" on="0"/>
        <pt x="502" y="647" on="0"/>
        <pt x="516" y="647" on="1"/>
        <pt x="539" y="647" on="0"/>
        <pt x="589" y="647" on="0"/>
        <pt x="610" y="648" on="1"/>
        <pt x="635" y="649" on="0"/>
        <pt x="659" y="650" on="1"/>
        <pt x="640" y="560" on="1"/>
        <pt x="624" y="555" on="0"/>
        <pt x="605" y="546" on="0"/>
        <pt x="595" y="537" on="0"/>
        <pt x="590" y="525" on="0"/>
        <pt x="589" y="516" on="1"/>
        <pt x="554" y="234" on="1"/>
        <pt x="546" y="177" on="0"/>
        <pt x="502" y="81" on="0"/>
        <pt x="461" y="35" on="1"/>
        <pt x="410" y="-23" on="0"/>
        <pt x="362" y="-98" on="0"/>
        <pt x="362" y="-121" on="1"/>
        <pt x="362" y="-136" on="0"/>
        <pt x="380" y="-155" on="0"/>
        <pt x="395" y="-155" on="1"/>
        <pt x="406" y="-155" on="0"/>
        <pt x="428" y="-148" on="0"/>
        <pt x="438" y="-143" on="1"/>
        <pt x="449" y="-138" on="0"/>
        <pt x="461" y="-130" on="1"/>
      </contour>
    </TTGlyph>
    <TTGlyph name="Uring" xMin="38" yMin="-12" xMax="659" yMax="892">
      <component glyphName="U" x="0" y="0" flags="0x204"/>
      <component glyphName="ring.cap" x="134" y="0" flags="0x4"/>
    </TTGlyph>
    <TTGlyph name="Utilde" xMin="38" yMin="-12" xMax="659" yMax="913">
      <component glyphName="U" x="0" y="0" flags="0x204"/>
      <component glyphName="tilde.cap" x="132" y="25" flags="0x4"/>
    </TTGlyph>
    <TTGlyph name="V" xMin="36" yMin="-13" xMax="680" yMax="652">
      <contour>
        <pt x="85" y="493" on="1"/>
        <pt x="80" y="527" on="0"/>
        <pt x="62" y="557" on="0"/>
        <pt x="42" y="560" on="1"/>
        <pt x="36" y="570" on="1"/>
        <pt x="54" y="649" on="1"/>
        <pt x="77" y="648" on="0"/>
        <pt x="101" y="648" on="1"/>
        <pt x="121" y="647" on="0"/>
        <pt x="168" y="647" on="0"/>
        <pt x="188" y="647" on="1"/>
        <pt x="223" y="647" on="0"/>
        <pt x="291" y="648" on="0"/>
        <pt x="317" y="649" on="1"/>
        <pt x="348" y="650" on="0"/>
        <pt x="376" y="652" on="1"/>
        <pt x="382" y="643" on="1"/>
        <pt x="366" y="559" on="1"/>
        <pt x="325" y="554" on="0"/>
        <pt x="300" y="533" on="0"/>
        <pt x="300" y="507" on="1"/>
        <pt x="300" y="491" on="0"/>
        <pt x="300" y="445" on="0"/>
        <pt x="301" y="392" on="0"/>
        <pt x="302" y="334" on="0"/>
        <pt x="303" y="306" on="1"/>
        <pt x="304" y="241" on="0"/>
        <pt x="306" y="168" on="1"/>
        <pt x="328" y="168" on="1"/>
        <pt x="333" y="182" on="0"/>
        <pt x="355" y="243" on="0"/>
        <pt x="382" y="319" on="0"/>
        <pt x="410" y="402" on="0"/>
        <pt x="434" y="475" on="0"/>
        <pt x="449" y="529" on="0"/>
        <pt x="449" y="537" on="1"/>
        <pt x="449" y="547" on="0"/>
        <pt x="438" y="557" on="0"/>
        <pt x="423" y="557" on="1"/>
        <pt x="399" y="557" on="1"/>
        <pt x="392" y="567" on="1"/>
        <pt x="410" y="650" on="1"/>
        <pt x="437" y="649" on="0"/>
        <pt x="463" y="648" on="1"/>
        <pt x="486" y="647" on="0"/>
        <pt x="537" y="647" on="0"/>
        <pt x="560" y="647" on="1"/>
        <pt x="641" y="647" on="1"/>
        <pt x="661" y="647" on="0"/>
        <pt x="680" y="648" on="1"/>
        <pt x="663" y="561" on="1"/>
        <pt x="646" y="556" on="0"/>
        <pt x="629" y="535" on="0"/>
        <pt x="617" y="506" on="1"/>
        <pt x="418" y="4" on="1"/>
        <pt x="138" y="-13" on="1"/>
        <pt x="127" y="100" on="0"/>
        <pt x="116" y="199" on="1"/>
        <pt x="111" y="241" on="0"/>
        <pt x="102" y="329" on="0"/>
        <pt x="94" y="408" on="0"/>
        <pt x="87" y="473" on="0"/>
      </contour>
    </TTGlyph>
    <TTGlyph name="W" xMin="36" yMin="-13" xMax="1028" yMax="652">
      <contour>
        <pt x="508" y="-13" on="1"/>
        <pt x="502" y="272" on="1"/>
        <pt x="488" y="272" on="1"/>
        <pt x="401" y="4" on="1"/>
        <pt x="131" y="-13" on="1"/>
        <pt x="121" y="100" on="0"/>
        <pt x="111" y="199" on="1"/>
        <pt x="107" y="241" on="0"/>
        <pt x="98" y="329" on="0"/>
        <pt x="91" y="408" on="0"/>
        <pt x="85" y="473" on="0"/>
        <pt x="83" y="493" on="1"/>
        <pt x="76" y="528" on="0"/>
        <pt x="59" y="556" on="0"/>
        <pt x="42" y="560" on="1"/>
        <pt x="36" y="570" on="1"/>
        <pt x="55" y="649" on="1"/>
        <pt x="77" y="648" on="0"/>
        <pt x="100" y="648" on="1"/>
        <pt x="120" y="647" on="0"/>
        <pt x="163" y="647" on="0"/>
        <pt x="183" y="647" on="1"/>
        <pt x="216" y="647" on="0"/>
        <pt x="281" y="648" on="0"/>
        <pt x="307" y="649" on="1"/>
        <pt x="337" y="650" on="0"/>
        <pt x="364" y="652" on="1"/>
        <pt x="370" y="643" on="1"/>
        <pt x="353" y="559" on="1"/>
        <pt x="316" y="553" on="0"/>
        <pt x="288" y="531" on="0"/>
        <pt x="288" y="508" on="1"/>
        <pt x="288" y="492" on="0"/>
        <pt x="288" y="446" on="0"/>
        <pt x="289" y="392" on="0"/>
        <pt x="290" y="334" on="0"/>
        <pt x="290" y="306" on="1"/>
        <pt x="291" y="241" on="0"/>
        <pt x="293" y="168" on="1"/>
        <pt x="314" y="168" on="1"/>
        <pt x="326" y="202" on="0"/>
        <pt x="359" y="297" on="0"/>
        <pt x="391" y="394" on="0"/>
        <pt x="419" y="479" on="0"/>
        <pt x="426" y="502" on="1"/>
        <pt x="431" y="524" on="0"/>
        <pt x="433" y="529" on="1"/>
        <pt x="435" y="549" on="0"/>
        <pt x="417" y="560" on="0"/>
        <pt x="384" y="560" on="1"/>
        <pt x="378" y="570" on="1"/>
        <pt x="397" y="649" on="1"/>
        <pt x="426" y="648" on="0"/>
        <pt x="455" y="648" on="1"/>
        <pt x="479" y="647" on="0"/>
        <pt x="534" y="647" on="0"/>
        <pt x="556" y="647" on="1"/>
        <pt x="590" y="647" on="0"/>
        <pt x="654" y="648" on="0"/>
        <pt x="680" y="649" on="1"/>
        <pt x="710" y="650" on="0"/>
        <pt x="736" y="652" on="1"/>
        <pt x="743" y="643" on="1"/>
        <pt x="726" y="559" on="1"/>
        <pt x="687" y="554" on="0"/>
        <pt x="660" y="534" on="0"/>
        <pt x="660" y="508" on="1"/>
        <pt x="660" y="492" on="0"/>
        <pt x="660" y="446" on="0"/>
        <pt x="661" y="392" on="0"/>
        <pt x="662" y="334" on="0"/>
        <pt x="663" y="306" on="1"/>
        <pt x="664" y="241" on="0"/>
        <pt x="666" y="168" on="1"/>
        <pt x="687" y="168" on="1"/>
        <pt x="698" y="196" on="0"/>
        <pt x="724" y="271" on="0"/>
        <pt x="750" y="350" on="0"/>
        <pt x="774" y="427" on="0"/>
        <pt x="793" y="491" on="0"/>
        <pt x="805" y="534" on="0"/>
        <pt x="805" y="540" on="1"/>
        <pt x="805" y="551" on="0"/>
        <pt x="796" y="557" on="0"/>
        <pt x="780" y="557" on="1"/>
        <pt x="757" y="557" on="1"/>
        <pt x="751" y="567" on="1"/>
        <pt x="769" y="650" on="1"/>
        <pt x="794" y="649" on="0"/>
        <pt x="820" y="648" on="1"/>
        <pt x="842" y="647" on="0"/>
        <pt x="892" y="647" on="0"/>
        <pt x="913" y="647" on="1"/>
        <pt x="991" y="647" on="1"/>
        <pt x="1010" y="647" on="0"/>
        <pt x="1028" y="648" on="1"/>
        <pt x="1011" y="561" on="1"/>
        <pt x="994" y="555" on="0"/>
        <pt x="977" y="533" on="0"/>
        <pt x="966" y="506" on="1"/>
        <pt x="778" y="4" on="1"/>
      </contour>
    </TTGlyph>
    <TTGlyph name="Wacute" xMin="36" yMin="-13" xMax="1028" yMax="875">
      <component glyphName="W" x="0" y="0" flags="0x204"/>
      <component glyphName="acute.cap" x="378" y="0" flags="0x4"/>
    </TTGlyph>
    <TTGlyph name="Wcircumflex" xMin="36" yMin="-13" xMax="1028" yMax="910">
      <component glyphName="W" x="0" y="0" flags="0x204"/>
      <component glyphName="circumflex.cap" x="321" y="0" flags="0x4"/>
    </TTGlyph>
    <TTGlyph name="Wdieresis" xMin="36" yMin="-13" xMax="1028" yMax="852">
      <component glyphName="W" x="0" y="0" flags="0x204"/>
      <component glyphName="dieresis.cap" x="320" y="0" flags="0x4"/>
    </TTGlyph>
    <TTGlyph name="Wgrave" xMin="36" yMin="-13" xMax="1028" yMax="875">
      <component glyphName="W" x="0" y="0" flags="0x204"/>
      <component glyphName="grave.cap" x="407" y="0" flags="0x4"/>
    </TTGlyph>
    <TTGlyph name="X" xMin="-27" yMin="-5" xMax="744" yMax="653">
      <contour>
        <pt x="224" y="346" on="1"/>
        <pt x="162" y="467" on="1"/>
        <pt x="150" y="491" on="0"/>
        <pt x="127" y="520" on="0"/>
        <pt x="102" y="537" on="0"/>
        <pt x="75" y="546" on="0"/>
        <pt x="58" y="551" on="1"/>
        <pt x="54" y="557" on="1"/>
        <pt x="74" y="648" on="1"/>
        <pt x="94" y="647" on="0"/>
        <pt x="120" y="647" on="1"/>
        <pt x="246" y="647" on="1"/>
        <pt x="261" y="647" on="0"/>
        <pt x="318" y="648" on="0"/>
        <pt x="346" y="650" on="1"/>
        <pt x="379" y="651" on="0"/>
        <pt x="416" y="653" on="1"/>
        <pt x="421" y="642" on="1"/>
        <pt x="404" y="560" on="1"/>
        <pt x="365" y="560" on="0"/>
        <pt x="365" y="532" on="1"/>
        <pt x="365" y="512" on="0"/>
        <pt x="391" y="460" on="0"/>
        <pt x="410" y="424" on="1"/>
        <pt x="421" y="441" on="0"/>
        <pt x="445" y="478" on="0"/>
        <pt x="466" y="511" on="0"/>
        <pt x="480" y="537" on="0"/>
        <pt x="480" y="544" on="1"/>
        <pt x="480" y="554" on="0"/>
        <pt x="466" y="561" on="0"/>
        <pt x="447" y="561" on="1"/>
        <pt x="445" y="567" on="1"/>
        <pt x="461" y="647" on="1"/>
        <pt x="614" y="647" on="1"/>
        <pt x="635" y="647" on="0"/>
        <pt x="680" y="647" on="0"/>
        <pt x="699" y="648" on="1"/>
        <pt x="721" y="649" on="0"/>
        <pt x="741" y="650" on="1"/>
        <pt x="744" y="642" on="1"/>
        <pt x="728" y="555" on="1"/>
        <pt x="703" y="543" on="0"/>
        <pt x="665" y="521" on="0"/>
        <pt x="634" y="496" on="0"/>
        <pt x="606" y="466" on="0"/>
        <pt x="591" y="446" on="1"/>
        <pt x="484" y="301" on="1"/>
        <pt x="550" y="179" on="1"/>
        <pt x="576" y="134" on="0"/>
        <pt x="625" y="94" on="0"/>
        <pt x="660" y="93" on="1"/>
        <pt x="644" y="-1" on="1"/>
        <pt x="617" y="-1" on="0"/>
        <pt x="592" y="0" on="1"/>
        <pt x="571" y="1" on="0"/>
        <pt x="526" y="2" on="0"/>
        <pt x="512" y="2" on="1"/>
        <pt x="495" y="2" on="0"/>
        <pt x="427" y="0" on="0"/>
        <pt x="393" y="-2" on="1"/>
        <pt x="353" y="-4" on="0"/>
        <pt x="308" y="-5" on="1"/>
        <pt x="302" y="2" on="1"/>
        <pt x="319" y="86" on="1"/>
        <pt x="348" y="88" on="0"/>
        <pt x="348" y="109" on="1"/>
        <pt x="348" y="119" on="0"/>
        <pt x="340" y="133" on="1"/>
        <pt x="294" y="221" on="1"/>
        <pt x="253" y="158" on="1"/>
        <pt x="245" y="145" on="0"/>
        <pt x="233" y="122" on="0"/>
        <pt x="233" y="113" on="1"/>
        <pt x="233" y="88" on="0"/>
        <pt x="266" y="88" on="1"/>
        <pt x="271" y="77" on="1"/>
        <pt x="256" y="-4" on="1"/>
        <pt x="223" y="-3" on="0"/>
        <pt x="194" y="-1" on="1"/>
        <pt x="169" y="0" on="0"/>
        <pt x="119" y="2" on="0"/>
        <pt x="108" y="2" on="1"/>
        <pt x="93" y="2" on="0"/>
        <pt x="48" y="0" on="0"/>
        <pt x="27" y="-1" on="1"/>
        <pt x="2" y="-3" on="0"/>
        <pt x="-24" y="-4" on="1"/>
        <pt x="-27" y="10" on="1"/>
        <pt x="-12" y="90" on="1"/>
        <pt x="-1" y="95" on="0"/>
        <pt x="33" y="122" on="0"/>
        <pt x="70" y="158" on="0"/>
        <pt x="109" y="199" on="0"/>
        <pt x="124" y="219" on="1"/>
      </contour>
    </TTGlyph>
    <TTGlyph name="Y" xMin="40" yMin="-9" xMax="698" yMax="653">
      <contour>
        <pt x="332" y="533" on="1"/>
        <pt x="332" y="526" on="0"/>
        <pt x="338" y="492" on="0"/>
        <pt x="348" y="450" on="0"/>
        <pt x="360" y="405" on="0"/>
        <pt x="365" y="387" on="1"/>
        <pt x="379" y="387" on="1"/>
        <pt x="429" y="501" on="1"/>
        <pt x="437" y="516" on="0"/>
        <pt x="447" y="540" on="0"/>
        <pt x="447" y="547" on="1"/>
        <pt x="447" y="555" on="0"/>
        <pt x="432" y="561" on="0"/>
        <pt x="413" y="561" on="1"/>
        <pt x="411" y="567" on="1"/>
        <pt x="429" y="646" on="1"/>
        <pt x="584" y="646" on="1"/>
        <pt x="603" y="646" on="0"/>
        <pt x="643" y="647" on="0"/>
        <pt x="659" y="648" on="1"/>
        <pt x="677" y="649" on="0"/>
        <pt x="695" y="650" on="1"/>
        <pt x="698" y="642" on="1"/>
        <pt x="680" y="555" on="1"/>
        <pt x="648" y="537" on="0"/>
        <pt x="582" y="471" on="0"/>
        <pt x="558" y="429" on="1"/>
        <pt x="448" y="247" on="1"/>
        <pt x="434" y="221" on="0"/>
        <pt x="425" y="180" on="0"/>
        <pt x="422" y="154" on="1"/>
        <pt x="417" y="119" on="0"/>
        <pt x="435" y="91" on="0"/>
        <pt x="463" y="91" on="1"/>
        <pt x="472" y="91" on="0"/>
        <pt x="490" y="91" on="0"/>
        <pt x="497" y="92" on="1"/>
        <pt x="505" y="93" on="0"/>
        <pt x="513" y="94" on="1"/>
        <pt x="517" y="88" on="1"/>
        <pt x="497" y="-6" on="1"/>
        <pt x="455" y="-5" on="0"/>
        <pt x="416" y="-3" on="1"/>
        <pt x="383" y="-2" on="0"/>
        <pt x="314" y="0" on="0"/>
        <pt x="293" y="0" on="1"/>
        <pt x="269" y="0" on="0"/>
        <pt x="201" y="-3" on="0"/>
        <pt x="169" y="-5" on="1"/>
        <pt x="132" y="-7" on="0"/>
        <pt x="92" y="-9" on="1"/>
        <pt x="111" y="83" on="1"/>
        <pt x="142" y="85" on="0"/>
        <pt x="183" y="94" on="0"/>
        <pt x="208" y="111" on="0"/>
        <pt x="219" y="140" on="0"/>
        <pt x="222" y="162" on="1"/>
        <pt x="224" y="178" on="1"/>
        <pt x="227" y="200" on="0"/>
        <pt x="220" y="239" on="0"/>
        <pt x="208" y="268" on="1"/>
        <pt x="128" y="467" on="1"/>
        <pt x="117" y="495" on="0"/>
        <pt x="73" y="537" on="0"/>
        <pt x="44" y="551" on="1"/>
        <pt x="40" y="557" on="1"/>
        <pt x="61" y="648" on="1"/>
        <pt x="94" y="647" on="0"/>
        <pt x="123" y="647" on="1"/>
        <pt x="148" y="646" on="0"/>
        <pt x="197" y="646" on="0"/>
        <pt x="209" y="646" on="1"/>
        <pt x="226" y="646" on="0"/>
        <pt x="285" y="647" on="0"/>
        <pt x="314" y="649" on="1"/>
        <pt x="348" y="651" on="0"/>
        <pt x="386" y="653" on="1"/>
        <pt x="392" y="642" on="1"/>
        <pt x="373" y="560" on="1"/>
        <pt x="332" y="560" on="0"/>
      </contour>
    </TTGlyph>
    <TTGlyph name="Yacute" xMin="40" yMin="-9" xMax="698" yMax="875">
      <component glyphName="Y" x="0" y="0" flags="0x204"/>
      <component glyphName="acute.cap" x="214" y="0" flags="0x4"/>
    </TTGlyph>
    <TTGlyph name="Ycircumflex" xMin="40" yMin="-9" xMax="698" yMax="910">
      <component glyphName="Y" x="0" y="0" flags="0x204"/>
      <component glyphName="circumflex.cap" x="157" y="0" flags="0x4"/>
    </TTGlyph>
    <TTGlyph name="Ydieresis" xMin="40" yMin="-9" xMax="698" yMax="852">
      <component glyphName="Y" x="0" y="0" flags="0x204"/>
      <component glyphName="dieresis.cap" x="156" y="0" flags="0x4"/>
    </TTGlyph>
    <TTGlyph name="Ygrave" xMin="40" yMin="-9" xMax="698" yMax="875">
      <component glyphName="Y" x="0" y="0" flags="0x204"/>
      <component glyphName="grave.cap" x="233" y="0" flags="0x4"/>
    </TTGlyph>
    <TTGlyph name="Z" xMin="-21" yMin="-7" xMax="627" yMax="660">
      <contour>
        <pt x="508" y="-3" on="1"/>
        <pt x="89" y="3" on="1"/>
        <pt x="8" y="-7" on="1"/>
        <pt x="-21" y="51" on="1"/>
        <pt x="353" y="542" on="1"/>
        <pt x="282" y="532" on="1"/>
        <pt x="253" y="528" on="0"/>
        <pt x="218" y="515" on="0"/>
        <pt x="197" y="490" on="0"/>
        <pt x="186" y="450" on="0"/>
        <pt x="181" y="418" on="1"/>
        <pt x="53" y="409" on="1"/>
        <pt x="62" y="452" on="0"/>
        <pt x="70" y="494" on="1"/>
        <pt x="77" y="530" on="0"/>
        <pt x="92" y="614" on="0"/>
        <pt x="97" y="649" on="1"/>
        <pt x="109" y="660" on="1"/>
        <pt x="284" y="649" on="1"/>
        <pt x="609" y="649" on="1"/>
        <pt x="627" y="595" on="1"/>
        <pt x="564" y="520" on="0"/>
        <pt x="448" y="374" on="0"/>
        <pt x="349" y="245" on="0"/>
        <pt x="271" y="141" on="0"/>
        <pt x="247" y="109" on="1"/>
        <pt x="346" y="124" on="1"/>
        <pt x="393" y="131" on="0"/>
        <pt x="443" y="196" on="0"/>
        <pt x="457" y="266" on="1"/>
        <pt x="585" y="275" on="1"/>
        <pt x="574" y="229" on="0"/>
        <pt x="563" y="184" on="1"/>
        <pt x="554" y="145" on="0"/>
        <pt x="536" y="57" on="0"/>
        <pt x="531" y="19" on="1"/>
      </contour>
    </TTGlyph>
    <TTGlyph name="Zacute" xMin="-21" yMin="-7" xMax="627" yMax="875">
      <component glyphName="Z" x="0" y="0" flags="0x204"/>
      <component glyphName="acute.cap" x="181" y="0" flags="0x4"/>
    </TTGlyph>
    <TTGlyph name="Zcaron" xMin="-21" yMin="-7" xMax="627" yMax="895">
      <component glyphName="Z" x="0" y="0" flags="0x204"/>
      <component glyphName="caron.cap" x="132" y="0" flags="0x4"/>
    </TTGlyph>
    <TTGlyph name="Zdotaccent" xMin="-21" yMin="-7" xMax="627" yMax="882">
      <component glyphName="Z" x="0" y="0" flags="0x204"/>
      <component glyphName="dotaccent.cap" x="135" y="0" flags="0x4"/>
    </TTGlyph>
    <TTGlyph name="a" xMin="9" yMin="-12" xMax="541" yMax="484">
      <contour>
        <pt x="446" y="154" on="1"/>
        <pt x="451" y="154" on="0"/>
        <pt x="472" y="171" on="0"/>
        <pt x="498" y="195" on="1"/>
        <pt x="521" y="191" on="1"/>
        <pt x="541" y="143" on="1"/>
        <pt x="500" y="97" on="0"/>
        <pt x="439" y="37" on="0"/>
        <pt x="391" y="2" on="0"/>
        <pt x="350" y="-12" on="0"/>
        <pt x="329" y="-12" on="1"/>
        <pt x="278" y="-12" on="0"/>
        <pt x="278" y="36" on="1"/>
        <pt x="278" y="41" on="0"/>
        <pt x="280" y="57" on="0"/>
        <pt x="286" y="85" on="0"/>
        <pt x="295" y="127" on="0"/>
        <pt x="303" y="158" on="1"/>
        <pt x="293" y="158" on="1"/>
        <pt x="273" y="123" on="0"/>
        <pt x="238" y="69" on="0"/>
        <pt x="206" y="28" on="0"/>
        <pt x="176" y="-1" on="0"/>
        <pt x="160" y="-12" on="1"/>
        <pt x="88" y="-12" on="0"/>
        <pt x="9" y="70" on="0"/>
        <pt x="9" y="145" on="1"/>
        <pt x="9" y="204" on="0"/>
        <pt x="54" y="321" on="0"/>
        <pt x="126" y="414" on="0"/>
        <pt x="217" y="472" on="0"/>
        <pt x="263" y="472" on="1"/>
        <pt x="335" y="452" on="1"/>
        <pt x="340" y="472" on="1"/>
        <pt x="359" y="484" on="1"/>
        <pt x="493" y="472" on="1"/>
        <pt x="501" y="449" on="1"/>
        <pt x="490" y="401" on="0"/>
        <pt x="479" y="351" on="1"/>
        <pt x="470" y="308" on="0"/>
        <pt x="450" y="205" on="0"/>
        <pt x="442" y="157" on="1"/>
      </contour>
      <contour>
        <pt x="206" y="143" on="1"/>
        <pt x="214" y="143" on="0"/>
        <pt x="240" y="178" on="0"/>
        <pt x="269" y="234" on="0"/>
        <pt x="297" y="305" on="0"/>
        <pt x="307" y="341" on="1"/>
        <pt x="266" y="367" on="0"/>
        <pt x="233" y="367" on="1"/>
        <pt x="226" y="367" on="0"/>
        <pt x="211" y="338" on="0"/>
        <pt x="199" y="293" on="0"/>
        <pt x="192" y="236" on="0"/>
        <pt x="192" y="209" on="1"/>
        <pt x="192" y="180" on="0"/>
        <pt x="200" y="143" on="0"/>
      </contour>
    </TTGlyph>
    <TTGlyph name="a.sups" xMin="7" yMin="319" xMax="385" yMax="653">
      <contour>
        <pt x="321" y="439" on="1"/>
        <pt x="323" y="439" on="0"/>
        <pt x="338" y="450" on="0"/>
        <pt x="354" y="465" on="1"/>
        <pt x="371" y="462" on="1"/>
        <pt x="385" y="427" on="1"/>
        <pt x="356" y="395" on="0"/>
        <pt x="313" y="353" on="0"/>
        <pt x="279" y="329" on="0"/>
        <pt x="249" y="319" on="0"/>
        <pt x="233" y="319" on="1"/>
        <pt x="197" y="319" on="0"/>
        <pt x="197" y="354" on="1"/>
        <pt x="197" y="357" on="0"/>
        <pt x="197" y="363" on="0"/>
        <pt x="200" y="378" on="0"/>
        <pt x="206" y="404" on="0"/>
        <pt x="212" y="427" on="1"/>
        <pt x="205" y="427" on="1"/>
        <pt x="178" y="381" on="0"/>
        <pt x="138" y="333" on="0"/>
        <pt x="118" y="319" on="1"/>
        <pt x="66" y="319" on="0"/>
        <pt x="7" y="376" on="0"/>
        <pt x="7" y="427" on="1"/>
        <pt x="7" y="466" on="0"/>
        <pt x="38" y="544" on="0"/>
        <pt x="88" y="606" on="0"/>
        <pt x="152" y="644" on="0"/>
        <pt x="184" y="644" on="1"/>
        <pt x="231" y="631" on="1"/>
        <pt x="234" y="644" on="1"/>
        <pt x="249" y="653" on="1"/>
        <pt x="350" y="645" on="1"/>
        <pt x="356" y="628" on="1"/>
        <pt x="349" y="597" on="0"/>
        <pt x="342" y="564" on="1"/>
        <pt x="336" y="536" on="0"/>
        <pt x="323" y="471" on="0"/>
        <pt x="318" y="441" on="1"/>
      </contour>
      <contour>
        <pt x="152" y="430" on="1"/>
        <pt x="157" y="430" on="0"/>
        <pt x="173" y="452" on="0"/>
        <pt x="191" y="487" on="0"/>
        <pt x="207" y="531" on="0"/>
        <pt x="212" y="553" on="1"/>
        <pt x="186" y="569" on="0"/>
        <pt x="164" y="569" on="1"/>
        <pt x="161" y="569" on="0"/>
        <pt x="153" y="551" on="0"/>
        <pt x="147" y="523" on="0"/>
        <pt x="143" y="488" on="0"/>
        <pt x="143" y="471" on="1"/>
        <pt x="143" y="452" on="0"/>
        <pt x="148" y="430" on="0"/>
      </contour>
    </TTGlyph>
    <TTGlyph name="aacute" xMin="9" yMin="-12" xMax="541" yMax="760">
      <component glyphName="a" x="0" y="0" flags="0x204"/>
      <component glyphName="acute" x="119" y="0" flags="0x4"/>
    </TTGlyph>
    <TTGlyph name="abreve" xMin="9" yMin="-12" xMax="541" yMax="733">
      <component glyphName="a" x="0" y="0" flags="0x204"/>
      <component glyphName="breve" x="77" y="-7" flags="0x4"/>
    </TTGlyph>
    <TTGlyph name="acircumflex" xMin="9" yMin="-12" xMax="541" yMax="761">
      <component glyphName="a" x="0" y="0" flags="0x204"/>
      <component glyphName="circumflex" x="82" y="1" flags="0x4"/>
    </TTGlyph>
    <TTGlyph name="acute" xMin="70" yMin="525" xMax="346" yMax="760">
      <contour>
        <pt x="344" y="642" on="1"/>
        <pt x="312" y="625" on="0"/>
        <pt x="277" y="606" on="1"/>
        <pt x="247" y="589" on="0"/>
        <pt x="171" y="548" on="0"/>
        <pt x="133" y="525" on="1"/>
        <pt x="111" y="532" on="1"/>
        <pt x="70" y="593" on="1"/>
        <pt x="105" y="623" on="0"/>
        <pt x="173" y="683" on="0"/>
        <pt x="199" y="707" on="1"/>
        <pt x="230" y="735" on="0"/>
        <pt x="257" y="760" on="1"/>
        <pt x="274" y="760" on="1"/>
        <pt x="346" y="659" on="1"/>
      </contour>
    </TTGlyph>
    <TTGlyph name="acute.cap" xMin="39" yMin="691" xMax="340" yMax="875">
      <contour>
        <pt x="333" y="746" on="1"/>
        <pt x="294" y="739" on="0"/>
        <pt x="252" y="730" on="1"/>
        <pt x="216" y="722" on="0"/>
        <pt x="126" y="702" on="0"/>
        <pt x="79" y="691" on="1"/>
        <pt x="60" y="704" on="1"/>
        <pt x="39" y="775" on="1"/>
        <pt x="85" y="792" on="0"/>
        <pt x="175" y="828" on="0"/>
        <pt x="210" y="842" on="1"/>
        <pt x="251" y="859" on="0"/>
        <pt x="288" y="875" on="1"/>
        <pt x="304" y="870" on="1"/>
        <pt x="340" y="762" on="1"/>
      </contour>
    </TTGlyph>
    <TTGlyph name="adieresis" xMin="9" yMin="-12" xMax="541" yMax="728">
      <component glyphName="a" x="0" y="0" flags="0x204"/>
      <component glyphName="dieresis" x="89" y="2" flags="0x4"/>
    </TTGlyph>
    <TTGlyph name="ae" xMin="9" yMin="-12" xMax="691" yMax="483">
      <contour>
        <pt x="691" y="371" on="1"/>
        <pt x="691" y="336" on="0"/>
        <pt x="664" y="281" on="0"/>
        <pt x="604" y="235" on="0"/>
        <pt x="509" y="195" on="0"/>
        <pt x="442" y="175" on="1"/>
        <pt x="450" y="126" on="0"/>
        <pt x="497" y="126" on="1"/>
        <pt x="547" y="126" on="0"/>
        <pt x="588" y="197" on="1"/>
        <pt x="610" y="194" on="1"/>
        <pt x="662" y="136" on="1"/>
        <pt x="649" y="105" on="0"/>
        <pt x="601" y="51" on="0"/>
        <pt x="540" y="11" on="0"/>
        <pt x="470" y="-12" on="0"/>
        <pt x="435" y="-12" on="1"/>
        <pt x="371" y="-12" on="0"/>
        <pt x="286" y="62" on="0"/>
        <pt x="275" y="127" on="1"/>
        <pt x="241" y="71" on="0"/>
        <pt x="188" y="7" on="0"/>
        <pt x="160" y="-12" on="1"/>
        <pt x="88" y="-12" on="0"/>
        <pt x="9" y="70" on="0"/>
        <pt x="9" y="145" on="1"/>
        <pt x="9" y="204" on="0"/>
        <pt x="54" y="321" on="0"/>
        <pt x="126" y="414" on="0"/>
        <pt x="217" y="472" on="0"/>
        <pt x="263" y="472" on="1"/>
        <pt x="415" y="443" on="1"/>
        <pt x="446" y="462" on="0"/>
        <pt x="515" y="483" on="0"/>
        <pt x="553" y="483" on="1"/>
        <pt x="617" y="483" on="0"/>
        <pt x="691" y="423" on="0"/>
      </contour>
      <contour>
        <pt x="206" y="143" on="1"/>
        <pt x="214" y="143" on="0"/>
        <pt x="240" y="180" on="0"/>
        <pt x="269" y="239" on="0"/>
        <pt x="297" y="313" on="0"/>
        <pt x="307" y="351" on="1"/>
        <pt x="264" y="367" on="0"/>
        <pt x="233" y="367" on="1"/>
        <pt x="226" y="367" on="0"/>
        <pt x="211" y="338" on="0"/>
        <pt x="199" y="293" on="0"/>
        <pt x="192" y="236" on="0"/>
        <pt x="192" y="209" on="1"/>
        <pt x="192" y="180" on="0"/>
        <pt x="200" y="143" on="0"/>
      </contour>
      <contour>
        <pt x="516" y="363" on="1"/>
        <pt x="460" y="363" on="0"/>
        <pt x="445" y="257" on="1"/>
        <pt x="541" y="294" on="0"/>
        <pt x="541" y="340" on="1"/>
        <pt x="541" y="363" on="0"/>
      </contour>
    </TTGlyph>
    <TTGlyph name="aeacute" xMin="9" yMin="-12" xMax="691" yMax="760">
      <component glyphName="ae" x="0" y="0" flags="0x204"/>
      <component glyphName="acute" x="226" y="0" flags="0x4"/>
    </TTGlyph>
    <TTGlyph name="agrave" xMin="9" yMin="-12" xMax="541" yMax="762">
      <component glyphName="a" x="0" y="0" flags="0x204"/>
      <component glyphName="grave" x="133" y="2" flags="0x4"/>
    </TTGlyph>
    <TTGlyph name="amacron" xMin="9" yMin="-12" xMax="541" yMax="695">
      <component glyphName="a" x="0" y="0" flags="0x204"/>
      <component glyphName="macron" x="66" y="2" flags="0x4"/>
    </TTGlyph>
    <TTGlyph name="ampersand" xMin="13" yMin="-12" xMax="695" yMax="660">
      <contour>
        <pt x="225" y="457" on="1"/>
        <pt x="225" y="422" on="0"/>
        <pt x="264" y="378" on="0"/>
        <pt x="294" y="378" on="1"/>
        <pt x="528" y="399" on="1"/>
        <pt x="547" y="400" on="0"/>
        <pt x="579" y="408" on="0"/>
        <pt x="611" y="423" on="0"/>
        <pt x="646" y="446" on="0"/>
        <pt x="669" y="463" on="1"/>
        <pt x="695" y="440" on="1"/>
        <pt x="641" y="332" on="1"/>
        <pt x="624" y="300" on="0"/>
        <pt x="581" y="275" on="0"/>
        <pt x="545" y="275" on="1"/>
        <pt x="502" y="275" on="1"/>
        <pt x="497" y="269" on="1"/>
        <pt x="507" y="261" on="0"/>
        <pt x="518" y="231" on="0"/>
        <pt x="518" y="214" on="1"/>
        <pt x="518" y="172" on="0"/>
        <pt x="470" y="91" on="0"/>
        <pt x="392" y="27" on="0"/>
        <pt x="292" y="-12" on="0"/>
        <pt x="241" y="-12" on="1"/>
        <pt x="130" y="-12" on="0"/>
        <pt x="13" y="76" on="0"/>
        <pt x="13" y="160" on="1"/>
        <pt x="13" y="209" on="0"/>
        <pt x="87" y="296" on="0"/>
        <pt x="150" y="319" on="1"/>
        <pt x="73" y="370" on="0"/>
        <pt x="73" y="459" on="1"/>
        <pt x="73" y="498" on="0"/>
        <pt x="115" y="571" on="0"/>
        <pt x="185" y="626" on="0"/>
        <pt x="275" y="660" on="0"/>
        <pt x="324" y="660" on="1"/>
        <pt x="358" y="660" on="0"/>
        <pt x="449" y="645" on="0"/>
        <pt x="491" y="633" on="1"/>
        <pt x="501" y="617" on="1"/>
        <pt x="494" y="597" on="0"/>
        <pt x="479" y="548" on="0"/>
        <pt x="467" y="502" on="0"/>
        <pt x="459" y="464" on="0"/>
        <pt x="458" y="455" on="1"/>
        <pt x="341" y="448" on="1"/>
        <pt x="342" y="456" on="0"/>
        <pt x="343" y="464" on="1"/>
        <pt x="344" y="470" on="0"/>
        <pt x="346" y="483" on="0"/>
        <pt x="346" y="487" on="1"/>
        <pt x="346" y="509" on="0"/>
        <pt x="322" y="534" on="0"/>
        <pt x="300" y="534" on="1"/>
        <pt x="266" y="534" on="0"/>
        <pt x="225" y="492" on="0"/>
      </contour>
      <contour>
        <pt x="377" y="212" on="1"/>
        <pt x="377" y="241" on="0"/>
        <pt x="358" y="275" on="0"/>
        <pt x="341" y="275" on="1"/>
        <pt x="238" y="275" on="1"/>
        <pt x="210" y="261" on="0"/>
        <pt x="181" y="213" on="0"/>
        <pt x="181" y="183" on="1"/>
        <pt x="181" y="145" on="0"/>
        <pt x="226" y="103" on="0"/>
        <pt x="264" y="103" on="1"/>
        <pt x="315" y="103" on="0"/>
        <pt x="377" y="162" on="0"/>
      </contour>
    </TTGlyph>
    <TTGlyph name="aogonek" xMin="9" yMin="-241" xMax="541" yMax="484">
      <contour>
        <pt x="462" y="-169" on="1"/>
        <pt x="443" y="-184" on="0"/>
        <pt x="425" y="-198" on="1"/>
        <pt x="408" y="-210" on="0"/>
        <pt x="370" y="-234" on="0"/>
        <pt x="352" y="-241" on="1"/>
        <pt x="296" y="-241" on="0"/>
        <pt x="234" y="-199" on="0"/>
        <pt x="234" y="-161" on="1"/>
        <pt x="234" y="-146" on="0"/>
        <pt x="242" y="-116" on="0"/>
        <pt x="262" y="-81" on="0"/>
        <pt x="296" y="-39" on="0"/>
        <pt x="321" y="-11" on="1"/>
        <pt x="278" y="-8" on="0"/>
        <pt x="278" y="36" on="1"/>
        <pt x="278" y="41" on="0"/>
        <pt x="280" y="58" on="0"/>
        <pt x="286" y="85" on="0"/>
        <pt x="295" y="127" on="0"/>
        <pt x="303" y="158" on="1"/>
        <pt x="293" y="158" on="1"/>
        <pt x="273" y="123" on="0"/>
        <pt x="238" y="69" on="0"/>
        <pt x="206" y="28" on="0"/>
        <pt x="176" y="-1" on="0"/>
        <pt x="160" y="-12" on="1"/>
        <pt x="88" y="-12" on="0"/>
        <pt x="9" y="70" on="0"/>
        <pt x="9" y="145" on="1"/>
        <pt x="9" y="204" on="0"/>
        <pt x="54" y="321" on="0"/>
        <pt x="126" y="414" on="0"/>
        <pt x="217" y="472" on="0"/>
        <pt x="263" y="472" on="1"/>
        <pt x="335" y="452" on="1"/>
        <pt x="340" y="472" on="1"/>
        <pt x="359" y="484" on="1"/>
        <pt x="493" y="472" on="1"/>
        <pt x="501" y="449" on="1"/>
        <pt x="490" y="401" on="0"/>
        <pt x="479" y="351" on="1"/>
        <pt x="470" y="308" on="0"/>
        <pt x="450" y="205" on="0"/>
        <pt x="442" y="157" on="1"/>
        <pt x="446" y="154" on="1"/>
        <pt x="451" y="154" on="0"/>
        <pt x="472" y="172" on="0"/>
        <pt x="498" y="195" on="1"/>
        <pt x="521" y="191" on="1"/>
        <pt x="541" y="142" on="1"/>
        <pt x="483" y="83" on="0"/>
        <pt x="406" y="-2" on="0"/>
        <pt x="361" y="-62" on="0"/>
        <pt x="342" y="-104" on="0"/>
        <pt x="342" y="-120" on="1"/>
        <pt x="342" y="-135" on="0"/>
        <pt x="360" y="-154" on="0"/>
        <pt x="375" y="-154" on="1"/>
        <pt x="386" y="-154" on="0"/>
        <pt x="408" y="-147" on="0"/>
        <pt x="418" y="-142" on="1"/>
        <pt x="429" y="-137" on="0"/>
        <pt x="441" y="-129" on="1"/>
      </contour>
      <contour>
        <pt x="206" y="143" on="1"/>
        <pt x="214" y="143" on="0"/>
        <pt x="240" y="178" on="0"/>
        <pt x="269" y="234" on="0"/>
        <pt x="297" y="305" on="0"/>
        <pt x="307" y="341" on="1"/>
        <pt x="266" y="367" on="0"/>
        <pt x="233" y="367" on="1"/>
        <pt x="226" y="367" on="0"/>
        <pt x="211" y="338" on="0"/>
        <pt x="199" y="293" on="0"/>
        <pt x="192" y="236" on="0"/>
        <pt x="192" y="209" on="1"/>
        <pt x="192" y="180" on="0"/>
        <pt x="200" y="143" on="0"/>
      </contour>
    </TTGlyph>
    <TTGlyph name="approxequal" xMin="-10" yMin="31" xMax="501" yMax="446">
      <contour>
        <pt x="56" y="231" on="1"/>
        <pt x="14" y="287" on="1"/>
        <pt x="16" y="303" on="1"/>
        <pt x="136" y="418" on="1"/>
        <pt x="158" y="422" on="1"/>
        <pt x="174" y="422" on="0"/>
        <pt x="227" y="411" on="0"/>
        <pt x="283" y="399" on="0"/>
        <pt x="334" y="388" on="0"/>
        <pt x="349" y="388" on="1"/>
        <pt x="360" y="388" on="0"/>
        <pt x="392" y="406" on="0"/>
        <pt x="407" y="417" on="1"/>
        <pt x="425" y="429" on="0"/>
        <pt x="443" y="446" on="1"/>
        <pt x="459" y="446" on="1"/>
        <pt x="501" y="390" on="1"/>
        <pt x="499" y="374" on="1"/>
        <pt x="379" y="259" on="1"/>
        <pt x="357" y="255" on="1"/>
        <pt x="340" y="255" on="0"/>
        <pt x="288" y="266" on="0"/>
        <pt x="232" y="278" on="0"/>
        <pt x="181" y="289" on="0"/>
        <pt x="166" y="289" on="1"/>
        <pt x="155" y="289" on="0"/>
        <pt x="123" y="271" on="0"/>
        <pt x="108" y="260" on="1"/>
        <pt x="90" y="247" on="0"/>
        <pt x="72" y="231" on="1"/>
      </contour>
      <contour>
        <pt x="32" y="31" on="1"/>
        <pt x="-10" y="87" on="1"/>
        <pt x="-8" y="103" on="1"/>
        <pt x="111" y="218" on="1"/>
        <pt x="133" y="222" on="1"/>
        <pt x="149" y="222" on="0"/>
        <pt x="203" y="211" on="0"/>
        <pt x="259" y="199" on="0"/>
        <pt x="310" y="188" on="0"/>
        <pt x="324" y="188" on="1"/>
        <pt x="335" y="188" on="0"/>
        <pt x="368" y="206" on="0"/>
        <pt x="383" y="217" on="1"/>
        <pt x="401" y="229" on="0"/>
        <pt x="418" y="246" on="1"/>
        <pt x="434" y="246" on="1"/>
        <pt x="476" y="190" on="1"/>
        <pt x="474" y="174" on="1"/>
        <pt x="355" y="59" on="1"/>
        <pt x="332" y="55" on="1"/>
        <pt x="315" y="55" on="0"/>
        <pt x="263" y="66" on="0"/>
        <pt x="207" y="78" on="0"/>
        <pt x="156" y="89" on="0"/>
        <pt x="141" y="89" on="1"/>
        <pt x="130" y="89" on="0"/>
        <pt x="97" y="71" on="0"/>
        <pt x="83" y="60" on="1"/>
        <pt x="65" y="47" on="0"/>
        <pt x="48" y="31" on="1"/>
      </contour>
    </TTGlyph>
    <TTGlyph name="aring" xMin="9" yMin="-12" xMax="541" yMax="752">
      <component glyphName="a" x="0" y="0" flags="0x204"/>
      <component glyphName="ring" x="62" y="0" flags="0x4"/>
    </TTGlyph>
    <TTGlyph name="aringacute" xMin="9" yMin="-12" xMax="541" yMax="844">
      <contour>
        <pt x="446" y="154" on="1"/>
        <pt x="451" y="154" on="0"/>
        <pt x="472" y="171" on="0"/>
        <pt x="498" y="195" on="1"/>
        <pt x="521" y="191" on="1"/>
        <pt x="541" y="143" on="1"/>
        <pt x="500" y="97" on="0"/>
        <pt x="439" y="37" on="0"/>
        <pt x="391" y="2" on="0"/>
        <pt x="350" y="-12" on="0"/>
        <pt x="329" y="-12" on="1"/>
        <pt x="278" y="-12" on="0"/>
        <pt x="278" y="36" on="1"/>
        <pt x="278" y="41" on="0"/>
        <pt x="280" y="57" on="0"/>
        <pt x="286" y="85" on="0"/>
        <pt x="295" y="127" on="0"/>
        <pt x="303" y="158" on="1"/>
        <pt x="293" y="158" on="1"/>
        <pt x="273" y="123" on="0"/>
        <pt x="238" y="69" on="0"/>
        <pt x="206" y="28" on="0"/>
        <pt x="176" y="-1" on="0"/>
        <pt x="160" y="-12" on="1"/>
        <pt x="88" y="-12" on="0"/>
        <pt x="9" y="70" on="0"/>
        <pt x="9" y="145" on="1"/>
        <pt x="9" y="204" on="0"/>
        <pt x="54" y="321" on="0"/>
        <pt x="126" y="414" on="0"/>
        <pt x="217" y="472" on="0"/>
        <pt x="263" y="472" on="1"/>
        <pt x="335" y="452" on="1"/>
        <pt x="340" y="472" on="1"/>
        <pt x="359" y="484" on="1"/>
        <pt x="493" y="472" on="1"/>
        <pt x="501" y="449" on="1"/>
        <pt x="490" y="401" on="0"/>
        <pt x="479" y="351" on="1"/>
        <pt x="470" y="308" on="0"/>
        <pt x="450" y="205" on="0"/>
        <pt x="442" y="157" on="1"/>
      </contour>
      <contour>
        <pt x="206" y="143" on="1"/>
        <pt x="214" y="143" on="0"/>
        <pt x="240" y="178" on="0"/>
        <pt x="269" y="234" on="0"/>
        <pt x="297" y="305" on="0"/>
        <pt x="307" y="341" on="1"/>
        <pt x="266" y="367" on="0"/>
        <pt x="233" y="367" on="1"/>
        <pt x="226" y="367" on="0"/>
        <pt x="211" y="338" on="0"/>
        <pt x="199" y="293" on="0"/>
        <pt x="192" y="236" on="0"/>
        <pt x="192" y="209" on="1"/>
        <pt x="192" y="180" on="0"/>
        <pt x="200" y="143" on="0"/>
      </contour>
      <contour>
        <pt x="319" y="559" on="1"/>
        <pt x="328" y="559" on="0"/>
        <pt x="353" y="572" on="0"/>
        <pt x="353" y="593" on="1"/>
        <pt x="353" y="620" on="0"/>
        <pt x="323" y="620" on="1"/>
        <pt x="306" y="620" on="0"/>
        <pt x="289" y="601" on="0"/>
        <pt x="289" y="587" on="1"/>
        <pt x="289" y="570" on="0"/>
        <pt x="309" y="559" on="0"/>
      </contour>
      <contour>
        <pt x="305" y="496" on="1"/>
        <pt x="266" y="496" on="0"/>
        <pt x="226" y="540" on="0"/>
        <pt x="226" y="576" on="1"/>
        <pt x="226" y="622" on="0"/>
        <pt x="287" y="685" on="0"/>
        <pt x="336" y="685" on="1"/>
        <pt x="380" y="685" on="0"/>
        <pt x="416" y="638" on="0"/>
        <pt x="416" y="608" on="1"/>
        <pt x="416" y="587" on="0"/>
        <pt x="401" y="547" on="0"/>
        <pt x="372" y="515" on="0"/>
        <pt x="331" y="496" on="0"/>
      </contour>
      <contour>
        <pt x="466" y="728" on="1"/>
        <pt x="431" y="722" on="0"/>
        <pt x="393" y="714" on="1"/>
        <pt x="361" y="707" on="0"/>
        <pt x="279" y="690" on="0"/>
        <pt x="237" y="679" on="1"/>
        <pt x="220" y="691" on="1"/>
        <pt x="201" y="754" on="1"/>
        <pt x="243" y="770" on="0"/>
        <pt x="323" y="802" on="0"/>
        <pt x="355" y="815" on="1"/>
        <pt x="392" y="830" on="0"/>
        <pt x="425" y="844" on="1"/>
        <pt x="440" y="840" on="1"/>
        <pt x="472" y="743" on="1"/>
      </contour>
    </TTGlyph>
    <TTGlyph name="asciicircum" xMin="-9" yMin="96" xMax="441" yMax="484">
      <contour>
        <pt x="340" y="476" on="1"/>
        <pt x="350" y="442" on="0"/>
        <pt x="360" y="409" on="1"/>
        <pt x="368" y="380" on="0"/>
        <pt x="387" y="316" on="0"/>
        <pt x="395" y="290" on="1"/>
        <pt x="441" y="152" on="1"/>
        <pt x="343" y="96" on="1"/>
        <pt x="323" y="105" on="1"/>
        <pt x="316" y="127" on="0"/>
        <pt x="308" y="151" on="1"/>
        <pt x="301" y="171" on="0"/>
        <pt x="284" y="223" on="0"/>
        <pt x="276" y="250" on="1"/>
        <pt x="242" y="352" on="1"/>
        <pt x="235" y="352" on="1"/>
        <pt x="187" y="262" on="1"/>
        <pt x="172" y="234" on="0"/>
        <pt x="141" y="176" on="0"/>
        <pt x="129" y="152" on="1"/>
        <pt x="114" y="124" on="0"/>
        <pt x="101" y="96" on="1"/>
        <pt x="0" y="130" on="1"/>
        <pt x="-9" y="148" on="1"/>
        <pt x="5" y="170" on="0"/>
        <pt x="19" y="195" on="1"/>
        <pt x="31" y="216" on="0"/>
        <pt x="61" y="270" on="0"/>
        <pt x="77" y="299" on="1"/>
        <pt x="173" y="477" on="1"/>
        <pt x="326" y="484" on="1"/>
      </contour>
    </TTGlyph>
    <TTGlyph name="asciitilde" xMin="4" yMin="151" xMax="491" yMax="366">
      <contour>
        <pt x="46" y="151" on="1"/>
        <pt x="4" y="207" on="1"/>
        <pt x="6" y="223" on="1"/>
        <pt x="126" y="338" on="1"/>
        <pt x="148" y="342" on="1"/>
        <pt x="164" y="342" on="0"/>
        <pt x="217" y="331" on="0"/>
        <pt x="273" y="319" on="0"/>
        <pt x="324" y="308" on="0"/>
        <pt x="339" y="308" on="1"/>
        <pt x="350" y="308" on="0"/>
        <pt x="382" y="326" on="0"/>
        <pt x="397" y="337" on="1"/>
        <pt x="415" y="349" on="0"/>
        <pt x="433" y="366" on="1"/>
        <pt x="449" y="366" on="1"/>
        <pt x="491" y="310" on="1"/>
        <pt x="489" y="294" on="1"/>
        <pt x="369" y="179" on="1"/>
        <pt x="347" y="175" on="1"/>
        <pt x="330" y="175" on="0"/>
        <pt x="278" y="186" on="0"/>
        <pt x="222" y="198" on="0"/>
        <pt x="171" y="209" on="0"/>
        <pt x="156" y="209" on="1"/>
        <pt x="145" y="209" on="0"/>
        <pt x="113" y="191" on="0"/>
        <pt x="98" y="180" on="1"/>
        <pt x="80" y="167" on="0"/>
        <pt x="62" y="151" on="1"/>
      </contour>
    </TTGlyph>
    <TTGlyph name="asterisk" xMin="51" yMin="388" xMax="413" yMax="752">
      <contour>
        <pt x="76" y="681" on="1"/>
        <pt x="89" y="674" on="0"/>
        <pt x="106" y="663" on="1"/>
        <pt x="120" y="654" on="0"/>
        <pt x="158" y="628" on="0"/>
        <pt x="181" y="611" on="1"/>
        <pt x="172" y="562" on="1"/>
        <pt x="163" y="555" on="1"/>
        <pt x="142" y="561" on="0"/>
        <pt x="102" y="571" on="0"/>
        <pt x="86" y="576" on="1"/>
        <pt x="68" y="580" on="0"/>
        <pt x="51" y="585" on="1"/>
        <pt x="51" y="601" on="0"/>
        <pt x="53" y="617" on="1"/>
        <pt x="55" y="631" on="0"/>
        <pt x="60" y="663" on="0"/>
        <pt x="65" y="678" on="1"/>
      </contour>
      <contour>
        <pt x="70" y="465" on="1"/>
        <pt x="81" y="475" on="0"/>
        <pt x="96" y="487" on="1"/>
        <pt x="109" y="498" on="0"/>
        <pt x="145" y="526" on="0"/>
        <pt x="168" y="543" on="1"/>
        <pt x="213" y="519" on="1"/>
        <pt x="216" y="510" on="1"/>
        <pt x="204" y="492" on="0"/>
        <pt x="181" y="457" on="0"/>
        <pt x="173" y="443" on="1"/>
        <pt x="162" y="426" on="0"/>
        <pt x="154" y="412" on="1"/>
        <pt x="139" y="417" on="0"/>
        <pt x="124" y="423" on="1"/>
        <pt x="111" y="428" on="0"/>
        <pt x="81" y="443" on="0"/>
        <pt x="69" y="453" on="1"/>
      </contour>
      <contour>
        <pt x="273" y="393" on="1"/>
        <pt x="267" y="406" on="0"/>
        <pt x="260" y="424" on="1"/>
        <pt x="254" y="439" on="0"/>
        <pt x="237" y="483" on="0"/>
        <pt x="229" y="511" on="1"/>
        <pt x="266" y="546" on="1"/>
        <pt x="277" y="546" on="1"/>
        <pt x="290" y="529" on="0"/>
        <pt x="315" y="497" on="0"/>
        <pt x="326" y="484" on="1"/>
        <pt x="338" y="469" on="0"/>
        <pt x="350" y="456" on="1"/>
        <pt x="341" y="443" on="0"/>
        <pt x="330" y="431" on="1"/>
        <pt x="321" y="420" on="0"/>
        <pt x="297" y="396" on="0"/>
        <pt x="284" y="388" on="1"/>
      </contour>
      <contour>
        <pt x="405" y="564" on="1"/>
        <pt x="390" y="563" on="0"/>
        <pt x="371" y="561" on="1"/>
        <pt x="354" y="559" on="0"/>
        <pt x="308" y="557" on="0"/>
        <pt x="279" y="558" on="1"/>
        <pt x="257" y="604" on="1"/>
        <pt x="261" y="615" on="1"/>
        <pt x="281" y="622" on="0"/>
        <pt x="320" y="637" on="0"/>
        <pt x="335" y="643" on="1"/>
        <pt x="353" y="650" on="0"/>
        <pt x="369" y="656" on="1"/>
        <pt x="378" y="643" on="0"/>
        <pt x="387" y="629" on="1"/>
        <pt x="395" y="617" on="0"/>
        <pt x="408" y="587" on="0"/>
        <pt x="413" y="572" on="1"/>
      </contour>
      <contour>
        <pt x="284" y="742" on="1"/>
        <pt x="280" y="726" on="0"/>
        <pt x="275" y="708" on="1"/>
        <pt x="270" y="692" on="0"/>
        <pt x="258" y="647" on="0"/>
        <pt x="249" y="620" on="1"/>
        <pt x="199" y="615" on="1"/>
        <pt x="191" y="620" on="1"/>
        <pt x="190" y="641" on="0"/>
        <pt x="188" y="682" on="0"/>
        <pt x="186" y="699" on="1"/>
        <pt x="184" y="718" on="0"/>
        <pt x="183" y="736" on="1"/>
        <pt x="198" y="740" on="0"/>
        <pt x="214" y="744" on="1"/>
        <pt x="228" y="747" on="0"/>
        <pt x="261" y="752" on="0"/>
        <pt x="277" y="752" on="1"/>
      </contour>
    </TTGlyph>
    <TTGlyph name="at" xMin="7" yMin="-240" xMax="876" yMax="673">
      <contour>
        <pt x="504" y="-12" on="1"/>
        <pt x="480" y="-12" on="0"/>
        <pt x="450" y="18" on="0"/>
        <pt x="450" y="42" on="1"/>
        <pt x="450" y="47" on="0"/>
        <pt x="452" y="59" on="0"/>
        <pt x="457" y="83" on="0"/>
        <pt x="466" y="124" on="0"/>
        <pt x="474" y="158" on="1"/>
        <pt x="464" y="158" on="1"/>
        <pt x="423" y="87" on="0"/>
        <pt x="362" y="9" on="0"/>
        <pt x="331" y="-12" on="1"/>
        <pt x="259" y="-12" on="0"/>
        <pt x="180" y="70" on="0"/>
        <pt x="180" y="145" on="1"/>
        <pt x="180" y="204" on="0"/>
        <pt x="225" y="321" on="0"/>
        <pt x="297" y="414" on="0"/>
        <pt x="388" y="472" on="0"/>
        <pt x="434" y="472" on="1"/>
        <pt x="506" y="452" on="1"/>
        <pt x="511" y="472" on="1"/>
        <pt x="530" y="484" on="1"/>
        <pt x="664" y="472" on="1"/>
        <pt x="672" y="449" on="1"/>
        <pt x="658" y="388" on="0"/>
        <pt x="645" y="328" on="1"/>
        <pt x="634" y="277" on="0"/>
        <pt x="611" y="160" on="0"/>
        <pt x="603" y="112" on="1"/>
        <pt x="610" y="104" on="1"/>
        <pt x="644" y="104" on="0"/>
        <pt x="703" y="135" on="0"/>
        <pt x="745" y="190" on="0"/>
        <pt x="769" y="265" on="0"/>
        <pt x="769" y="310" on="1"/>
        <pt x="769" y="370" on="0"/>
        <pt x="727" y="466" on="0"/>
        <pt x="649" y="532" on="0"/>
        <pt x="536" y="568" on="0"/>
        <pt x="466" y="568" on="1"/>
        <pt x="391" y="568" on="0"/>
        <pt x="262" y="512" on="0"/>
        <pt x="169" y="414" on="0"/>
        <pt x="116" y="281" on="0"/>
        <pt x="116" y="203" on="1"/>
        <pt x="116" y="31" on="0"/>
        <pt x="325" y="-149" on="0"/>
        <pt x="524" y="-149" on="1"/>
        <pt x="524" y="-156" on="0"/>
        <pt x="523" y="-169" on="0"/>
        <pt x="523" y="-176" on="1"/>
        <pt x="486" y="-240" on="1"/>
        <pt x="374" y="-240" on="0"/>
        <pt x="196" y="-184" on="0"/>
        <pt x="73" y="-78" on="0"/>
        <pt x="7" y="73" on="0"/>
        <pt x="7" y="169" on="1"/>
        <pt x="7" y="236" on="0"/>
        <pt x="43" y="363" on="0"/>
        <pt x="109" y="475" on="0"/>
        <pt x="200" y="568" on="0"/>
        <pt x="309" y="636" on="0"/>
        <pt x="432" y="673" on="0"/>
        <pt x="497" y="673" on="1"/>
        <pt x="585" y="673" on="0"/>
        <pt x="726" y="628" on="0"/>
        <pt x="824" y="545" on="0"/>
        <pt x="876" y="425" on="0"/>
        <pt x="876" y="350" on="1"/>
        <pt x="876" y="267" on="0"/>
        <pt x="824" y="133" on="0"/>
        <pt x="727" y="39" on="0"/>
        <pt x="589" y="-12" on="0"/>
      </contour>
      <contour>
        <pt x="377" y="143" on="1"/>
        <pt x="385" y="143" on="0"/>
        <pt x="412" y="178" on="0"/>
        <pt x="440" y="235" on="0"/>
        <pt x="468" y="305" on="0"/>
        <pt x="478" y="341" on="1"/>
        <pt x="466" y="348" on="0"/>
        <pt x="454" y="354" on="1"/>
        <pt x="443" y="359" on="0"/>
        <pt x="418" y="367" on="0"/>
        <pt x="404" y="367" on="1"/>
        <pt x="397" y="367" on="0"/>
        <pt x="382" y="338" on="0"/>
        <pt x="370" y="292" on="0"/>
        <pt x="363" y="235" on="0"/>
        <pt x="363" y="207" on="1"/>
        <pt x="363" y="179" on="0"/>
        <pt x="371" y="143" on="0"/>
      </contour>
    </TTGlyph>
    <TTGlyph name="atilde" xMin="9" yMin="-12" xMax="541" yMax="740">
      <component glyphName="a" x="0" y="0" flags="0x204"/>
      <component glyphName="tilde" x="65" y="2" flags="0x4"/>
    </TTGlyph>
    <TTGlyph name="b" xMin="16" yMin="-12" xMax="513" yMax="742">
      <contour>
        <pt x="16" y="74" on="1"/>
        <pt x="40" y="218" on="0"/>
        <pt x="58" y="333" on="1"/>
        <pt x="66" y="382" on="0"/>
        <pt x="81" y="478" on="0"/>
        <pt x="93" y="556" on="0"/>
        <pt x="101" y="609" on="0"/>
        <pt x="101" y="615" on="1"/>
        <pt x="101" y="648" on="0"/>
        <pt x="68" y="648" on="1"/>
        <pt x="40" y="648" on="1"/>
        <pt x="52" y="730" on="1"/>
        <pt x="86" y="730" on="0"/>
        <pt x="166" y="734" on="0"/>
        <pt x="200" y="736" on="1"/>
        <pt x="240" y="739" on="0"/>
        <pt x="279" y="742" on="1"/>
        <pt x="295" y="722" on="1"/>
        <pt x="280" y="652" on="0"/>
        <pt x="266" y="580" on="1"/>
        <pt x="254" y="518" on="0"/>
        <pt x="226" y="370" on="0"/>
        <pt x="214" y="302" on="1"/>
        <pt x="224" y="302" on="1"/>
        <pt x="244" y="338" on="0"/>
        <pt x="278" y="392" on="0"/>
        <pt x="309" y="432" on="0"/>
        <pt x="339" y="461" on="0"/>
        <pt x="354" y="472" on="1"/>
        <pt x="430" y="472" on="0"/>
        <pt x="513" y="385" on="0"/>
        <pt x="513" y="307" on="1"/>
        <pt x="513" y="243" on="0"/>
        <pt x="468" y="128" on="0"/>
        <pt x="393" y="40" on="0"/>
        <pt x="293" y="-12" on="0"/>
        <pt x="238" y="-12" on="1"/>
        <pt x="188" y="-12" on="0"/>
        <pt x="110" y="7" on="0"/>
        <pt x="84" y="18" on="1"/>
        <pt x="52" y="31" on="0"/>
        <pt x="30" y="48" on="1"/>
      </contour>
      <contour>
        <pt x="320" y="334" on="1"/>
        <pt x="311" y="334" on="0"/>
        <pt x="284" y="298" on="0"/>
        <pt x="255" y="241" on="0"/>
        <pt x="228" y="170" on="0"/>
        <pt x="219" y="136" on="1"/>
        <pt x="227" y="128" on="0"/>
        <pt x="237" y="123" on="1"/>
        <pt x="245" y="118" on="0"/>
        <pt x="265" y="110" on="0"/>
        <pt x="276" y="110" on="1"/>
        <pt x="288" y="110" on="0"/>
        <pt x="309" y="134" on="0"/>
        <pt x="324" y="176" on="0"/>
        <pt x="333" y="233" on="0"/>
        <pt x="333" y="266" on="1"/>
        <pt x="333" y="295" on="0"/>
        <pt x="326" y="334" on="0"/>
      </contour>
    </TTGlyph>
    <TTGlyph name="b.sups" xMin="11" yMin="319" xMax="365" yMax="825">
      <contour>
        <pt x="11" y="380" on="1"/>
        <pt x="27" y="473" on="0"/>
        <pt x="39" y="550" on="1"/>
        <pt x="44" y="582" on="0"/>
        <pt x="55" y="646" on="0"/>
        <pt x="63" y="697" on="0"/>
        <pt x="68" y="732" on="0"/>
        <pt x="68" y="736" on="1"/>
        <pt x="68" y="757" on="0"/>
        <pt x="45" y="757" on="1"/>
        <pt x="27" y="757" on="1"/>
        <pt x="36" y="816" on="1"/>
        <pt x="60" y="816" on="0"/>
        <pt x="117" y="818" on="0"/>
        <pt x="141" y="820" on="1"/>
        <pt x="169" y="822" on="0"/>
        <pt x="198" y="825" on="1"/>
        <pt x="210" y="811" on="1"/>
        <pt x="201" y="766" on="0"/>
        <pt x="191" y="718" on="1"/>
        <pt x="183" y="677" on="0"/>
        <pt x="165" y="581" on="0"/>
        <pt x="157" y="538" on="1"/>
        <pt x="164" y="539" on="1"/>
        <pt x="191" y="584" on="0"/>
        <pt x="230" y="630" on="0"/>
        <pt x="250" y="644" on="1"/>
        <pt x="305" y="644" on="0"/>
        <pt x="365" y="586" on="0"/>
        <pt x="365" y="532" on="1"/>
        <pt x="365" y="489" on="0"/>
        <pt x="334" y="412" on="0"/>
        <pt x="280" y="353" on="0"/>
        <pt x="210" y="319" on="0"/>
        <pt x="171" y="319" on="1"/>
        <pt x="135" y="319" on="0"/>
        <pt x="79" y="332" on="0"/>
        <pt x="60" y="340" on="1"/>
        <pt x="37" y="350" on="0"/>
        <pt x="21" y="362" on="1"/>
      </contour>
      <contour>
        <pt x="225" y="547" on="1"/>
        <pt x="219" y="547" on="0"/>
        <pt x="202" y="523" on="0"/>
        <pt x="183" y="487" on="0"/>
        <pt x="167" y="443" on="0"/>
        <pt x="163" y="424" on="1"/>
        <pt x="162" y="424" on="0"/>
        <pt x="167" y="419" on="0"/>
        <pt x="177" y="413" on="0"/>
        <pt x="190" y="407" on="0"/>
        <pt x="197" y="407" on="1"/>
        <pt x="212" y="407" on="0"/>
        <pt x="231" y="462" on="0"/>
        <pt x="231" y="505" on="1"/>
        <pt x="231" y="523" on="0"/>
        <pt x="228" y="547" on="0"/>
      </contour>
    </TTGlyph>
    <TTGlyph name="backslash" xMin="34" yMin="-110" xMax="276" yMax="675">
      <contour>
        <pt x="54" y="675" on="1"/>
        <pt x="173" y="675" on="1"/>
        <pt x="229" y="226" on="1"/>
        <pt x="236" y="169" on="0"/>
        <pt x="253" y="54" on="0"/>
        <pt x="260" y="8" on="1"/>
        <pt x="268" y="-46" on="0"/>
        <pt x="276" y="-95" on="1"/>
        <pt x="263" y="-110" on="1"/>
        <pt x="137" y="-110" on="1"/>
        <pt x="131" y="-63" on="0"/>
        <pt x="124" y="-9" on="1"/>
        <pt x="118" y="37" on="0"/>
        <pt x="104" y="152" on="0"/>
        <pt x="96" y="215" on="1"/>
        <pt x="92" y="245" on="0"/>
        <pt x="82" y="315" on="0"/>
        <pt x="72" y="389" on="0"/>
        <pt x="62" y="462" on="0"/>
        <pt x="57" y="496" on="1"/>
        <pt x="46" y="575" on="0"/>
        <pt x="34" y="655" on="1"/>
      </contour>
    </TTGlyph>
    <TTGlyph name="bar" xMin="12" yMin="-269" xMax="276" yMax="807">
      <contour>
        <pt x="276" y="791" on="1"/>
        <pt x="262" y="695" on="0"/>
        <pt x="250" y="603" on="1"/>
        <pt x="245" y="564" on="0"/>
        <pt x="233" y="480" on="0"/>
        <pt x="223" y="398" on="0"/>
        <pt x="213" y="322" on="0"/>
        <pt x="209" y="291" on="1"/>
        <pt x="205" y="259" on="0"/>
        <pt x="195" y="177" on="0"/>
        <pt x="184" y="88" on="0"/>
        <pt x="173" y="-5" on="0"/>
        <pt x="168" y="-48" on="1"/>
        <pt x="156" y="-150" on="0"/>
        <pt x="143" y="-258" on="1"/>
        <pt x="25" y="-269" on="1"/>
        <pt x="12" y="-253" on="1"/>
        <pt x="24" y="-153" on="0"/>
        <pt x="36" y="-56" on="1"/>
        <pt x="41" y="-15" on="0"/>
        <pt x="52" y="74" on="0"/>
        <pt x="63" y="161" on="0"/>
        <pt x="73" y="242" on="0"/>
        <pt x="78" y="276" on="1"/>
        <pt x="143" y="796" on="1"/>
        <pt x="257" y="807" on="1"/>
      </contour>
    </TTGlyph>
    <TTGlyph name="braceleft" xMin="25" yMin="-123" xMax="376" yMax="659">
      <contour>
        <pt x="53" y="311" on="1"/>
        <pt x="88" y="322" on="0"/>
        <pt x="126" y="359" on="0"/>
        <pt x="126" y="382" on="1"/>
        <pt x="126" y="397" on="0"/>
        <pt x="116" y="434" on="0"/>
        <pt x="103" y="474" on="0"/>
        <pt x="93" y="515" on="0"/>
        <pt x="93" y="533" on="1"/>
        <pt x="93" y="561" on="0"/>
        <pt x="121" y="607" on="0"/>
        <pt x="171" y="640" on="0"/>
        <pt x="239" y="659" on="0"/>
        <pt x="280" y="659" on="1"/>
        <pt x="295" y="659" on="0"/>
        <pt x="326" y="655" on="0"/>
        <pt x="339" y="653" on="1"/>
        <pt x="354" y="650" on="0"/>
        <pt x="368" y="647" on="1"/>
        <pt x="376" y="631" on="1"/>
        <pt x="348" y="548" on="1"/>
        <pt x="342" y="549" on="0"/>
        <pt x="337" y="550" on="1"/>
        <pt x="332" y="551" on="0"/>
        <pt x="320" y="553" on="0"/>
        <pt x="315" y="553" on="1"/>
        <pt x="289" y="553" on="0"/>
        <pt x="260" y="522" on="0"/>
        <pt x="260" y="495" on="1"/>
        <pt x="260" y="484" on="0"/>
        <pt x="264" y="456" on="0"/>
        <pt x="268" y="426" on="0"/>
        <pt x="272" y="397" on="0"/>
        <pt x="272" y="385" on="1"/>
        <pt x="272" y="350" on="0"/>
        <pt x="229" y="300" on="0"/>
        <pt x="190" y="290" on="1"/>
        <pt x="189" y="285" on="1"/>
        <pt x="250" y="264" on="0"/>
        <pt x="250" y="206" on="1"/>
        <pt x="250" y="188" on="0"/>
        <pt x="236" y="144" on="0"/>
        <pt x="218" y="98" on="0"/>
        <pt x="204" y="55" on="0"/>
        <pt x="204" y="40" on="1"/>
        <pt x="204" y="17" on="0"/>
        <pt x="229" y="-9" on="0"/>
        <pt x="251" y="-9" on="1"/>
        <pt x="256" y="-9" on="0"/>
        <pt x="267" y="-8" on="0"/>
        <pt x="272" y="-7" on="1"/>
        <pt x="277" y="-6" on="0"/>
        <pt x="281" y="-4" on="1"/>
        <pt x="292" y="-17" on="1"/>
        <pt x="268" y="-100" on="1"/>
        <pt x="257" y="-107" on="0"/>
        <pt x="240" y="-112" on="1"/>
        <pt x="226" y="-117" on="0"/>
        <pt x="184" y="-123" on="0"/>
        <pt x="158" y="-123" on="1"/>
        <pt x="129" y="-123" on="0"/>
        <pt x="80" y="-107" on="0"/>
        <pt x="45" y="-78" on="0"/>
        <pt x="25" y="-40" on="0"/>
        <pt x="25" y="-17" on="1"/>
        <pt x="25" y="7" on="0"/>
        <pt x="48" y="58" on="0"/>
        <pt x="77" y="108" on="0"/>
        <pt x="100" y="153" on="0"/>
        <pt x="100" y="170" on="1"/>
        <pt x="100" y="217" on="0"/>
        <pt x="39" y="235" on="1"/>
      </contour>
    </TTGlyph>
</ttFont>
